<?xml version="1.0" encoding="utf-8"?>
<!-- Generator: Adobe Illustrator 25.0.0, SVG Export Plug-In . SVG Version: 6.00 Build 0)  -->
<svg version="1.1" id="Layer_1" xmlns="http://www.w3.org/2000/svg" xmlns:xlink="http://www.w3.org/1999/xlink" x="0px" y="0px"
	 viewBox="0 0 1080 1080" style="enable-background:new 0 0 1080 1080;" xml:space="preserve">
<style type="text/css">
	.st0{opacity:5.000000e-02;}
	.st1{fill:#2A94F4;}
	.st2{opacity:0.1;fill:#2A94F4;enable-background:new    ;}
	.st3{fill:#0B4870;}
	.st4{fill:#FFFFFF;}
	.st5{opacity:0.5;}
	.st6{fill:#F7F7F7;}
	.st7{fill:none;stroke:#102236;stroke-width:0.3749;stroke-linecap:round;stroke-linejoin:round;stroke-miterlimit:10;}
	.st8{fill:#FFBE55;}
	.st9{opacity:0.16;fill:#B8B8B8;enable-background:new    ;}
	.st10{fill:#EBEDFD;}
	.st11{fill:#FA968C;}
	.st12{fill:#FAB9AF;}
</style>
<g class="st0">
	<path class="st1" d="M948,644.5c-73.2-53.3-92.6-83.6-92.6-83.6C1136.2,225,568.7,115.4,458.2,346.3
		c-46.1,96.3-139.9,94.2-299.5,124.4C11.2,498.7,15.8,650.4,137.3,769.1h878.6C1036.6,697.5,981.4,668.9,948,644.5z"/>
</g>
<path class="st2" d="M397.9,272.3c0,0-8-10.5-12.9-15.4c-8.9-8.7-19-24.1-51.5-12.8c-2.5,0.9-5,2.1-7.4,3.2
	c-2.9,1.4-11.7,1.4-20.8-6.8c-14.4-13.1-20.1-23-39.9-23.3c-23-0.4-26.6,32.4-44.5,40.8c-11.4,5.3-41.4,10.6-47.7,13L397.9,272.3z"
	/>
<path class="st1" d="M165.3,712.7c1.5,0.1,39.8-4.5,41.6-40.1c1.7-35.6-22.7-44.5-16.2-84.1c6.4-39.7,23.3-51.1-14.5-80
	c0,0-16.8-11.7-17.6-28c-0.9-19.6-34.7-42.3-57.4-29.2c-22.7,13.1-17.3,33.2,2.1,65.9s0.7,38.3-3,48.9c-3.7,10.6-12.4,21.6,7.4,46.9
	c19.8,25.2-3.8,56,13.1,80.2C120.7,692.9,135.5,710.8,165.3,712.7z"/>
<g>
	<path class="st3" d="M159.4,767.3c-0.8-0.2-1.4-1-1.2-1.9c20.6-108.8-21.4-257.1-21.8-258.6c-0.2-0.9,0.2-1.8,1.1-2
		c0.9-0.2,1.8,0.2,2,1.1c0.4,1.5,42.6,150.5,21.9,260.1C161.2,766.9,160.3,767.5,159.4,767.3C159.4,767.3,159.4,767.3,159.4,767.3z"
		/>
	<path class="st3" d="M150.8,565.1c-0.1,0-0.2-0.1-0.3-0.1c-0.8-0.4-1.2-1.3-0.8-2.1c0.1-0.2,8.6-19.4,12.1-35.8
		c0.2-0.9,1-1.4,1.9-1.2c0.9,0.2,1.4,1,1.2,1.9c-3.6,16.8-12.3,36.3-12.4,36.5C152.3,564.9,151.5,565.3,150.8,565.1z"/>
	<path class="st3" d="M156.3,598c-0.2-0.1-0.4-0.2-0.6-0.3c-8.1-6.7-28.6-19.4-28.8-19.5c-0.8-0.5-1-1.5-0.5-2.2
		c0.5-0.8,1.5-1,2.2-0.5c0.8,0.5,20.9,12.9,29.2,19.8c0.7,0.6,0.8,1.6,0.2,2.3C157.5,597.9,156.9,598.1,156.3,598z"/>
	<path class="st3" d="M160.9,630c-0.1,0-0.2-0.1-0.3-0.1c-0.8-0.4-1.1-1.4-0.7-2.2l11.4-22.5c0.4-0.8,1.4-1.1,2.2-0.7
		c0.8,0.4,1.1,1.4,0.7,2.2l-11.4,22.5C162.4,629.9,161.6,630.2,160.9,630z"/>
</g>
<g>
	<path class="st4" d="M514.7,354.4l-1.4-4l-1.4,4c-1.2,3.4-4,6.3-7.9,8l0,0l0,0c3.8,1.7,6.7,4.6,7.9,8l1.4,4l1.4-4
		c1.2-3.4,4-6.3,7.9-8l0,0l0,0C518.7,360.7,515.9,357.8,514.7,354.4z"/>
	<path class="st4" d="M751.9,308.7l-2.4-6.8l-2.4,6.8c-2,5.7-6.8,10.5-13.2,13.4l0,0l0,0c6.4,2.8,11.2,7.7,13.2,13.4l2.4,6.8
		l2.4-6.8c2-5.7,6.8-10.5,13.2-13.4l0,0l0,0C758.6,319.2,753.9,314.4,751.9,308.7z"/>
</g>
<g class="st5">
	<path class="st1" d="M871.7,733.6H276V412c0-2.9,2.3-5.2,5.2-5.2h585.2c2.9,0,5.2,2.3,5.2,5.2V733.6z"/>
	<path class="st1" d="M899.5,768.2H248.2c-3,0-5.4-2.4-5.4-5.4v-29.2h662.2v29.2C904.9,765.8,902.5,768.2,899.5,768.2z"/>
	<path class="st4" d="M496.5,733.6l7,6.7c2.8,2.7,6.5,4.1,10.3,4.1H635c4.3,0,8.3-1.8,11.2-5.1l5.1-5.8H496.5z"/>
	<rect x="298.2" y="428.4" class="st6" width="551.4" height="286.5"/>
</g>
<line class="st7" x1="91.2" y1="768.2" x2="1064.5" y2="768.2"/>
<g>
	<circle class="st8" cx="588.3" cy="279.2" r="74.5"/>
	<g>
		<path class="st8" d="M588.3,342.2c-34.8,0-63-28.3-63-63s28.3-63,63-63s63,28.3,63,63S623.1,342.2,588.3,342.2z"/>
	</g>
	<path class="st4" d="M601.7,277c4.6-1.6,7.5-6.3,7.5-12.2c0-8.2-5.6-13.6-14.5-14.2v-7.3h-8.9v7.3h-4.1v-7.3h-8.9v7.3h-6.7V262h6.4
		v33.3h-6.4v11.5h6.7v8.3h8.9v-8.3h4.1v8.3h8.9v-8.3c9.7-0.3,15.9-6.3,15.9-15.6C610.6,283.9,607.2,278.4,601.7,277z M583.7,262h8.7
		c0.8,0,1.6,0.1,2.3,0.4c1.8,0.7,2.8,2.4,2.8,4.9c0,2.6-1.1,4.4-2.8,5.2c-0.7,0.3-1.4,0.4-2.3,0.4h-8.7V262z M594.7,295.1
		c-0.7,0.2-1.4,0.3-2.3,0.3l-8.7-0.1v-11.8h8.7c0.8,0,1.6,0.1,2.3,0.3c2.6,0.7,4.2,2.7,4.2,5.5C598.9,292.4,597.3,294.4,594.7,295.1
		z"/>
</g>
<g>
	<circle class="st8" cx="275.9" cy="416.4" r="48.2"/>
	<g>
		<g>
			<g>
				<g>
					<path class="st8" d="M275.9,457.2c-22.5,0-40.8-18.3-40.8-40.8c0-22.5,18.3-40.8,40.8-40.8s40.8,18.3,40.8,40.8
						C316.7,438.9,298.4,457.2,275.9,457.2z"/>
				</g>
			</g>
		</g>
	</g>
	<path class="st4" d="M299.8,413.5c-0.7-4.2-4.7-7.2-8.9-6.7c-3.6,0.4-6.3,3.1-7.1,6.4l-3.1,0.4c-3.1,0.4-6.1-0.7-8.3-2.9l-2.2-2.2
		c1.5-3.1,1-6.9-1.6-9.4c-3-3-8-3.1-11.2-0.2c-3.5,3.2-3.6,8.5-0.3,11.8c2.5,2.5,6.3,3,9.3,1.6l1.5,1.5c2.4,2.4,3.4,5.9,2.7,9.2
		l-0.5,2.4c-3.4,0.4-6.3,2.9-7,6.5c-0.8,4.2,1.8,8.4,5.9,9.5c4.5,1.2,9.1-1.7,10-6.2c0.7-3.5-0.9-6.9-3.8-8.7
		c0.9-4.2,4.4-7.4,8.6-7.9l0.4-0.1c1.5,3,4.8,5,8.3,4.5C297.3,422.4,300.6,418.2,299.8,413.5z"/>
</g>
<g>
	<rect x="548.2" y="835.5" class="st8" width="96.5" height="13.8"/>
	<path class="st8" d="M596.4,816c-26.6,0-48.2,14.9-48.2,33.3c0,18.4,21.6,33.3,48.2,33.3c26.6,0,48.2-14.9,48.2-33.3
		C644.7,830.9,623.1,816,596.4,816z"/>
	<g>
		<ellipse class="st8" cx="596.4" cy="835.5" rx="48.2" ry="33.3"/>
		<g>
			<g>
				<g>
					<g>
						<path class="st8" d="M596.4,863.7c-22.5,0-40.8-12.6-40.8-28.2s18.3-28.2,40.8-28.2s40.8,12.6,40.8,28.2
							C637.2,851.1,618.9,863.7,596.4,863.7z"/>
					</g>
				</g>
			</g>
		</g>
		<path class="st4" d="M620.3,833.6c-0.7-2.9-4.7-5-8.9-4.7c-3.6,0.3-6.3,2.1-7.1,4.4l-3.1,0.3c-3.1,0.3-6.1-0.5-8.3-2l-2.2-1.5
			c1.5-2.1,1-4.7-1.6-6.5c-3-2.1-8-2.1-11.2-0.2c-3.5,2.2-3.6,5.9-0.3,8.1c2.5,1.7,6.3,2.1,9.3,1.1l1.5,1.1c2.4,1.7,3.4,4,2.7,6.3
			l-0.5,1.6c-3.4,0.3-6.3,2-7,4.5c-0.8,2.9,1.8,5.8,5.9,6.6c4.5,0.8,9.1-1.2,10-4.3c0.7-2.4-0.9-4.8-3.8-6c0.9-2.9,4.4-5.1,8.6-5.4
			l0.4,0c1.5,2.1,4.8,3.4,8.3,3.1C617.8,839.7,621.1,836.8,620.3,833.6z"/>
	</g>
</g>
<g>
	<path class="st9" d="M569.7,549.9H353.6c-0.9,0-1.6-0.7-1.6-1.6v-68.7c0-0.9,0.7-1.6,1.6-1.6h216.1c0.9,0,1.6,0.7,1.6,1.6v68.7
		C571.3,549.2,570.6,549.9,569.7,549.9z"/>
	<path class="st8" d="M586.6,529.8H379.4c-0.8,0-1.5-0.7-1.5-1.5v-68.7c0-0.8,0.7-1.5,1.5-1.5h207.3c0.8,0,1.5,0.7,1.5,1.5v68.7
		C588.2,529.2,587.5,529.8,586.6,529.8z"/>
	<g>
		<path class="st4" d="M553.9,484.7H405.5c-1.3,0-2.3-1-2.3-2.3c0-1.3,1-2.3,2.3-2.3h148.4c1.3,0,2.3,1,2.3,2.3
			C556.2,483.7,555.2,484.7,553.9,484.7z"/>
		<path class="st4" d="M474.1,507.9h-68.6c-1.3,0-2.3-1-2.3-2.3c0-1.3,1-2.3,2.3-2.3h68.6c1.3,0,2.3,1,2.3,2.3
			C476.4,506.8,475.4,507.9,474.1,507.9z"/>
	</g>
</g>
<g>
	<path class="st9" d="M476.5,673.4H276v-75.5c0-0.9,0.7-1.5,1.5-1.5h198.9c0.9,0,1.5,0.7,1.5,1.5v73.9
		C478,672.7,477.3,673.4,476.5,673.4z"/>
	<g>
		<path class="st8" d="M511.4,651.8H228.6c-1,0-1.8-0.8-1.8-1.8v-73.4c0-1,0.8-1.8,1.8-1.8h282.8c1,0,1.8,0.8,1.8,1.8V650
			C513.3,651,512.4,651.8,511.4,651.8z"/>
		<g>
			<path class="st4" d="M479.3,603.4H320c-1.4,0-2.5-1.1-2.5-2.5s1.1-2.5,2.5-2.5h159.3c1.4,0,2.5,1.1,2.5,2.5
				C481.8,602.3,480.7,603.4,479.3,603.4z"/>
			<path class="st4" d="M393.6,628.2H320c-1.4,0-2.5-1.1-2.5-2.5s1.1-2.5,2.5-2.5h73.6c1.4,0,2.5,1.1,2.5,2.5S395,628.2,393.6,628.2
				z"/>
		</g>
		<path class="st4" d="M295.8,634.8h-46.1c-0.9,0-1.6-0.7-1.6-1.6v-41.6c0-0.9,0.7-1.6,1.6-1.6h46.1c0.9,0,1.6,0.7,1.6,1.6v41.6
			C297.4,634.1,296.7,634.8,295.8,634.8z"/>
	</g>
</g>
<g>
	<path class="st10" d="M802.8,695.5H593.3c-1.1,0-2-0.9-2-2V572.2c0-1.1,0.9-2,2-2h209.5c1.1,0,2,0.9,2,2v121.3
		C804.9,694.6,804,695.5,802.8,695.5z"/>
	<g>
		<g>
			<rect x="755.4" y="598.3" class="st4" width="1.5" height="74.4"/>
			<rect x="732.9" y="598.3" class="st4" width="1.5" height="74.4"/>
			<rect x="710.5" y="598.3" class="st4" width="1.5" height="74.4"/>
			<rect x="688" y="598.3" class="st4" width="1.5" height="74.4"/>
			<rect x="665.6" y="598.3" class="st4" width="1.5" height="74.4"/>
			<rect x="643.1" y="598.3" class="st4" width="1.5" height="74.4"/>
		</g>
		<rect x="625.4" y="681.2" class="st4" width="147.4" height="1.5"/>
	</g>
	<path class="st8" d="M677.7,670.2c-0.6,0-1.2-0.1-1.8-0.2c-8.6-2.1-13-10-16.5-16.3c-2.5-4.4-4.8-8.6-7.4-8.6
		c-8.3,0-13.6,9.8-17.8,17.7c-0.8,1.5-1.6,3-2.3,4.2c-0.8,1.3-2.5,1.8-3.9,1c-1.3-0.8-1.8-2.5-1-3.9c0.7-1.2,1.4-2.6,2.2-4
		c4.7-8.8,11-20.7,22.8-20.7c5.9,0,9,5.6,12.3,11.4c3.3,5.9,6.8,12,12.9,13.6c0.5,0.1,0.9,0.1,1.3-0.2c3.6-2.4,5.8-15.2,7.5-25.4
		c2.6-15.4,4.6-27.7,12.2-27.7c0.1,0,0.2,0,0.3,0c7.6,0.3,9.9,10.2,12.3,20.7c2,8.8,4.3,18.7,9.2,19.4c5.8,0.9,8.1-1.1,11-3.6
		c2.7-2.3,6-5.2,12-4.6c5.4,0.5,8.4,4,11.1,7.2c3.7,4.3,7.1,8.3,17,7.3c1.6-0.1,2.9,1,3.1,2.5c0.2,1.5-1,2.9-2.5,3.1
		c-12.8,1.3-17.8-4.6-21.8-9.3c-2.7-3.2-4.4-5-7.4-5.2c-3.7-0.3-5.4,1.2-7.8,3.3c-3.2,2.7-7.1,6.1-15.5,4.9
		c-8.7-1.3-11.4-12.7-13.9-23.8c-1.7-7.2-3.7-16.2-7-16.4c0,0,0,0,0,0c-2.8,0-5.4,15.5-6.6,23c-2.2,13.1-4.2,25.5-9.9,29.2
		C680.4,669.8,679.1,670.2,677.7,670.2z"/>
</g>
<g>
	<g>
		<path class="st8" d="M483,828.9L337.5,806c-1.2-0.2-2.1-1.4-1.9-2.6l0,0c0.2-1.2,1.4-2.1,2.6-1.9l145.6,22.9
			c1.2,0.2,2.1,1.4,1.9,2.6l0,0C485.4,828.3,484.2,829.1,483,828.9z"/>
		<path class="st8" d="M434.1,838.7h-131c-1.1,0-2-0.9-2-2l0,0c0-1.1,0.9-2,2-2h131c1.1,0,2,0.9,2,2l0,0
			C436.2,837.8,435.3,838.7,434.1,838.7z"/>
	</g>
</g>
<path class="st2" d="M632.4,156.8c0,0,4-4.6,6.5-6.8c4.4-3.8,9.5-10.6,25.8-5.6c1.3,0.4,2.5,0.9,3.7,1.4c1.4,0.6,5.9,0.6,10.5-3
	c7.2-5.8,10.1-10.1,20-10.2c11.6-0.2,13.4,14.2,22.3,17.9c5.7,2.3,20.8,4.7,23.9,5.7L632.4,156.8z"/>
<g>
	<path class="st11" d="M936.1,801.7c0,0,5.7,16.9,6.9,19.8c1,2.3,3.1,3.9,5,5.4c0.6,0.5,1.3,1.6,1.8,2.6c0.4,0.8,0.4,1.7,0.1,2.5
		c-6,14-22.3,18.8-22.6,17.7c-0.6-2,2-5.7,5.5-7.5c3.5-1.8,5.6-5.4,6-9.3l0,0c0.3-3.1-0.2-6.2-1.5-9l-5.8-12.7L936.1,801.7z"/>
	<path class="st11" d="M912,821.2l-5,17.5c-1.5,5.3-1.1,11.1,1.3,16.1c0,0,0,0,0,0c1.3,2.8-0.2,6.1-3.2,7
		c-9.6,2.9-28.3,8.3-29.1,7.5c-4-3.8,7.4-9,15.8-14.6c5.7-3.8,8.9-22.9,10.2-37.7l8.6,2.7C911.4,820,911.9,820.5,912,821.2z"/>
	<path class="st3" d="M893.5,859.9c-4,1.1-8.3,1.3-12.3,1.5c-0.5,0-0.9,0.2-1.3,0.4c-3.9,2.7-6,5.6-3.9,7.5
		c0.8,0.8,22.8-5.6,31.4-8.2c1.8-0.5,2.7-2.5,1.9-4.2l-1.4-3.1C903.4,856.4,898.6,858.5,893.5,859.9z"/>
	<path class="st3" d="M915.5,623.7c10.3,2,18.5,14.5,16,27.8c-1.5,7.6-10.2,34.8-19.2,56.2c-3.5,8.2-2.8,17.7,2.5,24.9
		c0.9,1.2,1.6,2.4,2.2,3.6c3,6.2,13.6,42.7,19.7,66.9c-0.8,3.1-2.8,6.9-5.3,8.2c-11.9-21-31.1-59.1-34.3-65.8
		c-1.7-3.7-3.6-7.9-5-11.9c-7.8-11.7-2.8-74.1-0.4-86.5C894.3,633.9,905.1,621.7,915.5,623.7z"/>
	
		<ellipse transform="matrix(5.509895e-02 -0.9985 0.9985 5.509895e-02 318.5471 1433.7897)" class="st3" cx="916.8" cy="548.6" rx="20.7" ry="16.1"/>
	<path class="st3" d="M920.5,550.9c0.9-11.4,10.7-20.5,22.1-20.6c10.2,0,18.6,6.7,21.4,15.7c1,3.2,3.9,5.4,7.2,5.5
		c1.4,0.1,2.8,0.3,4.2,0.6c8.3,2.2,14.4,9.6,14.8,18.2c0.4,7.7-3.6,14.4-9.6,18c-2.6,1.5-4.1,4.2-4.7,7.2
		c-2.6,13.5-15.6,22.9-29.8,20.5c-12.1-2-21.3-12.5-21.6-24.8c-0.2-7.5,2.7-14.2,7.5-19.1C924.6,568.2,919.8,560,920.5,550.9z"/>
	<path class="st3" d="M918.3,521.1c0,0-9.3,5.2-8.7,12.9c0,0-4.6-3.7-5.1-15.5C904.3,510.3,918.3,521.1,918.3,521.1z"/>
	<path class="st12" d="M910,567.4c-0.2,2.7-0.8,5.6-2.4,8.6c-0.8,1.5-1.9,2.9-3.2,4c-1.3,1.1-2.8,2-4.3,2.6c-3,1.2-5.9,1.4-8.5,1.3
		c-2.6-0.1-5-0.5-7.3-1.1c-4.6-1.1-8.8-2.8-12.9-4.6c-4.1-1.8-8-3.8-11.8-6c-7.6-4.3-14.8-9-21.8-14c-7-5-13.8-10.2-20.3-16
		c-0.7-0.6-0.8-1.7-0.1-2.4c0.6-0.7,1.6-0.8,2.3-0.2l0,0c3.4,2.5,7,4.8,10.5,7c3.6,2.3,7.2,4.5,10.8,6.6c7.3,4.2,14.8,8.2,22.4,11.6
		c3.8,1.7,7.6,3.3,11.5,4.7c3.8,1.4,7.7,2.5,11.5,3.1c1.9,0.3,3.7,0.5,5.3,0.4c1.7,0,3.1-0.4,4-0.8c0.9-0.5,1.3-0.9,1.7-1.7
		c0.4-0.9,0.7-2.2,0.7-3.7c0.1-3.3,2.8-6,6.1-5.9c3.3,0.1,6,2.8,5.9,6.1C910,567.1,910,567.2,910,567.4L910,567.4z"/>
	<path class="st8" d="M903.4,606.8c-3-11.1-9-34.5-8-42c0.7-4.8,4.9-8.3,9.7-8l31.4,1.7c5.2,0.3,9.2,4.6,9.1,9.9
		c-0.2,9.1-5.6,29.6-8.5,40.3L903.4,606.8z"/>
	<path class="st3" d="M902.1,820.9c-0.5-0.3-0.7-0.9-0.7-1.5c1.9-23.1,5-52.4,5.8-58c0.1-0.6,0.2-1.3,0.3-1.9
		c-3.4-27.6-1-86.3-0.9-96.6c0.1-13.5,9.1-28.3,19.6-28.3c10.5,0.1,21.3,11.6,24,24.1c1.8,8.3-9.2,51.3-20.3,82.3
		c-2.3,6.5-3,13.5-2.4,20.4c0.4,4.8,0.4,9.7-0.2,13.4c-0.8,5.5-8.3,27.8-15.2,46.8c-0.2,0.6-0.7,1-1.2,1.1
		C907.9,823.2,904.8,822.8,902.1,820.9z"/>
	<path class="st8" d="M940,622.6c-1.4-4.6-1.6-9.6-0.6-14.3c2.2-11,6.1-31.8,6.4-40.8c0.1-4.8-3.6-8.7-8.3-9l-4.7-0.3
		c-2,4-5.9,7-11.8,6.7c-5.8-0.3-9.4-3.7-11-7.9l-4.4-0.2c4.2,10.4,1.7,23.8-6.9,31.1c1.2,5.5,2.2,10.9,2.9,15.4
		c1,6,0.1,12.1-2.6,17.6c-4.5,9.4-8.6,24.7-8,30.8c32.5,11.2,56.3-4.1,56.3-4.1L940,622.6z"/>
	<g>
		<polygon class="st12" points="916.2,559.6 930.5,558.9 926.8,543 917.6,543.7 		"/>
	</g>
	<path class="st11" d="M917.6,543.7l9.3-0.6l1.1,4.9c-2.2,2.2-5.1,7.1-8.5,6.9c-1.1-0.1-2-0.4-2.9-1L917.6,543.7z"/>
	<path class="st12" d="M916.8,551.2c3.1,0.2,6.6-1.2,11.5-5c2.8-2.2,5-6.2,5.2-8.9l0.8-15.2l-23.4-1.3c0,0-2.2,8-0.9,16.1
		C910.9,542.9,914.4,551,916.8,551.2z"/>
	<path class="st12" d="M929.7,534.1c-0.2,3,1.1,5.5,2.9,5.6c1.8,0.1,3.9-3.7,4.1-6.7c0.2-3-1.7-4-3.5-4.1
		C931.4,528.8,929.8,531.2,929.7,534.1z"/>
	<path class="st3" d="M937.1,524c0.3-4.8-3.4-8.8-8.1-9.1l-7.9-0.4c-2.3-0.1-4.4-0.8-6.3-2c-2.7-1.7-6.3-1.4-8.3,1.1
		c-2.2,2.7-3.3,6.4,1.7,10.1c2.5,1.9,6.4,0.2,8.9,1.1c0.2,0,0.3,0,0.5,0l7,0.4c2.4,0.1,4.2,2.2,4.1,4.6c0,1.5,1.1,2.8,2.7,2.9l0.3,0
		l1.3-3.5l3.6,5.5L937.1,524z"/>
	<path class="st12" d="M818.7,532.7c0,0,3.8,7.4,1.9,9.3c-1.9,1.9-3.5,2.8-6.3,0.2c-2.9-2.6-5.5-7.6-6.5-10.9s-0.4-9.5,0.1-10.1
		c1.9-2.3,3.1,3.9,3.8,6.8c0.7,2.9,1.8,6.2,3.2,5.5c1.3-0.8-0.5-6.3,0.7-7.7C816.8,524.5,818.7,532.7,818.7,532.7z"/>
	<path class="st12" d="M886.7,627.6c0,0,8.2-0.9,9.3,1.5c1.1,2.4,1.4,4.2-2.1,6c-3.5,1.7-9,2.5-12.5,2.2c-3.4-0.2-9-3.1-9.4-3.7
		c-1.5-2.5,4.7-1.5,7.7-1.1c3,0.4,6.5,0.5,6.2-1c-0.2-1.5-6.1-1.8-6.9-3.4C878.3,626.5,886.7,627.6,886.7,627.6z"/>
	<path class="st3" d="M912.6,520.5c0.6,3.5-0.7,5.4,10.4,11.4c11.1,6.1,14.8,3.9,18.1,10c0,0-1-9.8-7.1-13.4
		c-6.1-3.7-16.9-6.4-20-14.3C914,514.2,912.2,518.1,912.6,520.5z"/>
	<path class="st12" d="M944.5,565.6c1.6,2.4,2.9,4.6,4.2,6.9c1.3,2.3,2.5,4.7,3.6,7.1c2.2,4.8,4.2,9.8,5.6,15.1
		c1.4,5.3,2.3,10.8,1.9,16.7c-0.2,2.9-0.8,5.9-1.8,8.8c-1,2.9-2.7,5.7-4.8,8c-2.1,2.3-4.6,4.2-7.2,5.5c-2.6,1.4-5.3,2.4-8,3.1
		c-2.7,0.7-5.4,1.1-8.1,1.4c-2.7,0.2-5.3,0.3-7.9,0.3c-10.5-0.2-20.6-2-30.5-4.4c-0.9-0.2-1.5-1.2-1.3-2.1c0.2-0.8,1-1.4,1.9-1.3
		l0,0c10,1.1,20,1.8,29.7,1c4.8-0.4,9.6-1.2,13.9-2.7c4.3-1.5,8-3.8,10.4-6.9c2.4-3.1,3.4-6.9,3.4-11.2c0-4.2-0.9-8.7-2.3-13.1
		c-1.4-4.4-3.3-8.8-5.4-13.1c-1.1-2.1-2.2-4.3-3.4-6.3c-1.2-2-2.5-4.2-3.7-6l-0.1-0.1c-1.8-2.8-1.1-6.5,1.7-8.3
		C938.9,562.1,942.6,562.8,944.5,565.6z"/>
	<path class="st3" d="M914.8,521.3c0,0-1.1,11.7-11.6,16.8c0,0,5-8.6,5-14.4C908.2,517.9,915.7,517.4,914.8,521.3z"/>
	<path class="st3" d="M953.5,836.2c0.7-0.7,0.8-1.9,0.2-2.7c-0.5-0.7-1.9-2.5-2.9-3.9c-0.4-0.6-1.3-0.5-1.7,0.1
		c-4.1,7.4-10.5,13-18.5,13.7c-2.7,1.6-4.5,5.4-4.1,7c0.1,0.4,3.6,0.6,7.4-1.3C951,840.6,953.5,836.2,953.5,836.2z"/>
</g>
<g>
	<circle class="st8" cx="808.8" cy="484.7" r="52"/>
	<g>
		<g>
			<g>
				<g>
					<path class="st8" d="M808.8,528.7c-24.2,0-44-19.7-44-44c0-24.2,19.7-44,44-44c24.2,0,44,19.7,44,44
						C852.8,509,833.1,528.7,808.8,528.7z"/>
				</g>
			</g>
		</g>
	</g>
	<g>
		<polygon class="st4" points="808.8,456.7 792.8,482.4 808.8,489.9 824.8,482.4 		"/>
		<polygon class="st4" points="808.8,512.8 824.8,487.1 808.8,497.5 792.8,487.1 		"/>
	</g>
</g>
</svg>
