<?xml version="1.0" encoding="utf-8"?>
<!-- Generator: Adobe Illustrator 25.0.0, SVG Export Plug-In . SVG Version: 6.00 Build 0)  -->
<svg version="1.1" id="Layer_1" xmlns="http://www.w3.org/2000/svg" xmlns:xlink="http://www.w3.org/1999/xlink" x="0px" y="0px"
	 viewBox="0 0 1080 1080" style="enable-background:new 0 0 1080 1080;" xml:space="preserve">
<style type="text/css">
	.st0{opacity:5.000000e-02;}
	.st1{fill:#2A94F4;}
	.st2{opacity:0.1;fill:#2A94F4;enable-background:new    ;}
	.st3{fill:#0B4870;}
	.st4{fill:#FFFFFF;}
	.st5{opacity:0.5;}
	.st6{fill:#F7F7F7;}
	.st7{fill:none;stroke:#102236;stroke-width:0.3749;stroke-linecap:round;stroke-linejoin:round;stroke-miterlimit:10;}
	.st8{fill:#A52A2A;}
	.st9{opacity:0.16;fill:#B8B8B8;enable-background:new    ;}
	.st10{fill:#EBEDFD;}
	.st11{fill:#A62A2A;}
	.st12{fill:#FA968C;}
	.st13{fill:#FAB9AF;}
</style>
<g class="st0">
	<path class="st1" d="M948.5,644.7c-73.3-53.4-92.7-83.7-92.7-83.7c281.2-336.2-287-446-397.7-214.8
		C412,442.6,318,440.5,158.2,470.8c-147.6,28-143,179.8-21.3,298.6h879.6C1037.1,697.7,981.9,669.1,948.5,644.7z"/>
</g>
<path class="st2" d="M397.7,272c0,0-8-10.6-13-15.4c-8.9-8.7-19-24.1-51.6-12.8c-2.5,0.9-5,2.1-7.4,3.2c-2.9,1.4-11.8,1.4-20.9-6.8
	c-14.5-13.1-20.1-23-39.9-23.3c-23.1-0.4-26.7,32.5-44.6,40.9c-11.4,5.3-41.5,10.7-47.7,13L397.7,272z"/>
<path class="st1" d="M164.9,712.9c1.5,0.1,39.9-4.5,41.6-40.2c1.7-35.7-22.7-44.5-16.3-84.2s23.3-51.1-14.5-80.1
	c0,0-16.9-11.7-17.7-28c-0.9-19.6-34.8-42.3-57.5-29.3c-22.7,13.1-17.4,33.3,2.1,66s0.7,38.4-3,49S87.2,587.8,107,613
	c19.8,25.3-3.8,56.1,13.1,80.3C120.2,693.2,135,711.1,164.9,712.9z"/>
<g>
	<path class="st3" d="M158.9,767.6c-0.8-0.2-1.4-1-1.2-1.9c20.6-108.9-21.4-257.4-21.8-258.9c-0.2-0.9,0.2-1.8,1.1-2
		c0.9-0.2,1.8,0.2,2,1.1c0.4,1.5,42.6,150.7,21.9,260.4C160.7,767.2,159.9,767.8,158.9,767.6C159,767.6,158.9,767.6,158.9,767.6z"/>
	<path class="st3" d="M150.3,565.1c-0.1,0-0.2-0.1-0.3-0.1c-0.8-0.4-1.2-1.3-0.8-2.1c0.1-0.2,8.6-19.4,12.2-35.9
		c0.2-0.9,1-1.4,1.9-1.2s1.4,1,1.2,1.9c-3.6,16.8-12.3,36.3-12.4,36.5C151.9,565,151.1,565.3,150.3,565.1z"/>
	<path class="st3" d="M155.8,598.1c-0.2-0.1-0.4-0.2-0.6-0.3c-8.1-6.7-28.6-19.4-28.8-19.5c-0.8-0.5-1-1.5-0.5-2.2
		c0.5-0.8,1.5-1,2.2-0.5c0.8,0.5,20.9,12.9,29.2,19.8c0.7,0.6,0.8,1.6,0.2,2.3C157.1,598,156.4,598.2,155.8,598.1z"/>
	<path class="st3" d="M160.4,630.1c-0.1,0-0.2-0.1-0.3-0.1c-0.8-0.4-1.1-1.4-0.7-2.2l11.4-22.6c0.4-0.8,1.4-1.1,2.2-0.7
		c0.8,0.4,1.1,1.4,0.7,2.2l-11.4,22.6C161.9,630,161.2,630.3,160.4,630.1z"/>
</g>
<g>
	<path class="st4" d="M514.6,354.2l-1.4-4l-1.4,4c-1.2,3.4-4,6.3-7.9,8l0,0l0,0c3.8,1.7,6.7,4.6,7.9,8l1.4,4l1.4-4
		c1.2-3.4,4-6.3,7.9-8l0,0l0,0C518.7,360.5,515.8,357.6,514.6,354.2z"/>
	<path class="st4" d="M752.1,308.5l-2.4-6.8l-2.4,6.8c-2,5.7-6.8,10.5-13.2,13.4l0,0l0,0c6.4,2.9,11.2,7.7,13.2,13.4l2.4,6.8
		l2.4-6.8c2-5.7,6.8-10.5,13.2-13.4l0,0l0,0C758.9,319,754.1,314.2,752.1,308.5z"/>
</g>
<g class="st5">
	<path class="st1" d="M872.1,733.9H275.7v-322c0-2.9,2.3-5.2,5.2-5.2h585.9c2.9,0,5.2,2.3,5.2,5.2L872.1,733.9L872.1,733.9z"/>
	<path class="st1" d="M899.9,768.5H247.8c-3,0-5.4-2.4-5.4-5.4v-29.2h662.9v29.2C905.3,766.1,902.9,768.5,899.9,768.5z"/>
	<path class="st4" d="M496.4,733.9l7,6.7c2.8,2.7,6.5,4.2,10.3,4.2h121.4c4.3,0,8.4-1.8,11.2-5.1l5.1-5.8L496.4,733.9L496.4,733.9z"
		/>
	<rect x="297.9" y="428.3" class="st6" width="552" height="286.8"/>
</g>
<line class="st7" x1="90.6" y1="768.5" x2="1065.1" y2="768.5"/>
<g>
	<circle class="st8" cx="588.4" cy="278.9" r="74.6"/>
	<g>
		<path class="st8" d="M588.4,342c-34.8,0-63.1-28.3-63.1-63.1s28.3-63.1,63.1-63.1s63.1,28.3,63.1,63.1S623.2,342,588.4,342z"/>
	</g>
	<path class="st4" d="M601.8,276.7c4.6-1.6,7.5-6.4,7.5-12.2c0-8.2-5.6-13.6-14.5-14.2V243h-9v7.3h-4.1V243h-9v7.3H566v11.5h6.4
		v33.4H566v11.5h6.7v8.3h9v-8.3h4.1v8.3h9v-8.3c9.8-0.3,15.9-6.3,15.9-15.7C610.7,283.7,607.3,278.1,601.8,276.7z M583.8,261.7h8.8
		c0.8,0,1.6,0.1,2.3,0.4c1.8,0.7,2.8,2.4,2.8,4.9c0,2.6-1.1,4.4-2.8,5.2c-0.7,0.3-1.4,0.4-2.3,0.4h-8.8V261.7z M594.8,294.9
		c-0.7,0.2-1.4,0.3-2.3,0.3l-8.8-0.1v-11.8h8.8c0.8,0,1.6,0.1,2.3,0.3c2.6,0.7,4.2,2.7,4.2,5.5C599,292.1,597.4,294.2,594.8,294.9z"
		/>
</g>
<g>
	<circle class="st8" cx="275.6" cy="416.3" r="48.3"/>
	<g>
		<g>
			<g>
				<g>
					<path class="st8" d="M275.6,457.1c-22.5,0-40.9-18.3-40.9-40.9s18.3-40.9,40.9-40.9s40.9,18.3,40.9,40.9
						S298.1,457.1,275.6,457.1z"/>
				</g>
			</g>
		</g>
	</g>
	<path class="st4" d="M299.5,413.4c-0.7-4.2-4.7-7.2-9-6.8c-3.6,0.4-6.3,3.1-7.1,6.4l-3.1,0.4c-3.1,0.4-6.1-0.7-8.3-2.9l-2.2-2.2
		c1.5-3.1,1-6.9-1.6-9.4c-3.1-3-8.1-3.1-11.2-0.2c-3.5,3.2-3.6,8.5-0.3,11.8c2.5,2.5,6.3,3,9.3,1.6l1.5,1.5c2.4,2.4,3.4,5.9,2.7,9.2
		l-0.5,2.4c-3.4,0.4-6.3,2.9-7,6.5c-0.9,4.2,1.8,8.4,5.9,9.5c4.5,1.2,9.1-1.7,10.1-6.2c0.7-3.5-0.9-6.9-3.8-8.7
		c0.9-4.2,4.4-7.4,8.6-7.9l0.4-0.1c1.5,3,4.8,5,8.3,4.5C297,422.3,300.3,418.1,299.5,413.4z"/>
</g>
<g>
	<rect x="548.2" y="835.9" class="st8" width="96.6" height="13.8"/>
	<path class="st8" d="M596.5,816.4c-26.7,0-48.3,14.9-48.3,33.3c0,18.4,21.6,33.3,48.3,33.3s48.3-14.9,48.3-33.3
		C644.8,831.3,623.1,816.4,596.5,816.4z"/>
	<g>
		<ellipse class="st8" cx="596.5" cy="835.9" rx="48.3" ry="33.3"/>
		<g>
			<g>
				<g>
					<g>
						<path class="st8" d="M596.5,864.1c-22.5,0-40.9-12.6-40.9-28.2s18.3-28.2,40.9-28.2s40.9,12.6,40.9,28.2
							C637.3,851.5,619,864.1,596.5,864.1z"/>
					</g>
				</g>
			</g>
		</g>
		<path class="st4" d="M620.4,834c-0.7-2.9-4.7-5-9-4.7c-3.6,0.3-6.3,2.1-7.1,4.4l-3.1,0.3c-3.1,0.3-6.1-0.5-8.3-2l-2.2-1.5
			c1.5-2.1,1-4.7-1.6-6.5c-3.1-2.1-8.1-2.1-11.2-0.2c-3.5,2.2-3.6,5.9-0.3,8.1c2.5,1.7,6.3,2.1,9.3,1.1l1.5,1.1
			c2.4,1.7,3.4,4,2.7,6.3l-0.5,1.6c-3.4,0.3-6.3,2-7,4.5c-0.9,2.9,1.8,5.8,5.9,6.6c4.5,0.8,9.1-1.2,10.1-4.3c0.7-2.4-0.9-4.8-3.8-6
			c0.9-2.9,4.4-5.1,8.6-5.5h0.4c1.5,2.1,4.8,3.4,8.3,3.1C617.9,840.1,621.2,837.1,620.4,834z"/>
	</g>
</g>
<g>
	<path class="st9" d="M569.7,549.9H353.4c-0.9,0-1.6-0.7-1.6-1.6v-68.7c0-0.9,0.7-1.6,1.6-1.6h216.4c0.9,0,1.6,0.7,1.6,1.6v68.7
		C571.3,549.3,570.6,549.9,569.7,549.9z"/>
	<path class="st8" d="M586.7,529.9H379.2c-0.8,0-1.5-0.7-1.5-1.5v-68.8c0-0.8,0.7-1.5,1.5-1.5h207.5c0.8,0,1.5,0.7,1.5,1.5v68.8
		C588.2,529.2,587.5,529.9,586.7,529.9z"/>
	<g>
		<path class="st4" d="M553.9,484.7H405.3c-1.3,0-2.3-1-2.3-2.3s1-2.3,2.3-2.3h148.6c1.3,0,2.3,1,2.3,2.3S555.2,484.7,553.9,484.7z"
			/>
		<path class="st4" d="M474,507.9h-68.7c-1.3,0-2.3-1-2.3-2.3s1-2.3,2.3-2.3H474c1.3,0,2.3,1,2.3,2.3
			C476.3,506.8,475.3,507.9,474,507.9z"/>
	</g>
</g>
<g>
	<path class="st9" d="M476.4,673.5H275.7V598c0-0.9,0.7-1.5,1.5-1.5h199.1c0.9,0,1.5,0.7,1.5,1.5v74
		C477.9,672.9,477.2,673.5,476.4,673.5z"/>
	<g>
		<path class="st8" d="M511.4,652H228.3c-1,0-1.8-0.8-1.8-1.8v-73.4c0-1,0.8-1.8,1.8-1.8h283.1c1,0,1.8,0.8,1.8,1.8v73.4
			C513.2,651.2,512.4,652,511.4,652z"/>
		<g>
			<path class="st4" d="M479.2,603.5H319.7c-1.4,0-2.5-1.1-2.5-2.5s1.1-2.5,2.5-2.5h159.5c1.4,0,2.5,1.1,2.5,2.5
				S480.6,603.5,479.2,603.5z"/>
			<path class="st4" d="M393.4,628.4h-73.7c-1.4,0-2.5-1.1-2.5-2.5s1.1-2.5,2.5-2.5h73.7c1.4,0,2.5,1.1,2.5,2.5
				C395.9,627.3,394.8,628.4,393.4,628.4z"/>
		</g>
		<path class="st4" d="M295.5,635h-46.1c-0.9,0-1.6-0.7-1.6-1.6v-41.6c0-0.9,0.7-1.6,1.6-1.6h46.1c0.9,0,1.6,0.7,1.6,1.6v41.6
			C297.1,634.3,296.4,635,295.5,635z"/>
	</g>
</g>
<g>
	<path class="st10" d="M803.1,695.8H593.4c-1.1,0-2-0.9-2-2V572.3c0-1.1,0.9-2,2-2h209.8c1.1,0,2,0.9,2,2v121.4
		C805.2,694.9,804.3,695.8,803.1,695.8z"/>
	<g>
		<g>
			<rect x="755.6" y="598.4" class="st4" width="1.5" height="74.5"/>
			<rect x="733.1" y="598.4" class="st4" width="1.5" height="74.5"/>
			<rect x="710.7" y="598.4" class="st4" width="1.5" height="74.5"/>
			<rect x="688.2" y="598.4" class="st4" width="1.5" height="74.5"/>
			<rect x="665.7" y="598.4" class="st4" width="1.5" height="74.5"/>
			<rect x="643.2" y="598.4" class="st4" width="1.5" height="74.5"/>
		</g>
		<rect x="625.5" y="681.4" class="st4" width="147.6" height="1.5"/>
	</g>
	<path class="st8" d="M677.8,670.3c-0.6,0-1.2-0.1-1.8-0.2c-8.6-2.1-13-10-16.5-16.3c-2.5-4.4-4.8-8.6-7.4-8.6
		c-8.3,0-13.6,9.9-17.8,17.8c-0.8,1.5-1.6,3-2.3,4.2c-0.8,1.3-2.5,1.8-3.9,1c-1.3-0.8-1.8-2.5-1-3.9c0.7-1.2,1.4-2.6,2.2-4
		c4.7-8.8,11.1-20.8,22.8-20.8c5.9,0,9,5.6,12.3,11.5s6.8,12.1,13,13.6c0.5,0.1,0.9,0.1,1.3-0.2c3.7-2.4,5.8-15.2,7.5-25.5
		c2.6-15.5,4.6-27.7,12.2-27.7c0.1,0,0.2,0,0.3,0c7.6,0.3,9.9,10.3,12.3,20.8c2,8.8,4.3,18.7,9.2,19.5c5.8,0.9,8.1-1.1,11-3.6
		c2.7-2.3,6-5.2,12.1-4.6c5.4,0.5,8.5,4.1,11.1,7.2c3.7,4.3,7.1,8.3,17,7.3c1.6-0.1,2.9,1,3.1,2.5c0.2,1.6-1,2.9-2.5,3.1
		c-12.8,1.3-17.8-4.6-21.9-9.3c-2.7-3.2-4.4-5-7.4-5.3c-3.7-0.3-5.4,1.2-7.8,3.3c-3.2,2.7-7.1,6.2-15.5,4.9
		c-8.8-1.3-11.4-12.7-13.9-23.8c-1.7-7.2-3.7-16.3-7-16.4l0,0c-2.8,0-5.4,15.5-6.6,23c-2.2,13.1-4.2,25.5-9.9,29.3
		C680.5,669.9,679.2,670.3,677.8,670.3z"/>
</g>
<g>
	<g>
		<path class="st11" d="M482.9,829.3l-145.7-23c-1.2-0.2-2.1-1.4-1.9-2.6l0,0c0.2-1.2,1.4-2.1,2.6-1.9l145.7,23
			c1.2,0.2,2.1,1.4,1.9,2.6l0,0C485.3,828.6,484.2,829.5,482.9,829.3z"/>
		<path class="st11" d="M434,839.1H302.9c-1.1,0-2-0.9-2-2l0,0c0-1.1,0.9-2,2-2H434c1.1,0,2,0.9,2,2l0,0
			C436,838.2,435.1,839.1,434,839.1z"/>
	</g>
</g>
<path class="st2" d="M632.5,156.3c0,0,4-4.6,6.5-6.8c4.5-3.8,9.6-10.6,25.9-5.6c1.3,0.4,2.5,0.9,3.7,1.4c1.4,0.6,5.9,0.6,10.5-3
	c7.3-5.8,10.1-10.1,20-10.2c11.6-0.2,13.4,14.3,22.4,17.9c5.7,2.3,20.8,4.7,23.9,5.7L632.5,156.3z"/>
<g>
	<path class="st12" d="M936.6,802.1c0,0,5.8,17,6.9,19.8c1,2.3,3.1,3.9,5.1,5.4c0.6,0.5,1.3,1.6,1.8,2.6c0.4,0.8,0.4,1.7,0.1,2.5
		c-6,14-22.3,18.8-22.6,17.7c-0.6-2,2-5.7,5.5-7.5s5.6-5.4,6-9.3l0,0c0.3-3.1-0.2-6.2-1.5-9l-5.8-12.7L936.6,802.1z"/>
	<path class="st12" d="M912.5,821.6l-5,17.5c-1.5,5.4-1.1,11.1,1.3,16.1l0,0c1.3,2.8-0.2,6.1-3.2,7c-9.7,2.9-28.4,8.3-29.1,7.5
		c-4-3.8,7.4-9,15.9-14.7c5.7-3.8,8.9-23,10.2-37.7l8.6,2.7C911.8,820.3,912.3,820.9,912.5,821.6z"/>
	<path class="st3" d="M893.9,860.3c-4,1.1-8.3,1.3-12.3,1.5c-0.5,0-0.9,0.2-1.3,0.4c-3.9,2.7-6,5.6-3.9,7.6
		c0.8,0.8,22.8-5.6,31.4-8.2c1.8-0.5,2.7-2.5,1.9-4.2l-1.4-3.1C903.8,856.8,899,858.9,893.9,860.3z"/>
	<path class="st3" d="M915.9,623.8c10.3,2,18.6,14.5,16,27.8c-1.5,7.7-10.2,34.9-19.3,56.2c-3.5,8.2-2.8,17.8,2.5,24.9
		c0.9,1.2,1.6,2.4,2.2,3.6c3,6.2,13.6,42.7,19.8,67c-0.8,3.1-2.8,7-5.3,8.2c-12-21-31.2-59.2-34.3-65.8c-1.7-3.7-3.6-7.9-5-11.9
		c-7.8-11.7-2.8-74.2-0.4-86.6C894.7,634,905.5,621.8,915.9,623.8z"/>
	
		<ellipse transform="matrix(5.509790e-02 -0.9985 0.9985 5.509790e-02 318.8504 1434.2417)" class="st3" cx="917.2" cy="548.7" rx="20.7" ry="16.1"/>
	<path class="st3" d="M920.9,551c0.9-11.4,10.7-20.6,22.2-20.6c10.2,0,18.6,6.7,21.4,15.7c1,3.2,3.9,5.4,7.2,5.5
		c1.4,0.1,2.8,0.3,4.2,0.6c8.3,2.2,14.4,9.6,14.8,18.2c0.4,7.7-3.6,14.4-9.6,18c-2.6,1.5-4.1,4.2-4.7,7.2
		c-2.6,13.6-15.7,22.9-29.8,20.6c-12.1-2-21.3-12.6-21.6-24.8c-0.2-7.5,2.7-14.2,7.5-19.1C925.1,568.3,920.2,560.1,920.9,551z"/>
	<path class="st3" d="M918.7,521.1c0,0-9.3,5.2-8.7,12.9c0,0-4.6-3.7-5.1-15.5C904.7,510.3,918.7,521.1,918.7,521.1z"/>
	<path class="st13" d="M910.4,567.5c-0.2,2.7-0.8,5.7-2.4,8.6c-0.8,1.5-1.9,2.9-3.2,4s-2.8,2-4.4,2.6c-3,1.2-5.9,1.4-8.5,1.3
		c-2.6-0.1-5-0.5-7.4-1.1c-4.6-1.1-8.8-2.8-12.9-4.6c-4.1-1.8-8-3.8-11.8-6c-7.6-4.3-14.8-9.1-21.9-14c-7-5-13.8-10.2-20.3-16
		c-0.7-0.6-0.8-1.7-0.1-2.4c0.6-0.7,1.6-0.8,2.3-0.2l0,0c3.4,2.5,7,4.8,10.6,7c3.6,2.3,7.2,4.5,10.9,6.6c7.3,4.2,14.8,8.2,22.4,11.6
		c3.8,1.7,7.6,3.3,11.5,4.7c3.8,1.4,7.7,2.5,11.5,3.1c1.9,0.3,3.7,0.5,5.3,0.4c1.7,0,3.1-0.4,4-0.8c0.9-0.5,1.3-0.9,1.7-1.7
		c0.4-0.9,0.7-2.2,0.7-3.7c0.1-3.3,2.8-6,6.1-5.9s6,2.8,5.9,6.1C910.4,567.1,910.4,567.3,910.4,567.5L910.4,567.5z"/>
	<path class="st11" d="M903.8,606.9c-3-11.1-9-34.5-8-42c0.7-4.8,4.9-8.3,9.7-8l31.4,1.7c5.2,0.3,9.2,4.7,9.1,9.9
		c-0.2,9.1-5.6,29.6-8.5,40.3L903.8,606.9z"/>
	<path class="st3" d="M902.5,821.3c-0.5-0.3-0.7-0.9-0.7-1.5c1.9-23.1,5-52.5,5.8-58.1c0.1-0.6,0.2-1.3,0.3-1.9
		c-3.4-27.6-1-86.4-0.9-96.7c0.1-13.6,9.1-28.4,19.6-28.3c10.5,0.1,21.3,11.6,24,24.2c1.8,8.3-9.2,51.3-20.3,82.4
		c-2.3,6.5-3,13.5-2.4,20.4c0.4,4.8,0.4,9.7-0.2,13.4c-0.8,5.5-8.3,27.8-15.2,46.9c-0.2,0.6-0.7,1-1.3,1.1
		C908.3,823.6,905.2,823.1,902.5,821.3z"/>
	<path class="st11" d="M940.5,622.8c-1.4-4.7-1.6-9.6-0.6-14.3c2.2-11.1,6.1-31.9,6.4-40.8c0.1-4.8-3.6-8.8-8.3-9l-4.7-0.3
		c-2,4-5.9,7-11.8,6.7c-5.8-0.3-9.4-3.7-11-7.9l-4.4-0.2c4.2,10.4,1.7,23.8-6.9,31.2c1.2,5.5,2.2,10.9,2.9,15.4
		c1,6,0.1,12.2-2.6,17.6c-4.5,9.4-8.6,24.7-8,30.9c32.5,11.2,56.3-4.1,56.3-4.1L940.5,622.8z"/>
	<g>
		<polygon class="st13" points="916.6,559.6 930.9,558.9 927.3,543.1 918,543.7 		"/>
	</g>
	<path class="st12" d="M918,543.7l9.3-0.6l1.1,4.9c-2.2,2.2-5.1,7.1-8.5,6.9c-1.1-0.1-2-0.4-2.9-1L918,543.7z"/>
	<path class="st13" d="M917.3,551.2c3.1,0.2,6.6-1.2,11.5-5c2.8-2.2,5-6.2,5.2-8.9l0.8-15.2l-23.5-1.3c0,0-2.2,8-0.9,16.1
		C911.3,543,914.8,551.1,917.3,551.2z"/>
	<path class="st13" d="M930.1,534.2c-0.2,3,1.1,5.5,2.9,5.6c1.8,0.1,3.9-3.7,4.1-6.7c0.2-3-1.7-4-3.5-4.1S930.3,531.2,930.1,534.2z"
		/>
	<path class="st3" d="M937.6,524c0.3-4.8-3.4-8.8-8.1-9.1l-7.9-0.4c-2.3-0.1-4.4-0.8-6.3-2c-2.7-1.7-6.3-1.4-8.3,1.1
		c-2.2,2.7-3.3,6.4,1.7,10.1c2.5,1.9,6.4,0.2,8.9,1.1c0.2,0,0.3,0,0.5,0l7,0.4c2.4,0.1,4.2,2.2,4.1,4.6c0,1.5,1.1,2.8,2.7,2.9h0.3
		l1.3-3.5l3.6,5.5L937.6,524z"/>
	<path class="st13" d="M819,532.7c0,0,3.8,7.4,1.9,9.3c-1.9,1.9-3.5,2.8-6.3,0.2c-2.9-2.6-5.5-7.6-6.5-10.9s-0.4-9.5,0.1-10.1
		c1.9-2.3,3.1,3.9,3.8,6.8c0.7,3,1.8,6.2,3.2,5.5c1.3-0.8-0.5-6.3,0.7-7.7C817.1,524.5,819,532.7,819,532.7z"/>
	<path class="st13" d="M887.1,627.8c0,0,8.2-0.9,9.3,1.5s1.4,4.3-2.1,6s-9.1,2.5-12.5,2.2c-3.4-0.2-9-3.1-9.4-3.8
		c-1.5-2.5,4.7-1.5,7.7-1.1s6.5,0.5,6.2-1c-0.2-1.5-6.1-1.8-6.9-3.4C878.7,626.6,887.1,627.8,887.1,627.8z"/>
	<path class="st3" d="M913.1,520.6c0.6,3.5-0.7,5.4,10.4,11.4c11.1,6.1,14.9,3.9,18.1,10c0,0-1-9.8-7.1-13.5s-16.9-6.5-20-14.4
		C914.4,514.2,912.6,518.2,913.1,520.6z"/>
	<path class="st13" d="M944.9,565.6c1.6,2.4,2.9,4.6,4.2,6.9c1.3,2.3,2.5,4.7,3.6,7.1c2.2,4.8,4.2,9.8,5.6,15.1
		c1.4,5.3,2.3,10.9,1.9,16.7c-0.2,2.9-0.8,5.9-1.8,8.8c-1,2.9-2.7,5.7-4.8,8s-4.6,4.2-7.2,5.5c-2.6,1.4-5.3,2.4-8,3.1
		c-2.7,0.7-5.4,1.1-8.1,1.4c-2.7,0.2-5.3,0.3-8,0.3c-10.5-0.2-20.7-2-30.6-4.4c-0.9-0.2-1.5-1.2-1.3-2.1c0.2-0.9,1-1.4,1.9-1.3l0,0
		c10,1.1,20,1.8,29.7,1c4.8-0.4,9.6-1.2,13.9-2.7c4.3-1.5,8-3.8,10.4-6.9c2.4-3.1,3.4-6.9,3.4-11.2s-0.9-8.7-2.4-13.2
		c-1.4-4.4-3.3-8.8-5.4-13.1c-1.1-2.1-2.2-4.3-3.4-6.4c-1.2-2-2.5-4.2-3.7-6l-0.1-0.1c-1.8-2.8-1.1-6.5,1.7-8.3
		C939.4,562.2,943.1,562.9,944.9,565.6z"/>
	<path class="st3" d="M915.2,521.3c0,0-1.1,11.7-11.6,16.8c0,0,5-8.6,5-14.4C908.6,517.9,916.1,517.4,915.2,521.3z"/>
	<path class="st3" d="M954,836.6c0.7-0.7,0.8-1.9,0.2-2.7c-0.5-0.7-1.9-2.5-2.9-3.9c-0.4-0.6-1.3-0.5-1.7,0.1
		c-4.1,7.4-10.5,13-18.5,13.7c-2.7,1.6-4.5,5.4-4.1,7c0.1,0.4,3.6,0.6,7.4-1.3C951.4,840.9,954,836.6,954,836.6z"/>
</g>
<g>
	<circle class="st8" cx="809.1" cy="484.7" r="52"/>
	<g>
		<g>
			<g>
				<g>
					<path class="st8" d="M809.1,528.7c-24.3,0-44-19.7-44-44s19.7-44,44-44s44,19.7,44,44S833.4,528.7,809.1,528.7z"/>
				</g>
			</g>
		</g>
	</g>
	<g>
		<polygon class="st4" points="809.1,456.6 793.1,482.4 809.1,489.9 825.1,482.4 		"/>
		<polygon class="st4" points="809.1,512.8 825.1,487.1 809.1,497.5 793.1,487.1 		"/>
	</g>
</g>
</svg>
