<?xml version="1.0" encoding="utf-8"?>
<!-- Generator: Adobe Illustrator 25.0.0, SVG Export Plug-In . SVG Version: 6.00 Build 0)  -->
<svg version="1.1" xmlns="http://www.w3.org/2000/svg" xmlns:xlink="http://www.w3.org/1999/xlink" x="0px" y="0px"
	 viewBox="0 0 1080 1080" style="enable-background:new 0 0 1080 1080;" xml:space="preserve">
<style type="text/css">
	.st0{display:none;}
	.st1{display:inline;}
	.st2{opacity:0.51;fill:#CCE9FF;enable-background:new    ;}
	.st3{fill:#D3D3D3;}
	.st4{clip-path:url(#SVGID_2_);fill:#2A94F4;}
	.st5{clip-path:url(#SVGID_4_);fill:#2A94F4;}
	.st6{clip-path:url(#SVGID_6_);fill:#2A94F4;}
	.st7{clip-path:url(#SVGID_8_);fill:#FEE3CA;}
	.st8{clip-path:url(#SVGID_10_);fill:#FFBE55;}
	.st9{clip-path:url(#SVGID_12_);}
	.st10{fill:#2A94F4;}
	.st11{clip-path:url(#SVGID_14_);fill:#2A94F4;}
	.st12{clip-path:url(#SVGID_16_);fill:#FFBE55;}
	.st13{clip-path:url(#SVGID_18_);fill:#FEE3CA;}
	.st14{clip-path:url(#SVGID_20_);fill:#2A94F4;}
	.st15{clip-path:url(#SVGID_22_);fill:#EACDB5;}
	.st16{clip-path:url(#SVGID_24_);fill:#FEE3CA;}
	.st17{clip-path:url(#SVGID_26_);fill:#084970;}
	.st18{clip-path:url(#SVGID_28_);fill:#FEE3CA;}
	.st19{clip-path:url(#SVGID_30_);}
	.st20{fill:#FFBE55;}
	.st21{fill:#F49E87;}
	.st22{fill:#222B54;}
	.st23{fill:#FFFFFF;}
	.st24{fill:#BACEDB;}
	.st25{fill:#084970;}
	.st26{fill:#FEE3CA;}
	.st27{fill:#0E538C;}
	.st28{clip-path:url(#SVGID_32_);}
	.st29{fill:#EACDB5;}
	.st30{fill:#FCD2B1;}
	.st31{fill:none;stroke:#FFFFFF;stroke-width:4;stroke-linecap:round;stroke-linejoin:round;stroke-miterlimit:10;}
	.st32{fill:#CBE9FF;}
	.st33{fill:#F2F2F2;}
	.st34{fill:#E5A03C;}
	.st35{fill:#FC43A6;}
	.st36{fill:#2A93F6;}
	.st37{opacity:0.34;fill:#2A93F6;enable-background:new    ;}
	.st38{fill:url(#SVGID_33_);}
	.st39{fill:#2995F5;}
	.st40{fill:#094872;}
	.st41{fill:#0C4872;}
	.st42{fill:url(#SVGID_34_);}
	.st43{fill:#251B63;}
	.st44{opacity:0.46;fill:#F9AA41;enable-background:new    ;}
	.st45{opacity:0.3;fill:#0D4770;enable-background:new    ;}
	.st46{opacity:0.4;fill:#0E538C;enable-background:new    ;}
	.st47{fill:#FFCF8A;}
	.st48{fill:#0F528C;}
	.st49{fill:url(#SVGID_35_);}
	.st50{fill:url(#SVGID_36_);}
	.st51{fill:url(#SVGID_37_);}
</style>
<g id="Layer_1" class="st0">
	<g class="st1">
		<path class="st2" d="M289.9,273.4c0,0,174.5-201,367.4-72.4s53.1,290.8,256.1,375.5c149.8,62.5,92.9,485.7-151,409.2
			S453.8,794.4,252.5,867.1S-7.1,572.4,289.9,273.4z"/>
		<g>
			<g>
				
					<ellipse transform="matrix(0.7071 -0.7071 0.7071 0.7071 -95.3693 725.8291)" class="st3" cx="828.5" cy="478" rx="139" ry="139"/>
			</g>
			<path class="st3" d="M656.7,845.7c-3.3,83.6-64.9,152.8-148.5,154.4c-83.6,1.6-152.8-64.9-154.4-148.5
				c-1.6-83.7,65.1-160.8,148.5-154.4C591.3,704,659.7,769.4,656.7,845.7z"/>
			
				<ellipse transform="matrix(0.7071 -0.7071 0.7071 0.7071 -164.7127 293.9134)" class="st3" cx="272.4" cy="345.8" rx="141.7" ry="141.7"/>
			<g>
				<path class="st3" d="M810.5,510.8c2.2,2-51.5,63.8-120,138c-68.5,74.2-125.7,132.7-127.9,130.7c-2.2-2,51.5-63.8,120-138.1
					C751.1,567.3,808.3,508.8,810.5,510.8z"/>
			</g>
			<g>
				<path class="st3" d="M782,410c-0.6,2.9-95.3-15.2-211.4-40.4c-116.1-25.3-209.7-48.1-209.1-51c0.6-2.9,95.3,15.2,211.4,40.5
					C689.1,384.2,782.7,407.1,782,410z"/>
			</g>
			<g>
				<path class="st3" d="M437,752.4c-1.2,0.8-16-20.3-38.3-55.3c-22.3-35-52-84-83.4-139c-31.3-55-58.3-105.6-77-142.7
					c-18.7-37-29.3-60.4-28-61.1c1.4-0.7,14.3,21.4,34.8,57.5c20.4,36.1,48.5,85.9,79.6,140.9c31.4,54.8,59.9,104.5,80.5,140.4
					C425.9,729.1,438.3,751.6,437,752.4z"/>
			</g>
		</g>
		<g>
			<g>
				<defs>
					<path id="SVGID_1_" d="M689.8,486.8c4.8,76.6,70.9,134.8,147.5,130c76.6-4.8,134.8-70.9,130-147.5
						c-4.8-76.6-70.9-285.4-147.5-280.6C743.1,193.6,684.9,410.2,689.8,486.8z"/>
				</defs>
				<clipPath id="SVGID_2_">
					<use xlink:href="#SVGID_1_"  style="overflow:visible;"/>
				</clipPath>
				<path class="st4" d="M647.4,688.4l45.5,15.7c0,0,29-59,36-67c8-9.1,13.8-79.5,17.5-143.1c3.2-55.6,4.7-106.2,4.7-106.2
					s-15.5,3.5-25.6,29.7c-17.3,44.9-17.2,132.5-26.9,177.7C693.2,621.2,656.8,684.7,647.4,688.4z"/>
			</g>
			<g>
				<defs>
					<path id="SVGID_3_" d="M689.8,486.8c4.8,76.6,70.9,134.8,147.5,130c76.6-4.8,134.8-70.9,130-147.5
						c-4.8-76.6-70.9-285.4-147.5-280.6C743.1,193.6,684.9,410.2,689.8,486.8z"/>
				</defs>
				<clipPath id="SVGID_4_">
					<use xlink:href="#SVGID_3_"  style="overflow:visible;"/>
				</clipPath>
				<path class="st5" d="M693,704.1c17.4-20.2,29-59,36-67c8-9.1,46.2-61.1,10.6-142.8c-17.5,51.7-2.9,79.8-8.4,110.3
					C725.8,634.9,694.6,683.9,693,704.1z"/>
			</g>
			<g>
				<defs>
					<path id="SVGID_5_" d="M689.8,486.8c4.8,76.6,70.9,134.8,147.5,130c76.6-4.8,134.8-70.9,130-147.5
						c-4.8-76.6-70.9-285.4-147.5-280.6C743.1,193.6,684.9,410.2,689.8,486.8z"/>
				</defs>
				<clipPath id="SVGID_6_">
					<use xlink:href="#SVGID_5_"  style="overflow:visible;"/>
				</clipPath>
				<path class="st6" d="M930.3,454.1c-0.7-2.7-1.4-5.4-2.1-8c-10.1-35.7-26.6-61.6-52.4-65.9c-3.2,8.8-34.9,23.5-62.6,22.1
					c-3.1-0.2-7.6-4.3-7.6-4.3c-21.9-3.1-32.3-14.8-31.3-16.4c-0.9,0.1-23,6.2-23,6.2c-19.1,83.7-21.4,130.2,1.6,249.6
					c8.4,43.6-4.5,67.3-1.6,70.2c5,5,60.1,6.4,104.5,8.2c5.3,0.2,10.6,0.4,15.7,0.6c32.4,1.1,59.1,1.4,59.1,1.4
					c2.2-2.7,6.2-28,9-63.7C944,597.2,945.1,514,930.3,454.1z"/>
			</g>
			<g>
				<defs>
					<path id="SVGID_7_" d="M689.8,486.8c4.8,76.6,70.9,134.8,147.5,130c76.6-4.8,134.8-70.9,130-147.5
						c-4.8-76.6-70.9-285.4-147.5-280.6C743.1,193.6,684.9,410.2,689.8,486.8z"/>
				</defs>
				<clipPath id="SVGID_8_">
					<use xlink:href="#SVGID_7_"  style="overflow:visible;"/>
				</clipPath>
				<path class="st7" d="M860.5,384.2l-26.4,21.8l-40.1-6.2c0.4-3.9,2.4-20.6,4.1-34.9c1.4-11.7,2.6-21.7,2.6-21.7l48-19.2l1.5-0.6
					c0,0.2,0,0.5,0,0.7c-0.1,1.9-0.2,3.8-0.3,5.6C849,362.6,860.5,384.2,860.5,384.2z"/>
			</g>
			<g>
				<defs>
					<path id="SVGID_9_" d="M689.8,486.8c4.8,76.6,70.9,134.8,147.5,130c76.6-4.8,134.8-70.9,130-147.5
						c-4.8-76.6-70.9-285.4-147.5-280.6C743.1,193.6,684.9,410.2,689.8,486.8z"/>
				</defs>
				<clipPath id="SVGID_10_">
					<use xlink:href="#SVGID_9_"  style="overflow:visible;"/>
				</clipPath>
				<path class="st8" d="M826.9,402.8l-26.4-2.8c0,0-3.3,0.7-2.7,4.9c0.6,4.2,9.3,15.4,12.6,16C813.8,421.4,834.1,410.5,826.9,402.8
					z"/>
			</g>
			<g>
				<defs>
					<path id="SVGID_11_" d="M689.8,486.8c4.8,76.6,70.9,134.8,147.5,130c76.6-4.8,134.8-70.9,130-147.5
						c-4.8-76.6-70.9-285.4-147.5-280.6C743.1,193.6,684.9,410.2,689.8,486.8z"/>
				</defs>
				<clipPath id="SVGID_12_">
					<use xlink:href="#SVGID_11_"  style="overflow:visible;"/>
				</clipPath>
				<g class="st9">
					<path class="st10" d="M797.1,373.2c0,0,4.4,19.6,16,29.1l-17.9,23.2c0,0-21.7-25.6-21-44C774.2,381.6,791.4,373.9,797.1,373.2z
						"/>
					<path class="st10" d="M797.1,373.2c0,0,3.3,18.5,14.9,28l-17.2,21.1c0,0-18.8-21.9-20.7-40.7
						C774.2,381.6,791.4,373.9,797.1,373.2z"/>
					<path class="st10" d="M857.3,373.2c0,0-27.3,25.9-45.2,28l12.2,30.5c0,0,53.2-31.5,53.4-50.4
						C877.7,381.2,863.1,373.3,857.3,373.2z"/>
					<path class="st10" d="M855.3,372.1c0,0-25.4,26.9-43.3,29l9.9,28.1c0,0,53.6-30.2,53.8-49.1
						C875.8,380.2,861.1,372.3,855.3,372.1z"/>
				</g>
			</g>
			<g>
				<defs>
					<path id="SVGID_13_" d="M689.8,486.8c4.8,76.6,70.9,134.8,147.5,130c76.6-4.8,134.8-70.9,130-147.5
						c-4.8-76.6-70.9-285.4-147.5-280.6C743.1,193.6,684.9,410.2,689.8,486.8z"/>
				</defs>
				<clipPath id="SVGID_14_">
					<use xlink:href="#SVGID_13_"  style="overflow:visible;"/>
				</clipPath>
				<path class="st11" d="M939.5,654.1c-2.8,35.6-2,54.2-13,64.7c0,0-22.2,8.4-55.1-2.5c-11.2-5.7-20-13.6-24.3-24.4
					c-21.7-53.8,19.5-98.4,21.6-134c2.1-35.6,34.7-61.6,34.7-61.6S944,597.2,939.5,654.1z"/>
			</g>
			<g>
				<defs>
					<path id="SVGID_15_" d="M689.8,486.8c4.8,76.6,70.9,134.8,147.5,130c76.6-4.8,134.8-70.9,130-147.5
						c-4.8-76.6-70.9-285.4-147.5-280.6C743.1,193.6,684.9,410.2,689.8,486.8z"/>
				</defs>
				<clipPath id="SVGID_16_">
					<use xlink:href="#SVGID_15_"  style="overflow:visible;"/>
				</clipPath>
				<path class="st12" d="M814.6,417.8c0,0,5,47.2,5.9,63c2.5,44.5,3.4,178.1,3.4,178.1s1.3,11.7-6.5,21s-15.9,15.7-15.9,15.7
					s-11.4-10-16-28.8c-3-12.5,4.2-117.4,11.5-187.3c3.7-35.1,9.7-62.6,9.7-62.6S812.8,415.8,814.6,417.8z"/>
			</g>
			<g>
				<defs>
					<path id="SVGID_17_" d="M689.8,486.8c4.8,76.6,70.9,134.8,147.5,130c76.6-4.8,134.8-70.9,130-147.5
						c-4.8-76.6-70.9-285.4-147.5-280.6C743.1,193.6,684.9,410.2,689.8,486.8z"/>
				</defs>
				<clipPath id="SVGID_18_">
					<use xlink:href="#SVGID_17_"  style="overflow:visible;"/>
				</clipPath>
				<path class="st13" d="M839.8,661.2c0,0-21.3,5.6-28.3,9.4c-7,3.8-21,22.2-17.8,25.1c15.8,14.5,18.2-1.6,37.6-6.8
					c3.5-1,19.7-19,19.7-19L839.8,661.2z"/>
			</g>
			<g>
				<defs>
					<path id="SVGID_19_" d="M689.8,486.8c4.8,76.6,70.9,134.8,147.5,130c76.6-4.8,134.8-70.9,130-147.5
						c-4.8-76.6-70.9-285.4-147.5-280.6C743.1,193.6,684.9,410.2,689.8,486.8z"/>
				</defs>
				<clipPath id="SVGID_20_">
					<use xlink:href="#SVGID_19_"  style="overflow:visible;"/>
				</clipPath>
				<path class="st14" d="M875.8,380.2c0,0,36.3,5.9,54.4,24.8c18.2,18.9,48.9,173.1,41.2,194.8c-7.7,21.6-69.1,65.6-113.1,83.8
					c0,0-21.6-9.8-23-26.5c0,0,74.7-62.8,78.2-79.6C916.9,560.7,875.8,380.2,875.8,380.2z"/>
			</g>
			<g>
				<defs>
					<path id="SVGID_21_" d="M689.8,486.8c4.8,76.6,70.9,134.8,147.5,130c76.6-4.8,134.8-70.9,130-147.5
						c-4.8-76.6-70.9-285.4-147.5-280.6C743.1,193.6,684.9,410.2,689.8,486.8z"/>
				</defs>
				<clipPath id="SVGID_22_">
					<use xlink:href="#SVGID_21_"  style="overflow:visible;"/>
				</clipPath>
				<path class="st15" d="M850.1,324.2c-0.1,1.9-0.2,3.8-0.3,5.6c-9.3,10-31.1,31.3-51.7,35.1c1.4-11.7,2.6-21.7,2.6-21.7l48-19.2
					L850.1,324.2z"/>
			</g>
			<g>
				<defs>
					<path id="SVGID_23_" d="M689.8,486.8c4.8,76.6,70.9,134.8,147.5,130c76.6-4.8,134.8-70.9,130-147.5
						c-4.8-76.6-70.9-285.4-147.5-280.6C743.1,193.6,684.9,410.2,689.8,486.8z"/>
				</defs>
				<clipPath id="SVGID_24_">
					<use xlink:href="#SVGID_23_"  style="overflow:visible;"/>
				</clipPath>
				<path class="st16" d="M795.8,347.1c0,0,57.5,2.6,58.6-33.2c1.1-35.8,9.2-59.6-27.4-62.8c-36.7-3.2-44.2,10.3-47.5,22.1
					C776.2,285.1,780.8,345.5,795.8,347.1z"/>
			</g>
			<g>
				<defs>
					<path id="SVGID_25_" d="M689.8,486.8c4.8,76.6,70.9,134.8,147.5,130c76.6-4.8,134.8-70.9,130-147.5
						c-4.8-76.6-70.9-285.4-147.5-280.6C743.1,193.6,684.9,410.2,689.8,486.8z"/>
				</defs>
				<clipPath id="SVGID_26_">
					<use xlink:href="#SVGID_25_"  style="overflow:visible;"/>
				</clipPath>
				<path class="st17" d="M854.3,313.9c0,0-4.3-47.8-55.5-46.1c-51.2,1.7-29.1-46.7,15-53.9c0,0-4.6,17.1,23.1,19.8
					C895,239.4,859.5,306.3,854.3,313.9z"/>
			</g>
			<g>
				<defs>
					<path id="SVGID_27_" d="M689.8,486.8c4.8,76.6,70.9,134.8,147.5,130c76.6-4.8,134.8-70.9,130-147.5
						c-4.8-76.6-70.9-285.4-147.5-280.6C743.1,193.6,684.9,410.2,689.8,486.8z"/>
				</defs>
				<clipPath id="SVGID_28_">
					<use xlink:href="#SVGID_27_"  style="overflow:visible;"/>
				</clipPath>
				<path class="st18" d="M854,314c0,0,7-16,4-22s-8.1,5.9-8.1,5.9S845,310,847,313S854,314,854,314z"/>
			</g>
		</g>
		<g>
			<g>
				<defs>
					<path id="SVGID_29_" d="M131,358c4.8,76.6,73.5,137,150.1,132.2c10.8-0.7,25.1-5.6,40.5-11.7c87.2-34.9,245-73.9,240.8-139.8
						C559.5,293.9,595,120,517.5,55c-55-46.1-222.1,5.1-253.9,7.1C187,67,126.2,281.4,131,358z"/>
				</defs>
				<clipPath id="SVGID_30_">
					<use xlink:href="#SVGID_29_"  style="overflow:visible;"/>
				</clipPath>
				<g class="st19">
					<path class="st20" d="M143,391c8.5,31.2,28.5,57.4,37,71c6.4,10.1,5.3,36,15.3,43.9c4.1,3.2,4.9-12.8,10.7-14.9
						c10.4-3.7-27.1-93.5-25-111c3.6-30.7,50.2-59.1,52-72c1.9-14.1,3.3-22.1-8.1-28.8c-13.4-7.9-22.4-11-35.9-3.2
						c-12.1,7-29.7,36.2-36,48C153,324,134,358,143,391z"/>
					<path class="st21" d="M237.3,502.4c2.9-1.9,6.1-3.5,9-5.3c1.7-1.1,2.9-2.3,3.8-3.7c3.8,1.3,8.1,3.2,12.2,5.8
						c11.8,7.4,17,17.9,10.7,15.5c-6.3-2.4-13.4-9.8-19.1-9.4s9,27.7,13,29.6c4,1.9,6.4,9-5.1,5.5c-11.5-3.5-29.1-27.5-30.2-36.1
						c0-0.2,0-0.3,0-0.5C233.7,503.8,235.7,503.4,237.3,502.4z"/>
					<g>
						<g>
							<path class="st22" d="M223.4,902c-5.8-5.3-8.5-9.2-8.5-9.2c-4.5-1.5-27.9,1.5-30.4,3.8c-2.5,2.2,4.1,11.2,4.1,11.2
								s7.4-4.6,4.8,4.2s19.7,49.5,24.1,56.1c4.4,6.5-4.4-24.6-4.6-40C212.5,912.6,223.4,902,223.4,902z"/>
						</g>
					</g>
					<g>
						<g>
							<g>
								<path class="st23" d="M419.3,738.6c14.2-42.5-59.5-184.6-59.5-184.6s-96.7-164.1-118.6-98.9s73.2,231.6,82.5,244
									c9.3,12.4,6.2,23.8,6.2,23.8c-54.4,34.8-102.6,158.8-102.6,158.8c11.1,11,13.9,14,13.9,14
									C266.4,857.6,405.1,781.1,419.3,738.6z"/>
								<path class="st24" d="M241.4,897.2l-0.9-0.9c0,0-2.9-3.2-13.9-14l-0.5-0.5l0.2-0.6c0.5-1.2,48.7-124.2,102.6-159.1
									c0.4-2,1.9-12-6.1-22.6c-7.5-9.9-104.9-178.9-82.7-244.9c3.4-10,8.7-15.3,15.9-15.9c34.9-2.8,101.7,109.9,104.5,114.6
									c3,5.9,73.8,143,59.6,185.4l0,0c-8.1,24.1-54.7,58.3-99.8,91.3c-34.7,25.4-67.4,49.4-78.4,66L241.4,897.2z M290.8,461.5
									c-12.7-12.8-25-21.5-34.5-20.7c-6.4,0.5-11.1,5.4-14.2,14.6c-22,65.2,74.9,233.2,82.4,243c9.5,12.6,6.5,24.1,6.4,24.6
									l-0.1,0.4l-0.3,0.2c-51.6,33-98.2,148.4-102,157.8c7.6,7.5,11.1,11.1,12.6,12.7c11.7-16.8,44-40.4,78.2-65.4
									c44.9-32.9,91.2-66.8,99.1-90.4l0,0c13.9-41.6-58.7-182.4-59.4-183.8C358.5,553.6,323.2,494.1,290.8,461.5z"/>
							</g>
						</g>
					</g>
					<g>
						<g>
							<g>
								<path class="st23" d="M224.3,482.5c-53.9,58-9.4,162.3,0.6,181.9c15.3,30.1,6.5,58.4,6.5,58.4
									c-39.8,114.9,9.9,214.4,9.9,214.4c6.4,9.2,12.4,3.7,12.4,3.7c6.1-63.3,48.8-198.3,71.2-281c20.4-75.6-1.6-162.6-4.7-176.2
									L224.3,482.5z"/>
								<path class="st24" d="M319.2,483.6c3.1,12.1,24.6,101.9,4.7,176c-5.7,21-12.6,45.2-20,70.9
									c-21.8,76.1-46.5,162.4-51.2,209.9c-0.6,0.4-2.1,1.4-4.1,1.2c-2.3-0.3-4.5-1.9-6.5-4.8c-0.5-1-49.1-100.5-9.8-213.7
									c0.1-0.3,8.7-29-6.6-59.1c-9.8-19.4-52.1-127.2-1.3-181.6l-2.3-0.1c-50.4,65.1-8,163,1.9,182.5c14.9,29.4,6.5,57.4,6.4,57.7
									c-39.5,114,9.4,214.1,10,215.2c0.7,1,1.4,1.8,2.1,2.6c1.8,1.8,3.8,2.9,5.8,3.1c3.4,0.4,5.8-1.8,5.8-1.8l0.3-0.2l0-0.3
									c4.5-47.2,29.3-133.7,51.2-209.9c7.4-25.7,14.3-50,20-71c20.1-74.5-1.2-161.6-4.7-176.4L319.2,483.6L319.2,483.6z"/>
							</g>
						</g>
					</g>
					<g>
						<g>
							<path class="st22" d="M270.4,956.1c-13.9-7-18.2-21.9-18.2-21.9c-7.6,2.8-12.4,3.5-12.4,3.5c-3.6,3.5-12.2,26.3-11.4,29.6
								c0.8,3.3,12,1.5,12,1.5s-0.6-8.9,6.1-2.4c6.7,6.5,53.9,5,61.9,4C316.4,969.5,284.3,963.1,270.4,956.1z"/>
						</g>
					</g>
					<g>
						<g>
							<path class="st20" d="M310.8,268.2c-20.6-4-41.6-6.1-62.6-5.1c-2.4,0.1-4.7,0.3-7.1,0.5c-19.9,1.7-46.8,4.7-60.9,19.7
								c-10.9,11.5-17.4,28.4-15.3,44.3c2.1,16,19.4,23.5,24.7,39c12.5,36.9,22.1,121.1,24.1,126.6c0,0,55.7,43,99.9,1.6
								c4.3-4.1,12.9-32.9,15-39.2c3.5-10.7,7-21.4,10.3-32.1c6.9-22.1,13.1-44.5,17.1-67.4c3.2-18.7,10.2-50.4,3.1-68.7
								C353.4,272,325.2,271,310.8,268.2z"/>
						</g>
					</g>
					<path class="st20" d="M348.6,281.1c0,0-35.8,14-5.6,90.9c30.2,76.9,60.6,77,60.6,77s2.9-10.9-12.6-88.2
						C375.6,283.6,348.6,281.1,348.6,281.1z"/>
					<g>
						<g>
							<path class="st20" d="M437.3,244.9c0,0-0.1,0.2-0.1,0.2c-14,33.3-20.9,66.6-35.2,99.8c-8.3,19.4-14.2,37-21,57
								c-7.7,22.5-2,43.4,19.5,46.5c17.3,2.5,22.9-12.2,29.5-27.5c21.8-50.7,21.6-172.8,21.6-172.8
								C444.5,250.1,437.3,244.9,437.3,244.9z"/>
						</g>
					</g>
					<path class="st25" d="M453.5,270.5l12.1-4.3c3.3-1.2,5.1-4.8,3.9-8.2l-22.9-64.7c-1.2-3.3-4.9-5.1-8.2-3.9l-12.1,4.3
						c-3.3,1.2-5.1,4.8-3.9,8.2l22.9,64.7C446.4,269.9,450.1,271.7,453.5,270.5z"/>
					<g>
						<g>
							<path class="st26" d="M457.7,218c-10.4-6.4-15.1,17.9-6.7,24.1C468,254.5,470,225.5,457.7,218z"/>
						</g>
					</g>
					<g>
						<g>
							<path class="st26" d="M435,237.5c-0.6-2.9-2.1-7.8,0.2-10.2c1.3-1.4,3.1-2.2,4.1-3.8c1.1-1.6,0.8-4.2-1-4.7
								c-0.6-0.1-1.3,0-1.9,0.2c-11.9,3.9-8.7,15.4-4,24.2c0.6,1.1,1.3,2.3,2.4,3c0.8,0.5,1.6,0.7,2.5,0.4
								C437.4,243.7,435.5,240.4,435,237.5z"/>
						</g>
					</g>
					<polygon class="st10" points="484.2,189 563.1,203.8 513.8,56.3 460,120.4 					"/>
					
						<rect x="410.6" y="128.8" transform="matrix(0.9428 -0.3333 0.3333 0.9428 -29.7834 156.863)" class="st25" width="63.3" height="72.8"/>
					
						<rect x="403.1" y="141" transform="matrix(0.9428 -0.3334 0.3334 0.9428 -35.8092 146.149)" class="st27" width="9.6" height="72.8"/>
					
						<rect x="390.4" y="159.7" transform="matrix(0.9428 -0.3334 0.3334 0.9428 -37.71 142.7524)" class="st10" width="13.4" height="43.2"/>
					<g>
						<path class="st26" d="M280.9,177.3c-10.2-8.5-23.6-4.9-34.6,0c-13.4,6-21.2,19.5-18.8,34.1c0,0-7.4-4.8-7,12.3
							c0.4,17.1,13.9,20,18.6,18.6c0,0,4.7,14.6,13.9,20.2l5.8,19.5c23,7.1,31.2-9.3,31.2-9.3l-4.2-14c1.7-0.9,3.3-1.8,4.7-2.7
							c8.2-5.4,8-20.2,8.2-28.9c0-1.2,0-2.5,0-3.7c-0.2-11.2-2.9-22.5-7.8-32.6C288.3,185.8,285.2,180.9,280.9,177.3z"/>
					</g>
					<g>
						<path class="st27" d="M304.5,207.6c0,0-4.8,8.7-7,2.3c-3.9-11.4-7.5-11.3-16.3-12.9c-8.8-1.6-12.2-1.2-18.1-5.2
							c-5.9-4-4.5,10.9-9.6,14c-3.9,2.4-11.9,3.8-18.6,6.8c0.5,6.1,0.9,17.2-3,12.1c-3.3-4.3-6.5-4.9-8.5-4.8
							c-0.6,0.3-1.2,0.4-1.8,0.4c0,0,0,0,0,0s-1.3,22.2,17.4,22c0,0,2.7,7,4.4,9.7c0,0-10.1,4.6-22-18.3
							c-11.1-21.5-14.6-43.1-7.7-53.4c2.6-8.1,7.2-13.9,11.4-15.5c0,0,40.9-28.9,65.9-6.9C322,185.3,304.5,207.6,304.5,207.6z"/>
					</g>
				</g>
			</g>
		</g>
		<g>
			<g>
				<defs>
					<path id="SVGID_31_" d="M231.7,716.3c0.8,12.6-45.7,281.2,18.4,283.7c55.8,2.2,106.7-58.3,122.5-68.4c2.3-1.5,2-4.1,3.1-5.1
						c0.1-0.1,0.1,0.2,0.2,0.3c28.4,46.6,81,76.3,139.2,72.6c83.7-5.3,147.2-77.4,141.9-161c-5.3-83.6-77.4-311.6-161-306.3
						C412.3,537.4,226.4,632.7,231.7,716.3z"/>
				</defs>
				<clipPath id="SVGID_32_">
					<use xlink:href="#SVGID_31_"  style="overflow:visible;"/>
				</clipPath>
				<g class="st28">
					<path class="st25" d="M598.6,761.5c-11.6-22.7,6.7-76.1-20.8-114.2c-24.9-34.5-57.9-29.5-63.9-28.3c-6-1.2-39-6.2-63.9,28.3
						c-27.4,38.1-9.1,91.5-20.8,114.2c-11.6,22.7,21.6,24.5,35.8,27.2s40.8,26.3,46.6-13.6c1-7.1,1.8-16.6,2.4-27.5
						c0.6,10.8,1.3,20.4,2.4,27.5c5.8,39.9,32.4,16.3,46.6,13.6S610.2,784.1,598.6,761.5z"/>
					<rect x="496.8" y="763.7" class="st26" width="33.6" height="76.7"/>
					<path class="st29" d="M496.8,771.7v23.9c0,0,23-15,33.6-11.9V770L496.8,771.7z"/>
					<circle class="st30" cx="567" cy="707.7" r="11.7"/>
					<circle class="st30" cx="464.2" cy="715.7" r="11.7"/>
					<path class="st26" d="M567,714c0,42.7-23.5,67-53,67c-29.5,0-54-40.3-54-83s24-71.6,53.5-71.6C543.1,626.4,567,671.3,567,714z"
						/>
					<path class="st25" d="M536.5,673c0,0-50.1,43-86.7,37.5s25.3-90.8,52.5-87.5c27.2,3.3,53.8,6.5,67.9,51.6
						C570.2,674.6,561.5,644.7,536.5,673z"/>
					<path class="st25" d="M542.6,666.9c0,0,11.1,26.4,27.2,30.4s-1.8-36.8-11.1-47.5C549.5,639.1,542.6,666.9,542.6,666.9z"/>
					<path class="st26" d="M302.8,752.5c0,0-19.1-58.3-13-60.3s10.8,20.3,10.8,20.3s-14.8-30.8-9-31s14,28.8,14,28.8
						s-15.4-38.1-11.3-40.4c1.1-0.6,2.8,1.8,4.8,5.6c5.5,10.6,12.9,32.2,12.9,32.2s-12.5-33.5-10.5-34.6c2-1.2,21.8,29.1,23,43.3
						s6.7-16.3,11.9-16.9c5.2-0.6-3.5,35.5-3.5,35.5l-3.9,23l-15.6,25h-10.1L302.8,752.5z"/>
					<path class="st27" d="M415.7,840.4c0,0,39.2-31.3,81.1-30.3c0,0,6.3,15.2,16.8,15.1c10.5,0,16.8-15.2,16.8-15.2
						s43.7,1.6,69.8,19.8c26,18.2,126.6,158.4,126.6,158.4h-80.7l-57.8-95.3c0,0,18.8,39.4,14.1,72.4c-1.6,11.2-8.2,20.4-8.2,20.4
						l-79.6,46.9L431.8,990c0,0-26.6-53.2-4.2-90c0,0-123.4,67.9-170.9,49.1C209.4,930.4,299,751.8,299,751.8l32.8,6.8
						c0,0-52.6,128.7-35.9,134.4C312.5,898.7,415.7,840.4,415.7,840.4z"/>
				</g>
			</g>
		</g>
		<g>
			<path class="st25" d="M724.5,223H591c-4.5,0-8.2,3.7-8.2,8.2v70.3c0,4.5,3.7,8.2,8.2,8.2h89.2l27.1,17.4v-17.4h17.3
				c4.5,0,8.2-3.7,8.2-8.2v-70.3C732.8,226.7,729.1,223,724.5,223z"/>
			<line class="st31" x1="606.2" y1="248.5" x2="710.3" y2="248.5"/>
			<line class="st31" x1="606.2" y1="264.9" x2="710.3" y2="264.9"/>
			<line class="st31" x1="606.2" y1="281.2" x2="710.3" y2="281.2"/>
		</g>
		<g>
			<g>
				<path class="st20" d="M685.5,679.3h133.5c4.5,0,8.2,3.7,8.2,8.2v70.3c0,4.5-3.7,8.2-8.2,8.2h-89.2l-27.1,17.3v-17.3h-17.3
					c-4.5,0-8.2-3.7-8.2-8.2v-70.3C677.3,683,681,679.3,685.5,679.3z"/>
			</g>
			<g>
				<path class="st23" d="M699.8,706.8h104.1c1.1,0,2-0.9,2-2s-0.9-2-2-2H699.8c-1.1,0-2,0.9-2,2S698.7,706.8,699.8,706.8z"/>
			</g>
			<g>
				<path class="st23" d="M699.8,723.2h104.1c1.1,0,2-0.9,2-2s-0.9-2-2-2H699.8c-1.1,0-2,0.9-2,2S698.7,723.2,699.8,723.2z"/>
			</g>
			<g>
				<path class="st23" d="M699.8,739.5h104.1c1.1,0,2-0.9,2-2s-0.9-2-2-2H699.8c-1.1,0-2,0.9-2,2S698.7,739.5,699.8,739.5z"/>
			</g>
		</g>
	</g>
</g>
<g id="Capa_2">
	<g id="BACKGROUND">
	</g>
	<g id="OBJECTS">
		<path class="st32" d="M138,256.9h96.7c8.1,0,14.7,6.6,14.7,14.7v58.6v20.4c0,5.4-6.6,8-10.3,4l-12.7-13.7
			c-6.3-6.9-15.2-10.7-24.6-10.7H138c-8.1,0-14.7-6.6-14.7-14.7v-43.9C123.3,263.5,129.9,256.9,138,256.9z"/>
		<g>
			<path class="st23" d="M216.2,278.7c0.9,0,1.5-0.7,1.5-1.5s-0.7-1.5-1.5-1.5H158c-0.9,0-1.5,0.7-1.5,1.5s0.7,1.5,1.5,1.5H216.2z"
				/>
			<path class="st23" d="M216.2,296c0.9,0,1.5-0.7,1.5-1.5c0-0.9-0.7-1.5-1.5-1.5H158c-0.9,0-1.5,0.7-1.5,1.5c0,0.9,0.7,1.5,1.5,1.5
				H216.2z"/>
			<path class="st23" d="M216.2,312c0.9,0,1.5-0.7,1.5-1.5c0-0.9-0.7-1.5-1.5-1.5h-26.9c-0.9,0-1.5,0.7-1.5,1.5
				c0,0.9,0.7,1.5,1.5,1.5H216.2z"/>
		</g>
		<path class="st32" d="M978.6,235h-125c-10.5,0-19,8.5-19,19v75.8v26.4c0,7,8.6,10.3,13.3,5.2l16.4-17.7
			c8.2-8.9,19.7-13.9,31.8-13.9h82.5c10.5,0,19-8.5,19-19V254C997.5,243.5,989,235,978.6,235z"/>
		<g>
			<path class="st23" d="M877.4,263.2c-1.1,0-2-0.9-2-2s0.9-2,2-2h75.3c1.1,0,2,0.9,2,2s-0.9,2-2,2H877.4z"/>
			<path class="st23" d="M877.4,285.6c-1.1,0-2-0.9-2-2c0-1.1,0.9-2,2-2h75.3c1.1,0,2,0.9,2,2c0,1.1-0.9,2-2,2H877.4z"/>
			<path class="st23" d="M877.4,306.3c-1.1,0-2-0.9-2-2s0.9-2,2-2h34.7c1.1,0,2,0.9,2,2s-0.9,2-2,2H877.4z"/>
		</g>
		<path class="st33" d="M1054.7,529v-14.5c0-1.6-1.1-3-2.7-3.3l-12-2.5c-0.7-2.3-1.7-4.6-2.8-6.8l6.7-10.2c0.9-1.3,0.7-3.1-0.4-4.3
			l-10.2-10.2c-1.1-1.1-2.9-1.3-4.3-0.4l-10.2,6.7c-2.2-1.1-4.4-2.1-6.8-2.8l-2.5-12c-0.3-1.6-1.7-2.7-3.3-2.7h-14.5
			c-1.6,0-3,1.1-3.3,2.7l-2.5,12c-2.3,0.7-4.6,1.7-6.8,2.8l-10.2-6.7c-1.3-0.9-3.1-0.7-4.3,0.4l-10.2,10.2c-1.1,1.1-1.3,2.9-0.4,4.3
			l6.7,10.2c-1.1,2.2-2.1,4.4-2.8,6.8l-12,2.5c-1.6,0.3-2.7,1.7-2.7,3.3V529c0,1.6,1.1,3,2.7,3.3l12,2.5c0.7,2.3,1.7,4.6,2.8,6.8
			l-6.7,10.2c-0.9,1.3-0.7,3.1,0.4,4.3l10.2,10.2c1.1,1.1,2.9,1.3,4.3,0.4l10.2-6.7c2.2,1.1,4.4,2.1,6.8,2.8l2.5,12
			c0.3,1.6,1.7,2.7,3.3,2.7h14.5c1.6,0,3-1.1,3.3-2.7l2.5-12c2.3-0.7,4.6-1.7,6.8-2.8l10.2,6.7c1.3,0.9,3.1,0.7,4.3-0.4l10.2-10.2
			c1.1-1.1,1.3-2.9,0.4-4.3l-6.7-10.2c1.1-2.2,2.1-4.4,2.8-6.8l12-2.5C1053.5,532,1054.7,530.6,1054.7,529z M1000.6,542.4
			c-12.7,1-23.3-9.5-22.3-22.2c0.8-10,8.9-18.1,18.9-18.9c12.7-1,23.3,9.5,22.3,22.2C1018.7,533.5,1010.6,541.6,1000.6,542.4z"/>
		<path class="st33" d="M803.1,155v-15.1c0-1.7-1.2-3.1-2.8-3.5l-12.5-2.6c-0.8-2.5-1.8-4.8-2.9-7.1l7-10.7c0.9-1.4,0.7-3.3-0.5-4.5
			l-10.7-10.7c-1.2-1.2-3.1-1.4-4.5-0.5l-10.7,7c-2.3-1.2-4.6-2.2-7.1-2.9L755.8,92c-0.3-1.6-1.8-2.8-3.5-2.8h-15.2
			c-1.7,0-3.1,1.2-3.5,2.8l-2.6,12.5c-2.5,0.8-4.8,1.8-7.1,2.9l-10.7-7c-1.4-0.9-3.3-0.7-4.5,0.5l-10.7,10.7
			c-1.2,1.2-1.4,3.1-0.5,4.5l7,10.7c-1.2,2.3-2.2,4.6-2.9,7.1l-12.5,2.6c-1.6,0.3-2.8,1.8-2.8,3.5V155c0,1.7,1.2,3.1,2.8,3.5
			l12.5,2.6c0.8,2.5,1.8,4.8,2.9,7.1l-7,10.7c-0.9,1.4-0.7,3.3,0.5,4.5l10.7,10.7c1.2,1.2,3.1,1.4,4.5,0.5l10.7-7
			c2.3,1.2,4.6,2.2,7.1,2.9l2.6,12.5c0.3,1.6,1.8,2.8,3.5,2.8h15.2c1.7,0,3.1-1.2,3.5-2.8l2.6-12.5c2.5-0.8,4.8-1.8,7.1-2.9l10.7,7
			c1.4,0.9,3.3,0.7,4.5-0.5l10.7-10.7c1.2-1.2,1.4-3.1,0.5-4.5l-7-10.7c1.2-2.3,2.2-4.6,2.9-7.1l12.5-2.6
			C801.9,158.2,803.1,156.7,803.1,155z M746.5,169c-13.3,1-24.3-10-23.3-23.3c0.8-10.5,9.3-18.9,19.8-19.8c13.3-1,24.3,10,23.3,23.3
			C765.5,159.7,757,168.2,746.5,169z"/>
		<path class="st33" d="M197.1,674.5v-20.9c0-2.3-1.6-4.3-3.9-4.8l-17.3-3.6c-1.1-3.4-2.4-6.6-4.1-9.7l9.7-14.7
			c1.3-1.9,1-4.5-0.6-6.1l-14.8-14.8c-1.6-1.6-4.2-1.9-6.1-0.6l-14.8,9.7c-3.1-1.6-6.4-3-9.8-4.1l-3.6-17.3
			c-0.5-2.3-2.5-3.9-4.8-3.9h-20.9c-2.3,0-4.3,1.6-4.8,3.9l-3.6,17.3c-3.4,1.1-6.6,2.4-9.8,4.1l-14.8-9.7c-1.9-1.3-4.5-1-6.1,0.6
			l-14.8,14.8c-1.6,1.6-1.9,4.2-0.6,6.1l9.7,14.7c-1.6,3.1-3,6.4-4.1,9.7l-17.3,3.6c-2.3,0.5-3.9,2.5-3.9,4.8v20.9
			c0,2.3,1.6,4.3,3.9,4.8l17.3,3.6c1.1,3.4,2.4,6.6,4.1,9.7l-9.7,14.7c-1.3,1.9-1,4.5,0.6,6.1l14.8,14.8c1.6,1.6,4.2,1.9,6.1,0.6
			l14.8-9.7c3.1,1.6,6.4,3,9.8,4.1l3.6,17.3c0.5,2.3,2.5,3.9,4.8,3.9h20.9c2.3,0,4.3-1.6,4.8-3.9l3.6-17.3c3.4-1.1,6.6-2.4,9.8-4.1
			l14.8,9.7c1.9,1.3,4.5,1,6.1-0.6l14.8-14.8c1.6-1.6,1.9-4.2,0.6-6.1l-9.7-14.7c1.6-3.1,3-6.4,4.1-9.7l17.3-3.6
			C195.5,678.8,197.1,676.8,197.1,674.5z M119.2,693.7c-18.4,1.4-33.5-13.7-32.1-32.1c1.1-14.4,12.8-26.1,27.3-27.2
			c18.4-1.4,33.5,13.7,32.1,32.1C145.3,680.9,133.6,692.6,119.2,693.7z"/>
		<path class="st34" d="M549.3,172.2v84.5c-5.7,3.9-11.8,5.1-17.1,5.1c-12.6,0-24.2-7.1-28.5-10.1l-0.3-0.2
			c-6.5-5-14.3-7.6-22.5-7.6c-20.4,0-36.9,16.6-36.9,36.9s16.6,36.9,36.9,36.9c7.7,0,15.1-2.4,21.4-6.8l7.4-5.2l0.2,0.4
			c5.7-3.1,13.7-6.3,22.3-6.3c5.3,0,11.3,1.2,17.1,5.1v102.8h102.8c1.5-2.2,2.7-4.5,3.5-7c4.2-12.1-0.5-24.5-4.7-32.3l0.4-0.2
			l-5.2-7.4c-4.5-6.3-6.8-13.7-6.8-21.4c0-20.3,16.6-36.9,36.9-36.9c20.4,0,36.9,16.6,36.9,36.9c0,8.2-2.6,16-7.6,22.4l-0.2,0.3
			c-4.4,6.3-14.1,22.8-8.5,38.7c0.9,2.4,2,4.7,3.5,6.8h80.6c0-1.3,0.1-2.6,0.1-3.9C781,275.9,677.3,172.2,549.3,172.2z"/>
		<path class="st20" d="M481,243.9c8.2,0,16,2.6,22.5,7.6l0.3,0.2c4.4,3.1,15.9,10.1,28.5,10.1c5.3,0,11.3-1.2,17.1-5.1v-84.5
			c-127.9,0-231.7,103.6-231.7,231.5c0,1.3,0,2.6,0.1,3.9h80.6c1.5,2.1,2.6,4.4,3.5,6.8c5.6,16-4,32.4-8.5,38.7l-0.2,0.3
			c-5,6.5-7.6,14.3-7.6,22.4c0,20.3,16.6,36.9,36.9,36.9c20.4,0,36.9-16.6,36.9-36.9c0-7.7-2.4-15.1-6.8-21.4l-5-7l0.4-0.2
			c-4.3-7.8-9.1-20.5-4.9-32.7c0.9-2.5,2-4.8,3.5-7h102.8V304.9c-5.7-3.9-11.8-5.1-17.1-5.1c-8.6,0-16.6,3.2-22.3,6.3l-0.2-0.4
			l-7.4,5.2c-6.3,4.5-13.7,6.8-21.4,6.8c-20.4,0-36.9-16.6-36.9-36.9C444,260.4,460.6,243.9,481,243.9z"/>
		<path class="st20" d="M700.3,407.6L700.3,407.6c-1.5-2.1-2.6-4.4-3.5-6.8c-5.6-16,4-32.4,8.5-38.7l0.2-0.3
			c5-6.5,7.6-14.3,7.6-22.4c0-20.3-16.6-36.9-36.9-36.9c-20.4,0-36.9,16.6-36.9,36.9c0,7.7,2.4,15.1,6.8,21.4l5.2,7.4l-0.4,0.2
			c4.2,7.9,8.8,20.3,4.7,32.3c-0.9,2.5-2,4.8-3.5,7l0,0H549.3v102.7c2.9,2,5.8,3.2,8.7,4c2.9,0.8,5.7,1.1,8.4,1.1
			c8.7,0,16.9-3.3,22.7-6.5l0.2,0.4l7.1-5c0.4-0.3,0.8-0.5,1.2-0.8c0.8-0.5,1.6-1,2.4-1.5c3.5-1.9,7.3-3.3,11.2-4
			c0.3-0.1,0.6-0.1,0.9-0.1c0.4-0.1,0.9-0.1,1.3-0.2c0.8-0.1,1.7-0.2,2.5-0.2c0.6,0,1.2-0.1,1.8-0.1h0.1c0.6,0,1.2,0,1.8,0.1
			c0.4,0,0.9,0,1.4,0.1c0.1,0,0.3,0,0.4,0.1c10.6,1,20.1,6.7,26.2,15.1c0.4,0.5,0.8,1.1,1.1,1.7c0.3,0.4,0.6,0.9,0.9,1.4
			c0,0,0,0,0,0c0.2,0.3,0.4,0.7,0.6,1c0.2,0.3,0.3,0.6,0.4,0.8c0.4,0.9,0.9,1.7,1.2,2.6c0.2,0.4,0.4,0.9,0.5,1.4
			c0.2,0.7,0.5,1.4,0.7,2.1c0,0,0,0,0,0c0.2,0.7,0.4,1.4,0.6,2.1c0.2,0.7,0.3,1.4,0.5,2.1c0.1,0.7,0.2,1.5,0.3,2.2
			c0,0.4,0.1,0.7,0.1,1.1c0.1,0.4,0.1,0.9,0.1,1.3c0,0.6,0,1.2,0,1.8c0,0.6,0,1.3-0.1,1.9c0,0.5-0.1,0.9-0.1,1.4
			c0,0.5-0.1,1.1-0.2,1.6c-0.1,0.5-0.2,1.1-0.2,1.6c-0.1,0.5-0.2,1-0.3,1.6c0,0,0,0,0,0c-3.7,16.4-18.2,28.6-35.7,28.8
			c-0.1,0-0.2,0-0.4,0c-6.7,0-13.1-1.7-18.7-5.1c-0.9-0.5-1.7-1-2.5-1.6c-0.4-0.3-0.8-0.6-1.2-0.9l-0.3-0.2
			c-4.4-3-15.9-10.1-28.6-10.1c-5.3,0-11.3,1.2-17.1,5.1v168h95.7c0-26.7,7.1-53.7,16.2-77.3c12.3-31.9,31.6-60.7,55.3-85.4
			c39.1-40.7,63.4-95.6,64.4-156.2L700.3,407.6L700.3,407.6z"/>
		<path class="st34" d="M617.6,497.5c-7.7,0-15.1,2.4-21.3,6.8l-7.1,5L589,509c-5.7,3.1-13.9,6.5-22.6,6.5c0,0,0,0,0,0
			c-5.3,0-11.3-1.2-17.1-5.1V407.6H446.6c-1.5,2.2-2.7,4.5-3.5,7c-4.2,12.2,0.6,24.9,4.9,32.7l-0.4,0.2l5,7
			c4.5,6.3,6.8,13.6,6.8,21.3c0,19.5-15.7,36-35.1,36.9c-21.2,1-38.7-15.9-38.7-36.9c0-8.2,2.6-16,7.6-22.4l0.2-0.3
			c4.4-6.3,14.1-22.8,8.5-38.7c-0.9-2.4-2-4.7-3.5-6.8h-80.6c1,60.6,25.3,115.5,64.4,156.3c23.7,24.7,43,53.4,55.3,85.4
			c9.1,23.6,16.2,50.5,16.2,77.2h95.7v-91.3v-76.7c5.7-3.9,11.8-5.1,17.1-5.1c12.6,0,24.2,7.1,28.5,10.1l0.3,0.2
			c6.5,5,14.3,7.6,22.5,7.6c21,0,37.9-17.5,36.9-38.7C653.6,513.2,637.1,497.5,617.6,497.5z"/>
		<path class="st35" d="M653.6,525.9c-0.3-1.4-0.8-2.9-1.3-4.2c1,2.7,1.7,5.6,2.1,8.5C654.2,528.8,653.9,527.3,653.6,525.9z"/>
		<g>
			<path class="st36" d="M653.4,726.1H443.5c-9.2,0-16.7,7.5-16.7,16.7l0,0c0,9.2,7.5,16.7,16.7,16.7h209.8
				c9.2,0,16.7-7.5,16.7-16.7l0,0C670.1,733.6,662.6,726.1,653.4,726.1z"/>
			<path class="st37" d="M653.4,745.2H443.6c-6.7,0-12.4-3.9-15-9.6c-1,2.2-1.7,4.6-1.7,7.1c0,9.2,7.5,16.7,16.7,16.7h209.8
				c9.2,0,16.7-7.5,16.7-16.7c0-2.6-0.6-5-1.7-7.1C665.7,741.3,660,745.2,653.4,745.2z"/>
		</g>
		<g>
			<path class="st36" d="M653.4,759.2H443.5c-9.2,0-16.7,7.5-16.7,16.7l0,0c0,9.2,7.5,16.7,16.7,16.7h209.8
				c9.2,0,16.7-7.5,16.7-16.7l0,0C670.1,766.6,662.6,759.2,653.4,759.2z"/>
			<path class="st37" d="M653.4,778.3H443.6c-6.7,0-12.4-3.9-15-9.6c-1,2.2-1.7,4.6-1.7,7.1c0,9.2,7.5,16.7,16.7,16.7h209.8
				c9.2,0,16.7-7.5,16.7-16.7c0-2.6-0.6-5-1.7-7.1C665.7,774.4,660,778.3,653.4,778.3z"/>
		</g>
		
			<linearGradient id="SVGID_33_" gradientUnits="userSpaceOnUse" x1="488.9543" y1="275.0386" x2="603.7748" y2="275.0386" gradientTransform="matrix(1 0 0 -1 0 1082)">
			<stop  offset="0" style="stop-color:#0056B2"/>
			<stop  offset="1" style="stop-color:#27185F"/>
		</linearGradient>
		<path class="st38" d="M574.6,821.6h-56.4c-16.1,0-29.2-13.1-29.2-29.2l0,0h114.8l0,0C603.8,808.5,590.7,821.6,574.6,821.6z"/>
		<path class="st39" d="M658.6,794.1H435.7c-20,0-36.2,16.2-36.2,36.2v152.5h295.4V830.3C694.8,810.3,678.6,794.1,658.6,794.1z"/>
		<path class="st40" d="M833.1,651.9c0,0,3.9,105.4,6.4,138c3,37.6,19.4,165.2,19.4,165.2l32.7-0.6l-0.3-160.7
			c0,0,14.9-43.6,14.5-130.7L833.1,651.9z"/>
		<path class="st41" d="M808.1,954.2v29.7h-14.6l-0.8-6.1l-2.9,0l-3.6,3.6c-1.6,1.6-3.8,2.5-6.1,2.5h-41.3c-1.1,0-2.2-0.2-3.2-0.6
			c-12-5.7,43.5-28.4,43.5-28.4L808.1,954.2z"/>
		<path class="st41" d="M890.5,954.2v29.7h-14.6l-0.8-6.1l-2.9,0l-3.6,3.6c-1.6,1.6-3.8,2.5-6.1,2.5h-41.3c-1.1,0-2.2-0.2-3.2-0.6
			c-12-5.7,43.5-28.4,43.5-28.4L890.5,954.2z"/>
		<path class="st40" d="M809.8,796.8c-2.2,6.1,0.7,145.2-0.9,158.2h-31.3c0,0-21-124.4-19.9-163.9c0.9-32.3,30.7-104,36.4-128l9.6,3
			c15.3,4.8,31.1,7.2,46.9,7.2c11.1,0,22.2-1.2,33-3.5c-6.1,13.9-16,34.2-27.6,50.3C836.4,747.3,815.4,781.8,809.8,796.8z"/>
		
			<linearGradient id="SVGID_34_" gradientUnits="userSpaceOnUse" x1="811.5142" y1="627.0021" x2="857.284" y2="627.0021" gradientTransform="matrix(1 0 0 -1 0 1082)">
			<stop  offset="0" style="stop-color:#FFCF8A"/>
			<stop  offset="1" style="stop-color:#F7B763"/>
		</linearGradient>
		<path class="st42" d="M857.3,466.9v14.9h-24.2v-11.3c-21.6-3.5-22.3-26.9-21.2-38.8c0.4,0,0.7-0.1,0.7-0.1
			c1.5,0.2,23.1-3.5,23.1-3.5c2.3,5.8,6.5,9.1,6.5,9.1c6.5-8.9,10.2-0.4,10.2,6.3c0,6.7-4.8,8.9-4.8,8.9
			C849.2,467.1,857.3,466.9,857.3,466.9C857.3,466.9,857.3,466.9,857.3,466.9z"/>
		<path class="st43" d="M857.3,466.9c0,0-8.1,0.1-9.7-14.6c0,0,4.8-2.2,4.8-8.9c0-6.7-3.7-15.1-10.2-6.3c0,0-4.2-3.2-6.5-9.1
			c0,0-21.6,3.7-23.1,3.5c0,0-8.7,1.6-14.9-5.7c-7.6-8.9-2.6-33.6,19.9-24c0,0,28.3-22.7,46.3,6.9
			C881.8,438.5,871.6,466.9,857.3,466.9z"/>
		<path class="st43" d="M847.6,452.4c0.1,1.3,0.2,2.6,0.4,3.8C847.7,454.9,847.6,453.7,847.6,452.4
			C847.5,452.4,847.5,452.4,847.6,452.4z"/>
		<path class="st44" d="M839.8,472.1c5.3-1.3,5.3-12.1,5.3-12.1c-2,7.2-11.9,10.5-11.9,10.5v11.3h6.7L839.8,472.1L839.8,472.1z"/>
		<path class="st36" d="M849.6,480.1c0,0-21.6-1.9-49.6,6.7c-28,8.6-66.5,22.7-66.5,22.7l-50-70.6l-17.7,5.1
			c0,0,56.5,112.3,65.8,112.6c16.3,0.4,72.1-14.1,72.1-14.1s-11.7,102.6-13.7,119.2c-2,16.6,107.2,22.4,116.7,9.9
			c9.4-12.6,1.7-148.3,1.7-148.3S908.8,480.1,849.6,480.1z"/>
		<path class="st45" d="M788,954.9h-10.3c0,0-21-124.5-19.9-163.9c0.9-30.7,27.8-97,35.4-124.1c2.5,1.7,6.4,3.3,11.1,4.6
			c-2.2,7.1-33.8,109-35.5,123.9C767.3,808.5,783.1,920.7,788,954.9z"/>
		<path class="st46" d="M824.2,528.2c0-7.7-20.7,14.4-20.7,14.4s-11.7,102.6-13.7,119.2c-0.5,3.9,5.3,7.2,14.5,9.9
			c0.1-0.3,0.1-0.4,0.1-0.4S824.2,535.9,824.2,528.2z"/>
		<path class="st47" d="M683.4,439c0,0-5.4-16.6-7.5-17.7c-2.1-1.1-3.4,6-3.4,6S661.3,409.9,659,411c-2.4,1.1-0.9,19.8,6.7,33.2
			L683.4,439z"/>
		<path class="st20" d="M244.1,486.4c0,0-19.3,29.7-23.5,63.6c-4.2,33.9,33.4,68.8,33.4,68.8L244.1,486.4z"/>
		<path class="st41" d="M337.6,958.4c2.9-1.2,39.1,17.1,44.2,20.2c0,0,0.1,0,0.1,0.1c2.6,1.6,1.4,5.6-1.7,5.6H312l2.3-26.2
			L337.6,958.4z"/>
		<path class="st41" d="M243.6,958.4c2.9-1.2,39.1,17.1,44.2,20.2c0,0,0.1,0,0.1,0.1c2.6,1.6,1.4,5.6-1.7,5.6h-68.2l2.3-26.2
			L243.6,958.4z"/>
		<path class="st48" d="M240.3,658c0,0-12.2,57.4,0.6,122.4c8.5,43.2-21.9,177.8-21.9,177.8l31.7,0.7c0,0,48.3-168,46.6-175.6
			c-1.7-7.5,20.9-119.5,20.9-119.5L240.3,658z"/>
		<path class="st36" d="M245,666.1c0,0,31.9,71.9,52.8,99.8c20.9,27.8,14.6,192.2,14.6,192.2l27.6,0.3c0,0,25.8-193.1,22.8-204.7
			c-2.9-11.6-31.9-97.5-31.9-97.5L245,666.1z"/>
		<path class="st20" d="M291.6,489.9c0,0,39,27,36,60.1c-5.6,61.4,4.9,110.2,4.9,110.2s-51.9,34.5-103.4,3c0,0,28.6-60.8,11.3-116
			C220.2,482.9,260.7,471.1,291.6,489.9z"/>
		<path class="st20" d="M336.3,561.8c0,0-52.2-63.8-74.2-52c-22.3,11.9,8.3,71.9,67,89.8c4.9,1.5,10.2,0.6,14.3-2.4l91.4-46.5
			l-10.4-13.5C424.5,537.1,352.2,556.7,336.3,561.8z"/>
		
			<linearGradient id="SVGID_35_" gradientUnits="userSpaceOnUse" x1="456.1915" y1="524.6053" x2="434.4857" y2="558.2101" gradientTransform="matrix(1 0 0 -1 0 1082)">
			<stop  offset="0" style="stop-color:#FFCF8A"/>
			<stop  offset="1" style="stop-color:#F7B763"/>
		</linearGradient>
		<path class="st49" d="M424.5,537.1c0,0,13.9-11.5,14.4-8.7s-1,5.4-1,5.4s15.3-9.2,17.7-7.1c2.4,2.1-15.5,22.4-22.4,24.9
			L424.5,537.1z"/>
		
			<linearGradient id="SVGID_36_" gradientUnits="userSpaceOnUse" x1="261.4216" y1="564.3649" x2="257.5212" y2="570.4033" gradientTransform="matrix(1 0 0 -1 0 1082)">
			<stop  offset="0" style="stop-color:#FFD200"/>
			<stop  offset="1" style="stop-color:#00C5FF"/>
		</linearGradient>
		<path class="st50" d="M262.1,509.8c-0.3,0.3-3.4,3.2-6.4,7.9C256.8,514.2,258.9,511.5,262.1,509.8z"/>
		<path class="st34" d="M326.3,598.7c-48.5-16.1-76.9-60.9-70.6-81c-4.9,8-9.5,21.1,0.1,36c15.7,24.3,44.6,44.3,50.4,61.8
			c4.1,12.4,12.9,36.5,17.7,49.5c5.5-2.7,8.6-4.7,8.6-4.7S326.9,629.2,326.3,598.7z"/>
		<path class="st43" d="M300,428.6c0,0-4.6-22.8-27.5-24.5c-20.6-1.5-34.5,10.2-38.8,26.9c-4.3,16.7-5.5,27.2-15.5,36.3
			c-10,9.1-20.5,27.1-6.4,45.4c16.5,21.3,50.8,4.7,49.3-27.2c-1-20.5,3.9-28.8,16-33.8C289.2,446.7,300,428.6,300,428.6z"/>
		
			<linearGradient id="SVGID_37_" gradientUnits="userSpaceOnUse" x1="291.4525" y1="606.7569" x2="263.385" y2="654.5082" gradientTransform="matrix(1 0 0 -1 0 1082)">
			<stop  offset="0" style="stop-color:#FFCF8A"/>
			<stop  offset="1" style="stop-color:#F7B763"/>
		</linearGradient>
		<path class="st51" d="M265.3,447.8c0,0-5.4-6.9-9.1-1.9c-3.7,5-3.8,18.4,5.3,18l-0.7,20.5h21v-8.2c0,0,30.8-3.7,18.2-47.5
			c0,0-10.8,5.2-20.6,5.9C279.4,434.5,274,444,265.3,447.8z"/>
	</g>
	<g id="DESIGNED_BY_FREEPIK">
	</g>
</g>
</svg>
