<?xml version="1.0" encoding="utf-8"?>
<!-- Generator: Adobe Illustrator 25.0.0, SVG Export Plug-In . SVG Version: 6.00 Build 0)  -->
<svg version="1.1" xmlns="http://www.w3.org/2000/svg" xmlns:xlink="http://www.w3.org/1999/xlink" x="0px" y="0px"
	 viewBox="0 0 1080 1080" style="enable-background:new 0 0 1080 1080;" xml:space="preserve">
<style type="text/css">
	.st0{display:none;}
	.st1{display:inline;}
	.st2{opacity:0.51;fill:#CCE9FF;enable-background:new    ;}
	.st3{fill:#D3D3D3;}
	.st4{clip-path:url(#SVGID_2_);fill:#2A94F4;}
	.st5{clip-path:url(#SVGID_4_);fill:#2A94F4;}
	.st6{clip-path:url(#SVGID_6_);fill:#2A94F4;}
	.st7{clip-path:url(#SVGID_8_);fill:#FEE3CA;}
	.st8{clip-path:url(#SVGID_10_);fill:#FFBE55;}
	.st9{clip-path:url(#SVGID_12_);}
	.st10{fill:#2A94F4;}
	.st11{clip-path:url(#SVGID_14_);fill:#2A94F4;}
	.st12{clip-path:url(#SVGID_16_);fill:#FFBE55;}
	.st13{clip-path:url(#SVGID_18_);fill:#FEE3CA;}
	.st14{clip-path:url(#SVGID_20_);fill:#2A94F4;}
	.st15{clip-path:url(#SVGID_22_);fill:#EACDB5;}
	.st16{clip-path:url(#SVGID_24_);fill:#FEE3CA;}
	.st17{clip-path:url(#SVGID_26_);fill:#084970;}
	.st18{clip-path:url(#SVGID_28_);fill:#FEE3CA;}
	.st19{clip-path:url(#SVGID_30_);}
	.st20{fill:#FFBE55;}
	.st21{fill:#F49E87;}
	.st22{fill:#222B54;}
	.st23{fill:#FFFFFF;}
	.st24{fill:#BACEDB;}
	.st25{fill:#084970;}
	.st26{fill:#FEE3CA;}
	.st27{fill:#0E538C;}
	.st28{clip-path:url(#SVGID_32_);}
	.st29{fill:#EACDB5;}
	.st30{fill:#FCD2B1;}
	.st31{fill:none;stroke:#FFFFFF;stroke-width:4;stroke-linecap:round;stroke-linejoin:round;stroke-miterlimit:10;}
	.st32{fill:#CBE9FF;}
	.st33{fill:#F2F2F2;}
	.st34{fill:#E5A03C;}
	.st35{fill:#FC43A6;}
	.st36{fill:#2A93F6;}
	.st37{opacity:0.34;fill:#2A93F6;enable-background:new    ;}
	.st38{fill:url(#SVGID_33_);}
	.st39{fill:#2995F5;}
	.st40{fill:#094872;}
	.st41{fill:#0C4872;}
	.st42{fill:url(#SVGID_34_);}
	.st43{fill:#251B63;}
	.st44{opacity:0.46;fill:#F9AA41;enable-background:new    ;}
	.st45{opacity:0.3;fill:#0D4770;enable-background:new    ;}
	.st46{opacity:0.4;fill:#0E538C;enable-background:new    ;}
	.st47{fill:#FFCF8A;}
	.st48{fill:#0F528C;}
	.st49{fill:url(#SVGID_35_);}
	.st50{fill:url(#SVGID_36_);}
	.st51{fill:url(#SVGID_37_);}
	.st52{fill:#2895F4;}
	.st53{opacity:0.5;fill:none;stroke:#0E538C;stroke-miterlimit:10;enable-background:new    ;}
	.st54{opacity:0.5;fill:#0E538C;enable-background:new    ;}
	.st55{fill:#D2D2D2;}
	.st56{fill:none;stroke:#B7B7B7;stroke-miterlimit:10;}
	.st57{fill:#E9BEAE;}
	.st58{fill:#F9CBBA;}
	.st59{fill:none;stroke:#0A4971;stroke-miterlimit:10;}
	.st60{fill:#FFBE58;}
	.st61{fill:none;stroke:#EAA542;stroke-miterlimit:10;}
	.st62{fill:#0E538E;}
	.st63{fill:#EAA542;}
	.st64{fill:#D38D2F;}
	.st65{fill:none;stroke:#D38D2F;stroke-miterlimit:10;}
	.st66{fill:#B76B2F;}
	.st67{fill:#1E0F00;}
	.st68{opacity:0.2;}
	.st69{opacity:0.2;fill:none;stroke:#1E0F00;stroke-miterlimit:10;enable-background:new    ;}
	.st70{fill:#CC6947;}
	.st71{fill:none;stroke:#B26F1F;stroke-miterlimit:10;}
	.st72{fill:none;stroke:#D6903C;stroke-miterlimit:10;}
</style>
<g id="Layer_1" class="st0">
	<g class="st1">
		<path class="st2" d="M289.9,273.4c0,0,174.5-201,367.4-72.4s53.1,290.8,256.1,375.5c149.8,62.5,92.9,485.7-151,409.2
			S453.8,794.4,252.5,867.1S-7.1,572.4,289.9,273.4z"/>
		<g>
			<g>
				
					<ellipse transform="matrix(0.7071 -0.7071 0.7071 0.7071 -95.3693 725.8291)" class="st3" cx="828.5" cy="478" rx="139" ry="139"/>
			</g>
			<path class="st3" d="M656.7,845.7c-3.3,83.6-64.9,152.8-148.5,154.4c-83.6,1.6-152.8-64.9-154.4-148.5
				c-1.6-83.7,65.1-160.8,148.5-154.4C591.3,704,659.7,769.4,656.7,845.7z"/>
			
				<ellipse transform="matrix(0.7071 -0.7071 0.7071 0.7071 -164.7127 293.9134)" class="st3" cx="272.4" cy="345.8" rx="141.7" ry="141.7"/>
			<g>
				<path class="st3" d="M810.5,510.8c2.2,2-51.5,63.8-120,138c-68.5,74.2-125.7,132.7-127.9,130.7c-2.2-2,51.5-63.8,120-138.1
					C751.1,567.3,808.3,508.8,810.5,510.8z"/>
			</g>
			<g>
				<path class="st3" d="M782,410c-0.6,2.9-95.3-15.2-211.4-40.4c-116.1-25.3-209.7-48.1-209.1-51c0.6-2.9,95.3,15.2,211.4,40.5
					C689.1,384.2,782.7,407.1,782,410z"/>
			</g>
			<g>
				<path class="st3" d="M437,752.4c-1.2,0.8-16-20.3-38.3-55.3c-22.3-35-52-84-83.4-139c-31.3-55-58.3-105.6-77-142.7
					c-18.7-37-29.3-60.4-28-61.1c1.4-0.7,14.3,21.4,34.8,57.5c20.4,36.1,48.5,85.9,79.6,140.9c31.4,54.8,59.9,104.5,80.5,140.4
					C425.9,729.1,438.3,751.6,437,752.4z"/>
			</g>
		</g>
		<g>
			<g>
				<defs>
					<path id="SVGID_1_" d="M689.8,486.8c4.8,76.6,70.9,134.8,147.5,130c76.6-4.8,134.8-70.9,130-147.5
						c-4.8-76.6-70.9-285.4-147.5-280.6C743.1,193.6,684.9,410.2,689.8,486.8z"/>
				</defs>
				<clipPath id="SVGID_2_">
					<use xlink:href="#SVGID_1_"  style="overflow:visible;"/>
				</clipPath>
				<path class="st4" d="M647.4,688.4l45.5,15.7c0,0,29-59,36-67c8-9.1,13.8-79.5,17.5-143.1c3.2-55.6,4.7-106.2,4.7-106.2
					s-15.5,3.5-25.6,29.7c-17.3,44.9-17.2,132.5-26.9,177.7C693.2,621.2,656.8,684.7,647.4,688.4z"/>
			</g>
			<g>
				<defs>
					<path id="SVGID_3_" d="M689.8,486.8c4.8,76.6,70.9,134.8,147.5,130c76.6-4.8,134.8-70.9,130-147.5
						c-4.8-76.6-70.9-285.4-147.5-280.6C743.1,193.6,684.9,410.2,689.8,486.8z"/>
				</defs>
				<clipPath id="SVGID_4_">
					<use xlink:href="#SVGID_3_"  style="overflow:visible;"/>
				</clipPath>
				<path class="st5" d="M693,704.1c17.4-20.2,29-59,36-67c8-9.1,46.2-61.1,10.6-142.8c-17.5,51.7-2.9,79.8-8.4,110.3
					C725.8,634.9,694.6,683.9,693,704.1z"/>
			</g>
			<g>
				<defs>
					<path id="SVGID_5_" d="M689.8,486.8c4.8,76.6,70.9,134.8,147.5,130c76.6-4.8,134.8-70.9,130-147.5
						c-4.8-76.6-70.9-285.4-147.5-280.6C743.1,193.6,684.9,410.2,689.8,486.8z"/>
				</defs>
				<clipPath id="SVGID_6_">
					<use xlink:href="#SVGID_5_"  style="overflow:visible;"/>
				</clipPath>
				<path class="st6" d="M930.3,454.1c-0.7-2.7-1.4-5.4-2.1-8c-10.1-35.7-26.6-61.6-52.4-65.9c-3.2,8.8-34.9,23.5-62.6,22.1
					c-3.1-0.2-7.6-4.3-7.6-4.3c-21.9-3.1-32.3-14.8-31.3-16.4c-0.9,0.1-23,6.2-23,6.2c-19.1,83.7-21.4,130.2,1.6,249.6
					c8.4,43.6-4.5,67.3-1.6,70.2c5,5,60.1,6.4,104.5,8.2c5.3,0.2,10.6,0.4,15.7,0.6c32.4,1.1,59.1,1.4,59.1,1.4
					c2.2-2.7,6.2-28,9-63.7C944,597.2,945.1,514,930.3,454.1z"/>
			</g>
			<g>
				<defs>
					<path id="SVGID_7_" d="M689.8,486.8c4.8,76.6,70.9,134.8,147.5,130c76.6-4.8,134.8-70.9,130-147.5
						c-4.8-76.6-70.9-285.4-147.5-280.6C743.1,193.6,684.9,410.2,689.8,486.8z"/>
				</defs>
				<clipPath id="SVGID_8_">
					<use xlink:href="#SVGID_7_"  style="overflow:visible;"/>
				</clipPath>
				<path class="st7" d="M860.5,384.2l-26.4,21.8l-40.1-6.2c0.4-3.9,2.4-20.6,4.1-34.9c1.4-11.7,2.6-21.7,2.6-21.7l48-19.2l1.5-0.6
					c0,0.2,0,0.5,0,0.7c-0.1,1.9-0.2,3.8-0.3,5.6C849,362.6,860.5,384.2,860.5,384.2z"/>
			</g>
			<g>
				<defs>
					<path id="SVGID_9_" d="M689.8,486.8c4.8,76.6,70.9,134.8,147.5,130c76.6-4.8,134.8-70.9,130-147.5
						c-4.8-76.6-70.9-285.4-147.5-280.6C743.1,193.6,684.9,410.2,689.8,486.8z"/>
				</defs>
				<clipPath id="SVGID_10_">
					<use xlink:href="#SVGID_9_"  style="overflow:visible;"/>
				</clipPath>
				<path class="st8" d="M826.9,402.8l-26.4-2.8c0,0-3.3,0.7-2.7,4.9c0.6,4.2,9.3,15.4,12.6,16C813.8,421.4,834.1,410.5,826.9,402.8
					z"/>
			</g>
			<g>
				<defs>
					<path id="SVGID_11_" d="M689.8,486.8c4.8,76.6,70.9,134.8,147.5,130c76.6-4.8,134.8-70.9,130-147.5
						c-4.8-76.6-70.9-285.4-147.5-280.6C743.1,193.6,684.9,410.2,689.8,486.8z"/>
				</defs>
				<clipPath id="SVGID_12_">
					<use xlink:href="#SVGID_11_"  style="overflow:visible;"/>
				</clipPath>
				<g class="st9">
					<path class="st10" d="M797.1,373.2c0,0,4.4,19.6,16,29.1l-17.9,23.2c0,0-21.7-25.6-21-44C774.2,381.6,791.4,373.9,797.1,373.2z
						"/>
					<path class="st10" d="M797.1,373.2c0,0,3.3,18.5,14.9,28l-17.2,21.1c0,0-18.8-21.9-20.7-40.7
						C774.2,381.6,791.4,373.9,797.1,373.2z"/>
					<path class="st10" d="M857.3,373.2c0,0-27.3,25.9-45.2,28l12.2,30.5c0,0,53.2-31.5,53.4-50.4
						C877.7,381.2,863.1,373.3,857.3,373.2z"/>
					<path class="st10" d="M855.3,372.1c0,0-25.4,26.9-43.3,29l9.9,28.1c0,0,53.6-30.2,53.8-49.1
						C875.8,380.2,861.1,372.3,855.3,372.1z"/>
				</g>
			</g>
			<g>
				<defs>
					<path id="SVGID_13_" d="M689.8,486.8c4.8,76.6,70.9,134.8,147.5,130c76.6-4.8,134.8-70.9,130-147.5
						c-4.8-76.6-70.9-285.4-147.5-280.6C743.1,193.6,684.9,410.2,689.8,486.8z"/>
				</defs>
				<clipPath id="SVGID_14_">
					<use xlink:href="#SVGID_13_"  style="overflow:visible;"/>
				</clipPath>
				<path class="st11" d="M939.5,654.1c-2.8,35.6-2,54.2-13,64.7c0,0-22.2,8.4-55.1-2.5c-11.2-5.7-20-13.6-24.3-24.4
					c-21.7-53.8,19.5-98.4,21.6-134c2.1-35.6,34.7-61.6,34.7-61.6S944,597.2,939.5,654.1z"/>
			</g>
			<g>
				<defs>
					<path id="SVGID_15_" d="M689.8,486.8c4.8,76.6,70.9,134.8,147.5,130c76.6-4.8,134.8-70.9,130-147.5
						c-4.8-76.6-70.9-285.4-147.5-280.6C743.1,193.6,684.9,410.2,689.8,486.8z"/>
				</defs>
				<clipPath id="SVGID_16_">
					<use xlink:href="#SVGID_15_"  style="overflow:visible;"/>
				</clipPath>
				<path class="st12" d="M814.6,417.8c0,0,5,47.2,5.9,63c2.5,44.5,3.4,178.1,3.4,178.1s1.3,11.7-6.5,21s-15.9,15.7-15.9,15.7
					s-11.4-10-16-28.8c-3-12.5,4.2-117.4,11.5-187.3c3.7-35.1,9.7-62.6,9.7-62.6S812.8,415.8,814.6,417.8z"/>
			</g>
			<g>
				<defs>
					<path id="SVGID_17_" d="M689.8,486.8c4.8,76.6,70.9,134.8,147.5,130c76.6-4.8,134.8-70.9,130-147.5
						c-4.8-76.6-70.9-285.4-147.5-280.6C743.1,193.6,684.9,410.2,689.8,486.8z"/>
				</defs>
				<clipPath id="SVGID_18_">
					<use xlink:href="#SVGID_17_"  style="overflow:visible;"/>
				</clipPath>
				<path class="st13" d="M839.8,661.2c0,0-21.3,5.6-28.3,9.4c-7,3.8-21,22.2-17.8,25.1c15.8,14.5,18.2-1.6,37.6-6.8
					c3.5-1,19.7-19,19.7-19L839.8,661.2z"/>
			</g>
			<g>
				<defs>
					<path id="SVGID_19_" d="M689.8,486.8c4.8,76.6,70.9,134.8,147.5,130c76.6-4.8,134.8-70.9,130-147.5
						c-4.8-76.6-70.9-285.4-147.5-280.6C743.1,193.6,684.9,410.2,689.8,486.8z"/>
				</defs>
				<clipPath id="SVGID_20_">
					<use xlink:href="#SVGID_19_"  style="overflow:visible;"/>
				</clipPath>
				<path class="st14" d="M875.8,380.2c0,0,36.3,5.9,54.4,24.8c18.2,18.9,48.9,173.1,41.2,194.8c-7.7,21.6-69.1,65.6-113.1,83.8
					c0,0-21.6-9.8-23-26.5c0,0,74.7-62.8,78.2-79.6C916.9,560.7,875.8,380.2,875.8,380.2z"/>
			</g>
			<g>
				<defs>
					<path id="SVGID_21_" d="M689.8,486.8c4.8,76.6,70.9,134.8,147.5,130c76.6-4.8,134.8-70.9,130-147.5
						c-4.8-76.6-70.9-285.4-147.5-280.6C743.1,193.6,684.9,410.2,689.8,486.8z"/>
				</defs>
				<clipPath id="SVGID_22_">
					<use xlink:href="#SVGID_21_"  style="overflow:visible;"/>
				</clipPath>
				<path class="st15" d="M850.1,324.2c-0.1,1.9-0.2,3.8-0.3,5.6c-9.3,10-31.1,31.3-51.7,35.1c1.4-11.7,2.6-21.7,2.6-21.7l48-19.2
					L850.1,324.2z"/>
			</g>
			<g>
				<defs>
					<path id="SVGID_23_" d="M689.8,486.8c4.8,76.6,70.9,134.8,147.5,130c76.6-4.8,134.8-70.9,130-147.5
						c-4.8-76.6-70.9-285.4-147.5-280.6C743.1,193.6,684.9,410.2,689.8,486.8z"/>
				</defs>
				<clipPath id="SVGID_24_">
					<use xlink:href="#SVGID_23_"  style="overflow:visible;"/>
				</clipPath>
				<path class="st16" d="M795.8,347.1c0,0,57.5,2.6,58.6-33.2c1.1-35.8,9.2-59.6-27.4-62.8c-36.7-3.2-44.2,10.3-47.5,22.1
					C776.2,285.1,780.8,345.5,795.8,347.1z"/>
			</g>
			<g>
				<defs>
					<path id="SVGID_25_" d="M689.8,486.8c4.8,76.6,70.9,134.8,147.5,130c76.6-4.8,134.8-70.9,130-147.5
						c-4.8-76.6-70.9-285.4-147.5-280.6C743.1,193.6,684.9,410.2,689.8,486.8z"/>
				</defs>
				<clipPath id="SVGID_26_">
					<use xlink:href="#SVGID_25_"  style="overflow:visible;"/>
				</clipPath>
				<path class="st17" d="M854.3,313.9c0,0-4.3-47.8-55.5-46.1c-51.2,1.7-29.1-46.7,15-53.9c0,0-4.6,17.1,23.1,19.8
					C895,239.4,859.5,306.3,854.3,313.9z"/>
			</g>
			<g>
				<defs>
					<path id="SVGID_27_" d="M689.8,486.8c4.8,76.6,70.9,134.8,147.5,130c76.6-4.8,134.8-70.9,130-147.5
						c-4.8-76.6-70.9-285.4-147.5-280.6C743.1,193.6,684.9,410.2,689.8,486.8z"/>
				</defs>
				<clipPath id="SVGID_28_">
					<use xlink:href="#SVGID_27_"  style="overflow:visible;"/>
				</clipPath>
				<path class="st18" d="M854,314c0,0,7-16,4-22s-8.1,5.9-8.1,5.9S845,310,847,313S854,314,854,314z"/>
			</g>
		</g>
		<g>
			<g>
				<defs>
					<path id="SVGID_29_" d="M131,358c4.8,76.6,73.5,137,150.1,132.2c10.8-0.7,25.1-5.6,40.5-11.7c87.2-34.9,245-73.9,240.8-139.8
						C559.5,293.9,595,120,517.5,55c-55-46.1-222.1,5.1-253.9,7.1C187,67,126.2,281.4,131,358z"/>
				</defs>
				<clipPath id="SVGID_30_">
					<use xlink:href="#SVGID_29_"  style="overflow:visible;"/>
				</clipPath>
				<g class="st19">
					<path class="st20" d="M143,391c8.5,31.2,28.5,57.4,37,71c6.4,10.1,5.3,36,15.3,43.9c4.1,3.2,4.9-12.8,10.7-14.9
						c10.4-3.7-27.1-93.5-25-111c3.6-30.7,50.2-59.1,52-72c1.9-14.1,3.3-22.1-8.1-28.8c-13.4-7.9-22.4-11-35.9-3.2
						c-12.1,7-29.7,36.2-36,48C153,324,134,358,143,391z"/>
					<path class="st21" d="M237.3,502.4c2.9-1.9,6.1-3.5,9-5.3c1.7-1.1,2.9-2.3,3.8-3.7c3.8,1.3,8.1,3.2,12.2,5.8
						c11.8,7.4,17,17.9,10.7,15.5c-6.3-2.4-13.4-9.8-19.1-9.4s9,27.7,13,29.6c4,1.9,6.4,9-5.1,5.5c-11.5-3.5-29.1-27.5-30.2-36.1
						c0-0.2,0-0.3,0-0.5C233.7,503.8,235.7,503.4,237.3,502.4z"/>
					<g>
						<g>
							<path class="st22" d="M223.4,902c-5.8-5.3-8.5-9.2-8.5-9.2c-4.5-1.5-27.9,1.5-30.4,3.8c-2.5,2.2,4.1,11.2,4.1,11.2
								s7.4-4.6,4.8,4.2s19.7,49.5,24.1,56.1c4.4,6.5-4.4-24.6-4.6-40C212.5,912.6,223.4,902,223.4,902z"/>
						</g>
					</g>
					<g>
						<g>
							<g>
								<path class="st23" d="M419.3,738.6c14.2-42.5-59.5-184.6-59.5-184.6s-96.7-164.1-118.6-98.9s73.2,231.6,82.5,244
									c9.3,12.4,6.2,23.8,6.2,23.8c-54.4,34.8-102.6,158.8-102.6,158.8c11.1,11,13.9,14,13.9,14
									C266.4,857.6,405.1,781.1,419.3,738.6z"/>
								<path class="st24" d="M241.4,897.2l-0.9-0.9c0,0-2.9-3.2-13.9-14l-0.5-0.5l0.2-0.6c0.5-1.2,48.7-124.2,102.6-159.1
									c0.4-2,1.9-12-6.1-22.6c-7.5-9.9-104.9-178.9-82.7-244.9c3.4-10,8.7-15.3,15.9-15.9c34.9-2.8,101.7,109.9,104.5,114.6
									c3,5.9,73.8,143,59.6,185.4l0,0c-8.1,24.1-54.7,58.3-99.8,91.3c-34.7,25.4-67.4,49.4-78.4,66L241.4,897.2z M290.8,461.5
									c-12.7-12.8-25-21.5-34.5-20.7c-6.4,0.5-11.1,5.4-14.2,14.6c-22,65.2,74.9,233.2,82.4,243c9.5,12.6,6.5,24.1,6.4,24.6
									l-0.1,0.4l-0.3,0.2c-51.6,33-98.2,148.4-102,157.8c7.6,7.5,11.1,11.1,12.6,12.7c11.7-16.8,44-40.4,78.2-65.4
									c44.9-32.9,91.2-66.8,99.1-90.4l0,0c13.9-41.6-58.7-182.4-59.4-183.8C358.5,553.6,323.2,494.1,290.8,461.5z"/>
							</g>
						</g>
					</g>
					<g>
						<g>
							<g>
								<path class="st23" d="M224.3,482.5c-53.9,58-9.4,162.3,0.6,181.9c15.3,30.1,6.5,58.4,6.5,58.4
									c-39.8,114.9,9.9,214.4,9.9,214.4c6.4,9.2,12.4,3.7,12.4,3.7c6.1-63.3,48.8-198.3,71.2-281c20.4-75.6-1.6-162.6-4.7-176.2
									L224.3,482.5z"/>
								<path class="st24" d="M319.2,483.6c3.1,12.1,24.6,101.9,4.7,176c-5.7,21-12.6,45.2-20,70.9
									c-21.8,76.1-46.5,162.4-51.2,209.9c-0.6,0.4-2.1,1.4-4.1,1.2c-2.3-0.3-4.5-1.9-6.5-4.8c-0.5-1-49.1-100.5-9.8-213.7
									c0.1-0.3,8.7-29-6.6-59.1c-9.8-19.4-52.1-127.2-1.3-181.6l-2.3-0.1c-50.4,65.1-8,163,1.9,182.5c14.9,29.4,6.5,57.4,6.4,57.7
									c-39.5,114,9.4,214.1,10,215.2c0.7,1,1.4,1.8,2.1,2.6c1.8,1.8,3.8,2.9,5.8,3.1c3.4,0.4,5.8-1.8,5.8-1.8l0.3-0.2l0-0.3
									c4.5-47.2,29.3-133.7,51.2-209.9c7.4-25.7,14.3-50,20-71c20.1-74.5-1.2-161.6-4.7-176.4L319.2,483.6L319.2,483.6z"/>
							</g>
						</g>
					</g>
					<g>
						<g>
							<path class="st22" d="M270.4,956.1c-13.9-7-18.2-21.9-18.2-21.9c-7.6,2.8-12.4,3.5-12.4,3.5c-3.6,3.5-12.2,26.3-11.4,29.6
								c0.8,3.3,12,1.5,12,1.5s-0.6-8.9,6.1-2.4c6.7,6.5,53.9,5,61.9,4C316.4,969.5,284.3,963.1,270.4,956.1z"/>
						</g>
					</g>
					<g>
						<g>
							<path class="st20" d="M310.8,268.2c-20.6-4-41.6-6.1-62.6-5.1c-2.4,0.1-4.7,0.3-7.1,0.5c-19.9,1.7-46.8,4.7-60.9,19.7
								c-10.9,11.5-17.4,28.4-15.3,44.3c2.1,16,19.4,23.5,24.7,39c12.5,36.9,22.1,121.1,24.1,126.6c0,0,55.7,43,99.9,1.6
								c4.3-4.1,12.9-32.9,15-39.2c3.5-10.7,7-21.4,10.3-32.1c6.9-22.1,13.1-44.5,17.1-67.4c3.2-18.7,10.2-50.4,3.1-68.7
								C353.4,272,325.2,271,310.8,268.2z"/>
						</g>
					</g>
					<path class="st20" d="M348.6,281.1c0,0-35.8,14-5.6,90.9c30.2,76.9,60.6,77,60.6,77s2.9-10.9-12.6-88.2
						C375.6,283.6,348.6,281.1,348.6,281.1z"/>
					<g>
						<g>
							<path class="st20" d="M437.3,244.9c0,0-0.1,0.2-0.1,0.2c-14,33.3-20.9,66.6-35.2,99.8c-8.3,19.4-14.2,37-21,57
								c-7.7,22.5-2,43.4,19.5,46.5c17.3,2.5,22.9-12.2,29.5-27.5c21.8-50.7,21.6-172.8,21.6-172.8
								C444.5,250.1,437.3,244.9,437.3,244.9z"/>
						</g>
					</g>
					<path class="st25" d="M453.5,270.5l12.1-4.3c3.3-1.2,5.1-4.8,3.9-8.2l-22.9-64.7c-1.2-3.3-4.9-5.1-8.2-3.9l-12.1,4.3
						c-3.3,1.2-5.1,4.8-3.9,8.2l22.9,64.7C446.4,269.9,450.1,271.7,453.5,270.5z"/>
					<g>
						<g>
							<path class="st26" d="M457.7,218c-10.4-6.4-15.1,17.9-6.7,24.1C468,254.5,470,225.5,457.7,218z"/>
						</g>
					</g>
					<g>
						<g>
							<path class="st26" d="M435,237.5c-0.6-2.9-2.1-7.8,0.2-10.2c1.3-1.4,3.1-2.2,4.1-3.8c1.1-1.6,0.8-4.2-1-4.7
								c-0.6-0.1-1.3,0-1.9,0.2c-11.9,3.9-8.7,15.4-4,24.2c0.6,1.1,1.3,2.3,2.4,3c0.8,0.5,1.6,0.7,2.5,0.4
								C437.4,243.7,435.5,240.4,435,237.5z"/>
						</g>
					</g>
					<polygon class="st10" points="484.2,189 563.1,203.8 513.8,56.3 460,120.4 					"/>
					
						<rect x="410.6" y="128.8" transform="matrix(0.9428 -0.3333 0.3333 0.9428 -29.7834 156.863)" class="st25" width="63.3" height="72.8"/>
					
						<rect x="403.1" y="141" transform="matrix(0.9428 -0.3334 0.3334 0.9428 -35.8092 146.149)" class="st27" width="9.6" height="72.8"/>
					
						<rect x="390.4" y="159.7" transform="matrix(0.9428 -0.3334 0.3334 0.9428 -37.71 142.7524)" class="st10" width="13.4" height="43.2"/>
					<g>
						<path class="st26" d="M280.9,177.3c-10.2-8.5-23.6-4.9-34.6,0c-13.4,6-21.2,19.5-18.8,34.1c0,0-7.4-4.8-7,12.3
							c0.4,17.1,13.9,20,18.6,18.6c0,0,4.7,14.6,13.9,20.2l5.8,19.5c23,7.1,31.2-9.3,31.2-9.3l-4.2-14c1.7-0.9,3.3-1.8,4.7-2.7
							c8.2-5.4,8-20.2,8.2-28.9c0-1.2,0-2.5,0-3.7c-0.2-11.2-2.9-22.5-7.8-32.6C288.3,185.8,285.2,180.9,280.9,177.3z"/>
					</g>
					<g>
						<path class="st27" d="M304.5,207.6c0,0-4.8,8.7-7,2.3c-3.9-11.4-7.5-11.3-16.3-12.9c-8.8-1.6-12.2-1.2-18.1-5.2
							c-5.9-4-4.5,10.9-9.6,14c-3.9,2.4-11.9,3.8-18.6,6.8c0.5,6.1,0.9,17.2-3,12.1c-3.3-4.3-6.5-4.9-8.5-4.8
							c-0.6,0.3-1.2,0.4-1.8,0.4c0,0,0,0,0,0s-1.3,22.2,17.4,22c0,0,2.7,7,4.4,9.7c0,0-10.1,4.6-22-18.3
							c-11.1-21.5-14.6-43.1-7.7-53.4c2.6-8.1,7.2-13.9,11.4-15.5c0,0,40.9-28.9,65.9-6.9C322,185.3,304.5,207.6,304.5,207.6z"/>
					</g>
				</g>
			</g>
		</g>
		<g>
			<g>
				<defs>
					<path id="SVGID_31_" d="M231.7,716.3c0.8,12.6-45.7,281.2,18.4,283.7c55.8,2.2,106.7-58.3,122.5-68.4c2.3-1.5,2-4.1,3.1-5.1
						c0.1-0.1,0.1,0.2,0.2,0.3c28.4,46.6,81,76.3,139.2,72.6c83.7-5.3,147.2-77.4,141.9-161c-5.3-83.6-77.4-311.6-161-306.3
						C412.3,537.4,226.4,632.7,231.7,716.3z"/>
				</defs>
				<clipPath id="SVGID_32_">
					<use xlink:href="#SVGID_31_"  style="overflow:visible;"/>
				</clipPath>
				<g class="st28">
					<path class="st25" d="M598.6,761.5c-11.6-22.7,6.7-76.1-20.8-114.2c-24.9-34.5-57.9-29.5-63.9-28.3c-6-1.2-39-6.2-63.9,28.3
						c-27.4,38.1-9.1,91.5-20.8,114.2c-11.6,22.7,21.6,24.5,35.8,27.2s40.8,26.3,46.6-13.6c1-7.1,1.8-16.6,2.4-27.5
						c0.6,10.8,1.3,20.4,2.4,27.5c5.8,39.9,32.4,16.3,46.6,13.6S610.2,784.1,598.6,761.5z"/>
					<rect x="496.8" y="763.7" class="st26" width="33.6" height="76.7"/>
					<path class="st29" d="M496.8,771.7v23.9c0,0,23-15,33.6-11.9V770L496.8,771.7z"/>
					<circle class="st30" cx="567" cy="707.7" r="11.7"/>
					<circle class="st30" cx="464.2" cy="715.7" r="11.7"/>
					<path class="st26" d="M567,714c0,42.7-23.5,67-53,67c-29.5,0-54-40.3-54-83s24-71.6,53.5-71.6C543.1,626.4,567,671.3,567,714z"
						/>
					<path class="st25" d="M536.5,673c0,0-50.1,43-86.7,37.5s25.3-90.8,52.5-87.5c27.2,3.3,53.8,6.5,67.9,51.6
						C570.2,674.6,561.5,644.7,536.5,673z"/>
					<path class="st25" d="M542.6,666.9c0,0,11.1,26.4,27.2,30.4s-1.8-36.8-11.1-47.5C549.5,639.1,542.6,666.9,542.6,666.9z"/>
					<path class="st26" d="M302.8,752.5c0,0-19.1-58.3-13-60.3s10.8,20.3,10.8,20.3s-14.8-30.8-9-31s14,28.8,14,28.8
						s-15.4-38.1-11.3-40.4c1.1-0.6,2.8,1.8,4.8,5.6c5.5,10.6,12.9,32.2,12.9,32.2s-12.5-33.5-10.5-34.6c2-1.2,21.8,29.1,23,43.3
						s6.7-16.3,11.9-16.9c5.2-0.6-3.5,35.5-3.5,35.5l-3.9,23l-15.6,25h-10.1L302.8,752.5z"/>
					<path class="st27" d="M415.7,840.4c0,0,39.2-31.3,81.1-30.3c0,0,6.3,15.2,16.8,15.1c10.5,0,16.8-15.2,16.8-15.2
						s43.7,1.6,69.8,19.8c26,18.2,126.6,158.4,126.6,158.4h-80.7l-57.8-95.3c0,0,18.8,39.4,14.1,72.4c-1.6,11.2-8.2,20.4-8.2,20.4
						l-79.6,46.9L431.8,990c0,0-26.6-53.2-4.2-90c0,0-123.4,67.9-170.9,49.1C209.4,930.4,299,751.8,299,751.8l32.8,6.8
						c0,0-52.6,128.7-35.9,134.4C312.5,898.7,415.7,840.4,415.7,840.4z"/>
				</g>
			</g>
		</g>
		<g>
			<path class="st25" d="M724.5,223H591c-4.5,0-8.2,3.7-8.2,8.2v70.3c0,4.5,3.7,8.2,8.2,8.2h89.2l27.1,17.4v-17.4h17.3
				c4.5,0,8.2-3.7,8.2-8.2v-70.3C732.8,226.7,729.1,223,724.5,223z"/>
			<line class="st31" x1="606.2" y1="248.5" x2="710.3" y2="248.5"/>
			<line class="st31" x1="606.2" y1="264.9" x2="710.3" y2="264.9"/>
			<line class="st31" x1="606.2" y1="281.2" x2="710.3" y2="281.2"/>
		</g>
		<g>
			<g>
				<path class="st20" d="M685.5,679.3h133.5c4.5,0,8.2,3.7,8.2,8.2v70.3c0,4.5-3.7,8.2-8.2,8.2h-89.2l-27.1,17.3v-17.3h-17.3
					c-4.5,0-8.2-3.7-8.2-8.2v-70.3C677.3,683,681,679.3,685.5,679.3z"/>
			</g>
			<g>
				<path class="st23" d="M699.8,706.8h104.1c1.1,0,2-0.9,2-2s-0.9-2-2-2H699.8c-1.1,0-2,0.9-2,2S698.7,706.8,699.8,706.8z"/>
			</g>
			<g>
				<path class="st23" d="M699.8,723.2h104.1c1.1,0,2-0.9,2-2s-0.9-2-2-2H699.8c-1.1,0-2,0.9-2,2S698.7,723.2,699.8,723.2z"/>
			</g>
			<g>
				<path class="st23" d="M699.8,739.5h104.1c1.1,0,2-0.9,2-2s-0.9-2-2-2H699.8c-1.1,0-2,0.9-2,2S698.7,739.5,699.8,739.5z"/>
			</g>
		</g>
	</g>
</g>
<g id="Capa_2" class="st0">
	<g id="BACKGROUND" class="st1">
	</g>
	<g id="OBJECTS" class="st1">
		<path class="st32" d="M138,256.9h96.7c8.1,0,14.7,6.6,14.7,14.7v58.6v20.4c0,5.4-6.6,8-10.3,4l-12.7-13.7
			c-6.3-6.9-15.2-10.7-24.6-10.7H138c-8.1,0-14.7-6.6-14.7-14.7v-43.9C123.3,263.5,129.9,256.9,138,256.9z"/>
		<g>
			<path class="st23" d="M216.2,278.7c0.9,0,1.5-0.7,1.5-1.5s-0.7-1.5-1.5-1.5H158c-0.9,0-1.5,0.7-1.5,1.5s0.7,1.5,1.5,1.5H216.2z"
				/>
			<path class="st23" d="M216.2,296c0.9,0,1.5-0.7,1.5-1.5c0-0.9-0.7-1.5-1.5-1.5H158c-0.9,0-1.5,0.7-1.5,1.5c0,0.9,0.7,1.5,1.5,1.5
				H216.2z"/>
			<path class="st23" d="M216.2,312c0.9,0,1.5-0.7,1.5-1.5c0-0.9-0.7-1.5-1.5-1.5h-26.9c-0.9,0-1.5,0.7-1.5,1.5
				c0,0.9,0.7,1.5,1.5,1.5H216.2z"/>
		</g>
		<path class="st32" d="M978.6,235h-125c-10.5,0-19,8.5-19,19v75.8v26.4c0,7,8.6,10.3,13.3,5.2l16.4-17.7
			c8.2-8.9,19.7-13.9,31.8-13.9h82.5c10.5,0,19-8.5,19-19V254C997.5,243.5,989,235,978.6,235z"/>
		<g>
			<path class="st23" d="M877.4,263.2c-1.1,0-2-0.9-2-2s0.9-2,2-2h75.3c1.1,0,2,0.9,2,2s-0.9,2-2,2H877.4z"/>
			<path class="st23" d="M877.4,285.6c-1.1,0-2-0.9-2-2c0-1.1,0.9-2,2-2h75.3c1.1,0,2,0.9,2,2c0,1.1-0.9,2-2,2H877.4z"/>
			<path class="st23" d="M877.4,306.3c-1.1,0-2-0.9-2-2s0.9-2,2-2h34.7c1.1,0,2,0.9,2,2s-0.9,2-2,2H877.4z"/>
		</g>
		<path class="st33" d="M1054.7,529v-14.5c0-1.6-1.1-3-2.7-3.3l-12-2.5c-0.7-2.3-1.7-4.6-2.8-6.8l6.7-10.2c0.9-1.3,0.7-3.1-0.4-4.3
			l-10.2-10.2c-1.1-1.1-2.9-1.3-4.3-0.4l-10.2,6.7c-2.2-1.1-4.4-2.1-6.8-2.8l-2.5-12c-0.3-1.6-1.7-2.7-3.3-2.7h-14.5
			c-1.6,0-3,1.1-3.3,2.7l-2.5,12c-2.3,0.7-4.6,1.7-6.8,2.8l-10.2-6.7c-1.3-0.9-3.1-0.7-4.3,0.4l-10.2,10.2c-1.1,1.1-1.3,2.9-0.4,4.3
			l6.7,10.2c-1.1,2.2-2.1,4.4-2.8,6.8l-12,2.5c-1.6,0.3-2.7,1.7-2.7,3.3V529c0,1.6,1.1,3,2.7,3.3l12,2.5c0.7,2.3,1.7,4.6,2.8,6.8
			l-6.7,10.2c-0.9,1.3-0.7,3.1,0.4,4.3l10.2,10.2c1.1,1.1,2.9,1.3,4.3,0.4l10.2-6.7c2.2,1.1,4.4,2.1,6.8,2.8l2.5,12
			c0.3,1.6,1.7,2.7,3.3,2.7h14.5c1.6,0,3-1.1,3.3-2.7l2.5-12c2.3-0.7,4.6-1.7,6.8-2.8l10.2,6.7c1.3,0.9,3.1,0.7,4.3-0.4l10.2-10.2
			c1.1-1.1,1.3-2.9,0.4-4.3l-6.7-10.2c1.1-2.2,2.1-4.4,2.8-6.8l12-2.5C1053.5,532,1054.7,530.6,1054.7,529z M1000.6,542.4
			c-12.7,1-23.3-9.5-22.3-22.2c0.8-10,8.9-18.1,18.9-18.9c12.7-1,23.3,9.5,22.3,22.2C1018.7,533.5,1010.6,541.6,1000.6,542.4z"/>
		<path class="st33" d="M803.1,155v-15.1c0-1.7-1.2-3.1-2.8-3.5l-12.5-2.6c-0.8-2.5-1.8-4.8-2.9-7.1l7-10.7c0.9-1.4,0.7-3.3-0.5-4.5
			l-10.7-10.7c-1.2-1.2-3.1-1.4-4.5-0.5l-10.7,7c-2.3-1.2-4.6-2.2-7.1-2.9L755.8,92c-0.3-1.6-1.8-2.8-3.5-2.8h-15.2
			c-1.7,0-3.1,1.2-3.5,2.8l-2.6,12.5c-2.5,0.8-4.8,1.8-7.1,2.9l-10.7-7c-1.4-0.9-3.3-0.7-4.5,0.5l-10.7,10.7
			c-1.2,1.2-1.4,3.1-0.5,4.5l7,10.7c-1.2,2.3-2.2,4.6-2.9,7.1l-12.5,2.6c-1.6,0.3-2.8,1.8-2.8,3.5V155c0,1.7,1.2,3.1,2.8,3.5
			l12.5,2.6c0.8,2.5,1.8,4.8,2.9,7.1l-7,10.7c-0.9,1.4-0.7,3.3,0.5,4.5l10.7,10.7c1.2,1.2,3.1,1.4,4.5,0.5l10.7-7
			c2.3,1.2,4.6,2.2,7.1,2.9l2.6,12.5c0.3,1.6,1.8,2.8,3.5,2.8h15.2c1.7,0,3.1-1.2,3.5-2.8l2.6-12.5c2.5-0.8,4.8-1.8,7.1-2.9l10.7,7
			c1.4,0.9,3.3,0.7,4.5-0.5l10.7-10.7c1.2-1.2,1.4-3.1,0.5-4.5l-7-10.7c1.2-2.3,2.2-4.6,2.9-7.1l12.5-2.6
			C801.9,158.2,803.1,156.7,803.1,155z M746.5,169c-13.3,1-24.3-10-23.3-23.3c0.8-10.5,9.3-18.9,19.8-19.8c13.3-1,24.3,10,23.3,23.3
			C765.5,159.7,757,168.2,746.5,169z"/>
		<path class="st33" d="M197.1,674.5v-20.9c0-2.3-1.6-4.3-3.9-4.8l-17.3-3.6c-1.1-3.4-2.4-6.6-4.1-9.7l9.7-14.7
			c1.3-1.9,1-4.5-0.6-6.1l-14.8-14.8c-1.6-1.6-4.2-1.9-6.1-0.6l-14.8,9.7c-3.1-1.6-6.4-3-9.8-4.1l-3.6-17.3
			c-0.5-2.3-2.5-3.9-4.8-3.9h-20.9c-2.3,0-4.3,1.6-4.8,3.9l-3.6,17.3c-3.4,1.1-6.6,2.4-9.8,4.1l-14.8-9.7c-1.9-1.3-4.5-1-6.1,0.6
			l-14.8,14.8c-1.6,1.6-1.9,4.2-0.6,6.1l9.7,14.7c-1.6,3.1-3,6.4-4.1,9.7l-17.3,3.6c-2.3,0.5-3.9,2.5-3.9,4.8v20.9
			c0,2.3,1.6,4.3,3.9,4.8l17.3,3.6c1.1,3.4,2.4,6.6,4.1,9.7l-9.7,14.7c-1.3,1.9-1,4.5,0.6,6.1l14.8,14.8c1.6,1.6,4.2,1.9,6.1,0.6
			l14.8-9.7c3.1,1.6,6.4,3,9.8,4.1l3.6,17.3c0.5,2.3,2.5,3.9,4.8,3.9h20.9c2.3,0,4.3-1.6,4.8-3.9l3.6-17.3c3.4-1.1,6.6-2.4,9.8-4.1
			l14.8,9.7c1.9,1.3,4.5,1,6.1-0.6l14.8-14.8c1.6-1.6,1.9-4.2,0.6-6.1l-9.7-14.7c1.6-3.1,3-6.4,4.1-9.7l17.3-3.6
			C195.5,678.8,197.1,676.8,197.1,674.5z M119.2,693.7c-18.4,1.4-33.5-13.7-32.1-32.1c1.1-14.4,12.8-26.1,27.3-27.2
			c18.4-1.4,33.5,13.7,32.1,32.1C145.3,680.9,133.6,692.6,119.2,693.7z"/>
		<path class="st34" d="M549.3,172.2v84.5c-5.7,3.9-11.8,5.1-17.1,5.1c-12.6,0-24.2-7.1-28.5-10.1l-0.3-0.2
			c-6.5-5-14.3-7.6-22.5-7.6c-20.4,0-36.9,16.6-36.9,36.9s16.6,36.9,36.9,36.9c7.7,0,15.1-2.4,21.4-6.8l7.4-5.2l0.2,0.4
			c5.7-3.1,13.7-6.3,22.3-6.3c5.3,0,11.3,1.2,17.1,5.1v102.8h102.8c1.5-2.2,2.7-4.5,3.5-7c4.2-12.1-0.5-24.5-4.7-32.3l0.4-0.2
			l-5.2-7.4c-4.5-6.3-6.8-13.7-6.8-21.4c0-20.3,16.6-36.9,36.9-36.9c20.4,0,36.9,16.6,36.9,36.9c0,8.2-2.6,16-7.6,22.4l-0.2,0.3
			c-4.4,6.3-14.1,22.8-8.5,38.7c0.9,2.4,2,4.7,3.5,6.8h80.6c0-1.3,0.1-2.6,0.1-3.9C781,275.9,677.3,172.2,549.3,172.2z"/>
		<path class="st20" d="M481,243.9c8.2,0,16,2.6,22.5,7.6l0.3,0.2c4.4,3.1,15.9,10.1,28.5,10.1c5.3,0,11.3-1.2,17.1-5.1v-84.5
			c-127.9,0-231.7,103.6-231.7,231.5c0,1.3,0,2.6,0.1,3.9h80.6c1.5,2.1,2.6,4.4,3.5,6.8c5.6,16-4,32.4-8.5,38.7l-0.2,0.3
			c-5,6.5-7.6,14.3-7.6,22.4c0,20.3,16.6,36.9,36.9,36.9c20.4,0,36.9-16.6,36.9-36.9c0-7.7-2.4-15.1-6.8-21.4l-5-7l0.4-0.2
			c-4.3-7.8-9.1-20.5-4.9-32.7c0.9-2.5,2-4.8,3.5-7h102.8V304.9c-5.7-3.9-11.8-5.1-17.1-5.1c-8.6,0-16.6,3.2-22.3,6.3l-0.2-0.4
			l-7.4,5.2c-6.3,4.5-13.7,6.8-21.4,6.8c-20.4,0-36.9-16.6-36.9-36.9C444,260.4,460.6,243.9,481,243.9z"/>
		<path class="st20" d="M700.3,407.6L700.3,407.6c-1.5-2.1-2.6-4.4-3.5-6.8c-5.6-16,4-32.4,8.5-38.7l0.2-0.3
			c5-6.5,7.6-14.3,7.6-22.4c0-20.3-16.6-36.9-36.9-36.9c-20.4,0-36.9,16.6-36.9,36.9c0,7.7,2.4,15.1,6.8,21.4l5.2,7.4l-0.4,0.2
			c4.2,7.9,8.8,20.3,4.7,32.3c-0.9,2.5-2,4.8-3.5,7l0,0H549.3v102.7c2.9,2,5.8,3.2,8.7,4c2.9,0.8,5.7,1.1,8.4,1.1
			c8.7,0,16.9-3.3,22.7-6.5l0.2,0.4l7.1-5c0.4-0.3,0.8-0.5,1.2-0.8c0.8-0.5,1.6-1,2.4-1.5c3.5-1.9,7.3-3.3,11.2-4
			c0.3-0.1,0.6-0.1,0.9-0.1c0.4-0.1,0.9-0.1,1.3-0.2c0.8-0.1,1.7-0.2,2.5-0.2c0.6,0,1.2-0.1,1.8-0.1h0.1c0.6,0,1.2,0,1.8,0.1
			c0.4,0,0.9,0,1.4,0.1c0.1,0,0.3,0,0.4,0.1c10.6,1,20.1,6.7,26.2,15.1c0.4,0.5,0.8,1.1,1.1,1.7c0.3,0.4,0.6,0.9,0.9,1.4
			c0,0,0,0,0,0c0.2,0.3,0.4,0.7,0.6,1c0.2,0.3,0.3,0.6,0.4,0.8c0.4,0.9,0.9,1.7,1.2,2.6c0.2,0.4,0.4,0.9,0.5,1.4
			c0.2,0.7,0.5,1.4,0.7,2.1c0,0,0,0,0,0c0.2,0.7,0.4,1.4,0.6,2.1c0.2,0.7,0.3,1.4,0.5,2.1c0.1,0.7,0.2,1.5,0.3,2.2
			c0,0.4,0.1,0.7,0.1,1.1c0.1,0.4,0.1,0.9,0.1,1.3c0,0.6,0,1.2,0,1.8c0,0.6,0,1.3-0.1,1.9c0,0.5-0.1,0.9-0.1,1.4
			c0,0.5-0.1,1.1-0.2,1.6c-0.1,0.5-0.2,1.1-0.2,1.6c-0.1,0.5-0.2,1-0.3,1.6c0,0,0,0,0,0c-3.7,16.4-18.2,28.6-35.7,28.8
			c-0.1,0-0.2,0-0.4,0c-6.7,0-13.1-1.7-18.7-5.1c-0.9-0.5-1.7-1-2.5-1.6c-0.4-0.3-0.8-0.6-1.2-0.9l-0.3-0.2
			c-4.4-3-15.9-10.1-28.6-10.1c-5.3,0-11.3,1.2-17.1,5.1v168h95.7c0-26.7,7.1-53.7,16.2-77.3c12.3-31.9,31.6-60.7,55.3-85.4
			c39.1-40.7,63.4-95.6,64.4-156.2L700.3,407.6L700.3,407.6z"/>
		<path class="st34" d="M617.6,497.5c-7.7,0-15.1,2.4-21.3,6.8l-7.1,5L589,509c-5.7,3.1-13.9,6.5-22.6,6.5c0,0,0,0,0,0
			c-5.3,0-11.3-1.2-17.1-5.1V407.6H446.6c-1.5,2.2-2.7,4.5-3.5,7c-4.2,12.2,0.6,24.9,4.9,32.7l-0.4,0.2l5,7
			c4.5,6.3,6.8,13.6,6.8,21.3c0,19.5-15.7,36-35.1,36.9c-21.2,1-38.7-15.9-38.7-36.9c0-8.2,2.6-16,7.6-22.4l0.2-0.3
			c4.4-6.3,14.1-22.8,8.5-38.7c-0.9-2.4-2-4.7-3.5-6.8h-80.6c1,60.6,25.3,115.5,64.4,156.3c23.7,24.7,43,53.4,55.3,85.4
			c9.1,23.6,16.2,50.5,16.2,77.2h95.7v-91.3v-76.7c5.7-3.9,11.8-5.1,17.1-5.1c12.6,0,24.2,7.1,28.5,10.1l0.3,0.2
			c6.5,5,14.3,7.6,22.5,7.6c21,0,37.9-17.5,36.9-38.7C653.6,513.2,637.1,497.5,617.6,497.5z"/>
		<path class="st35" d="M653.6,525.9c-0.3-1.4-0.8-2.9-1.3-4.2c1,2.7,1.7,5.6,2.1,8.5C654.2,528.8,653.9,527.3,653.6,525.9z"/>
		<g>
			<path class="st36" d="M653.4,726.1H443.5c-9.2,0-16.7,7.5-16.7,16.7l0,0c0,9.2,7.5,16.7,16.7,16.7h209.8
				c9.2,0,16.7-7.5,16.7-16.7l0,0C670.1,733.6,662.6,726.1,653.4,726.1z"/>
			<path class="st37" d="M653.4,745.2H443.6c-6.7,0-12.4-3.9-15-9.6c-1,2.2-1.7,4.6-1.7,7.1c0,9.2,7.5,16.7,16.7,16.7h209.8
				c9.2,0,16.7-7.5,16.7-16.7c0-2.6-0.6-5-1.7-7.1C665.7,741.3,660,745.2,653.4,745.2z"/>
		</g>
		<g>
			<path class="st36" d="M653.4,759.2H443.5c-9.2,0-16.7,7.5-16.7,16.7l0,0c0,9.2,7.5,16.7,16.7,16.7h209.8
				c9.2,0,16.7-7.5,16.7-16.7l0,0C670.1,766.6,662.6,759.2,653.4,759.2z"/>
			<path class="st37" d="M653.4,778.3H443.6c-6.7,0-12.4-3.9-15-9.6c-1,2.2-1.7,4.6-1.7,7.1c0,9.2,7.5,16.7,16.7,16.7h209.8
				c9.2,0,16.7-7.5,16.7-16.7c0-2.6-0.6-5-1.7-7.1C665.7,774.4,660,778.3,653.4,778.3z"/>
		</g>
		
			<linearGradient id="SVGID_33_" gradientUnits="userSpaceOnUse" x1="488.9543" y1="275.0386" x2="603.7748" y2="275.0386" gradientTransform="matrix(1 0 0 -1 0 1082)">
			<stop  offset="0" style="stop-color:#0056B2"/>
			<stop  offset="1" style="stop-color:#27185F"/>
		</linearGradient>
		<path class="st38" d="M574.6,821.6h-56.4c-16.1,0-29.2-13.1-29.2-29.2l0,0h114.8l0,0C603.8,808.5,590.7,821.6,574.6,821.6z"/>
		<path class="st39" d="M658.6,794.1H435.7c-20,0-36.2,16.2-36.2,36.2v152.5h295.4V830.3C694.8,810.3,678.6,794.1,658.6,794.1z"/>
		<path class="st40" d="M833.1,651.9c0,0,3.9,105.4,6.4,138c3,37.6,19.4,165.2,19.4,165.2l32.7-0.6l-0.3-160.7
			c0,0,14.9-43.6,14.5-130.7L833.1,651.9z"/>
		<path class="st41" d="M808.1,954.2v29.7h-14.6l-0.8-6.1l-2.9,0l-3.6,3.6c-1.6,1.6-3.8,2.5-6.1,2.5h-41.3c-1.1,0-2.2-0.2-3.2-0.6
			c-12-5.7,43.5-28.4,43.5-28.4L808.1,954.2z"/>
		<path class="st41" d="M890.5,954.2v29.7h-14.6l-0.8-6.1l-2.9,0l-3.6,3.6c-1.6,1.6-3.8,2.5-6.1,2.5h-41.3c-1.1,0-2.2-0.2-3.2-0.6
			c-12-5.7,43.5-28.4,43.5-28.4L890.5,954.2z"/>
		<path class="st40" d="M809.8,796.8c-2.2,6.1,0.7,145.2-0.9,158.2h-31.3c0,0-21-124.4-19.9-163.9c0.9-32.3,30.7-104,36.4-128l9.6,3
			c15.3,4.8,31.1,7.2,46.9,7.2c11.1,0,22.2-1.2,33-3.5c-6.1,13.9-16,34.2-27.6,50.3C836.4,747.3,815.4,781.8,809.8,796.8z"/>
		
			<linearGradient id="SVGID_34_" gradientUnits="userSpaceOnUse" x1="811.5142" y1="627.0021" x2="857.284" y2="627.0021" gradientTransform="matrix(1 0 0 -1 0 1082)">
			<stop  offset="0" style="stop-color:#FFCF8A"/>
			<stop  offset="1" style="stop-color:#F7B763"/>
		</linearGradient>
		<path class="st42" d="M857.3,466.9v14.9h-24.2v-11.3c-21.6-3.5-22.3-26.9-21.2-38.8c0.4,0,0.7-0.1,0.7-0.1
			c1.5,0.2,23.1-3.5,23.1-3.5c2.3,5.8,6.5,9.1,6.5,9.1c6.5-8.9,10.2-0.4,10.2,6.3c0,6.7-4.8,8.9-4.8,8.9
			C849.2,467.1,857.3,466.9,857.3,466.9C857.3,466.9,857.3,466.9,857.3,466.9z"/>
		<path class="st43" d="M857.3,466.9c0,0-8.1,0.1-9.7-14.6c0,0,4.8-2.2,4.8-8.9c0-6.7-3.7-15.1-10.2-6.3c0,0-4.2-3.2-6.5-9.1
			c0,0-21.6,3.7-23.1,3.5c0,0-8.7,1.6-14.9-5.7c-7.6-8.9-2.6-33.6,19.9-24c0,0,28.3-22.7,46.3,6.9
			C881.8,438.5,871.6,466.9,857.3,466.9z"/>
		<path class="st43" d="M847.6,452.4c0.1,1.3,0.2,2.6,0.4,3.8C847.7,454.9,847.6,453.7,847.6,452.4
			C847.5,452.4,847.5,452.4,847.6,452.4z"/>
		<path class="st44" d="M839.8,472.1c5.3-1.3,5.3-12.1,5.3-12.1c-2,7.2-11.9,10.5-11.9,10.5v11.3h6.7L839.8,472.1L839.8,472.1z"/>
		<path class="st36" d="M849.6,480.1c0,0-21.6-1.9-49.6,6.7c-28,8.6-66.5,22.7-66.5,22.7l-50-70.6l-17.7,5.1
			c0,0,56.5,112.3,65.8,112.6c16.3,0.4,72.1-14.1,72.1-14.1s-11.7,102.6-13.7,119.2c-2,16.6,107.2,22.4,116.7,9.9
			c9.4-12.6,1.7-148.3,1.7-148.3S908.8,480.1,849.6,480.1z"/>
		<path class="st45" d="M788,954.9h-10.3c0,0-21-124.5-19.9-163.9c0.9-30.7,27.8-97,35.4-124.1c2.5,1.7,6.4,3.3,11.1,4.6
			c-2.2,7.1-33.8,109-35.5,123.9C767.3,808.5,783.1,920.7,788,954.9z"/>
		<path class="st46" d="M824.2,528.2c0-7.7-20.7,14.4-20.7,14.4s-11.7,102.6-13.7,119.2c-0.5,3.9,5.3,7.2,14.5,9.9
			c0.1-0.3,0.1-0.4,0.1-0.4S824.2,535.9,824.2,528.2z"/>
		<path class="st47" d="M683.4,439c0,0-5.4-16.6-7.5-17.7c-2.1-1.1-3.4,6-3.4,6S661.3,409.9,659,411c-2.4,1.1-0.9,19.8,6.7,33.2
			L683.4,439z"/>
		<path class="st20" d="M244.1,486.4c0,0-19.3,29.7-23.5,63.6c-4.2,33.9,33.4,68.8,33.4,68.8L244.1,486.4z"/>
		<path class="st41" d="M337.6,958.4c2.9-1.2,39.1,17.1,44.2,20.2c0,0,0.1,0,0.1,0.1c2.6,1.6,1.4,5.6-1.7,5.6H312l2.3-26.2
			L337.6,958.4z"/>
		<path class="st41" d="M243.6,958.4c2.9-1.2,39.1,17.1,44.2,20.2c0,0,0.1,0,0.1,0.1c2.6,1.6,1.4,5.6-1.7,5.6h-68.2l2.3-26.2
			L243.6,958.4z"/>
		<path class="st48" d="M240.3,658c0,0-12.2,57.4,0.6,122.4c8.5,43.2-21.9,177.8-21.9,177.8l31.7,0.7c0,0,48.3-168,46.6-175.6
			c-1.7-7.5,20.9-119.5,20.9-119.5L240.3,658z"/>
		<path class="st36" d="M245,666.1c0,0,31.9,71.9,52.8,99.8c20.9,27.8,14.6,192.2,14.6,192.2l27.6,0.3c0,0,25.8-193.1,22.8-204.7
			c-2.9-11.6-31.9-97.5-31.9-97.5L245,666.1z"/>
		<path class="st20" d="M291.6,489.9c0,0,39,27,36,60.1c-5.6,61.4,4.9,110.2,4.9,110.2s-51.9,34.5-103.4,3c0,0,28.6-60.8,11.3-116
			C220.2,482.9,260.7,471.1,291.6,489.9z"/>
		<path class="st20" d="M336.3,561.8c0,0-52.2-63.8-74.2-52c-22.3,11.9,8.3,71.9,67,89.8c4.9,1.5,10.2,0.6,14.3-2.4l91.4-46.5
			l-10.4-13.5C424.5,537.1,352.2,556.7,336.3,561.8z"/>
		
			<linearGradient id="SVGID_35_" gradientUnits="userSpaceOnUse" x1="456.1915" y1="524.6053" x2="434.4857" y2="558.2101" gradientTransform="matrix(1 0 0 -1 0 1082)">
			<stop  offset="0" style="stop-color:#FFCF8A"/>
			<stop  offset="1" style="stop-color:#F7B763"/>
		</linearGradient>
		<path class="st49" d="M424.5,537.1c0,0,13.9-11.5,14.4-8.7s-1,5.4-1,5.4s15.3-9.2,17.7-7.1c2.4,2.1-15.5,22.4-22.4,24.9
			L424.5,537.1z"/>
		
			<linearGradient id="SVGID_36_" gradientUnits="userSpaceOnUse" x1="261.4216" y1="564.3649" x2="257.5212" y2="570.4033" gradientTransform="matrix(1 0 0 -1 0 1082)">
			<stop  offset="0" style="stop-color:#FFD200"/>
			<stop  offset="1" style="stop-color:#00C5FF"/>
		</linearGradient>
		<path class="st50" d="M262.1,509.8c-0.3,0.3-3.4,3.2-6.4,7.9C256.8,514.2,258.9,511.5,262.1,509.8z"/>
		<path class="st34" d="M326.3,598.7c-48.5-16.1-76.9-60.9-70.6-81c-4.9,8-9.5,21.1,0.1,36c15.7,24.3,44.6,44.3,50.4,61.8
			c4.1,12.4,12.9,36.5,17.7,49.5c5.5-2.7,8.6-4.7,8.6-4.7S326.9,629.2,326.3,598.7z"/>
		<path class="st43" d="M300,428.6c0,0-4.6-22.8-27.5-24.5c-20.6-1.5-34.5,10.2-38.8,26.9c-4.3,16.7-5.5,27.2-15.5,36.3
			c-10,9.1-20.5,27.1-6.4,45.4c16.5,21.3,50.8,4.7,49.3-27.2c-1-20.5,3.9-28.8,16-33.8C289.2,446.7,300,428.6,300,428.6z"/>
		
			<linearGradient id="SVGID_37_" gradientUnits="userSpaceOnUse" x1="291.4525" y1="606.7569" x2="263.385" y2="654.5082" gradientTransform="matrix(1 0 0 -1 0 1082)">
			<stop  offset="0" style="stop-color:#FFCF8A"/>
			<stop  offset="1" style="stop-color:#F7B763"/>
		</linearGradient>
		<path class="st51" d="M265.3,447.8c0,0-5.4-6.9-9.1-1.9c-3.7,5-3.8,18.4,5.3,18l-0.7,20.5h21v-8.2c0,0,30.8-3.7,18.2-47.5
			c0,0-10.8,5.2-20.6,5.9C279.4,434.5,274,444,265.3,447.8z"/>
	</g>
	<g id="DESIGNED_BY_FREEPIK" class="st1">
	</g>
</g>
<g id="Capa_3">
	<g id="BACKGROUND_1_">
	</g>
	<g id="OBJECTS_1_">
		<path class="st52" d="M549.8,878.6c-27.7,4.2-41.3,5.2-70.2,2.2c-2-10.8-11.9-67.1-11.9-67.1s-11.4,54.8-12.8,67.9
			c-24.7,8.6-68.7-0.7-68.7-0.7s-2.9-52.3-4-71.4c-4.2-71.3,27.9-99.7,27.9-99.7s25.5-4,59.8-3.7c34.3,0.3,56.8,3,56.8,3
			s28.4,39.7,26.9,77C552.1,823.5,553.5,852,549.8,878.6z"/>
		<path class="st53" d="M424.3,813.7c0,0,23.2,11.9,44-2.2c0,0,23.2,15.6,47.1,0"/>
		<path class="st53" d="M471.3,745c0,0,3.7,37.3-2.2,62"/>
		<path class="st54" d="M491.5,744.3l3,36.6c0,0,20.2,12.8,30.6,9.7c10.4-3,23.2-21.7,23.2-21.7L537,735.4c0,0-9.7,4.5-22.4,6.7
			C504.2,743.8,491.5,744.3,491.5,744.3z"/>
		<path class="st54" d="M449,745.8l-3,36.6c0,0-20.2,12.8-30.6,9.7c-10.4-3-23.2-21.7-23.2-21.7l11.3-33.6c0,0,9.7,4.5,22.4,6.7
			C436.2,745.3,449,745.8,449,745.8z"/>
		<path class="st55" d="M397,711.9c12.9,3.5,26,6.7,39.5,8.1c17.1,1.8,34.1,1.2,51.3-0.2c13.3-1.2,27.1-1.8,39.8-5.7
			c1.5-0.5,2.9-1,4.4-1.5c-1.5-8.2-2.9-16.3-3.5-22.9c-0.7-6,2.7-34.8,4.9-53.1s2.2-73.9-6.6-79.8c-8.7-5.9-28.6-7.9-33.8-8.7
			c-20.8-3.5-51.3-3.4-62.9-1.5c-10.9,1.7-27.1,8.9-31.4,19c-5.7,13.1-5,38-1.5,56c3.7,18,4.7,52.9,4.5,61.2
			C401.4,687.9,399.4,699.3,397,711.9z"/>
		<path class="st56" d="M443.4,645.5c0,0,37.3,52.6,58.1,55"/>
		<path class="st57" d="M575.7,655.1c39.8,9.9,82.5-0.5,113.4-8.2c-1.7,29.1,10.6,50.2,9.2,54.1c-1.2,3.7-38,21.8-63,23.4
			c-25,1.5-60.7-10.8-62.7-14.6C571.8,707.3,576.8,680,575.7,655.1z"/>
		<polygon class="st58" points="599.9,496.9 602.2,528.4 647.6,520.8 633.8,478.1 		"/>
		<path class="st48" d="M675.2,449.4c-6.7-21.5,5.7-66.2-44.9-75.5c-40.5-7.4-61.7,27.6-61.7,27.6s-20.2,7.6-24,22
			c-9.7,37.5,9.1,41,4.4,57.3c-4.7,16.3,3.9,32.8,18.3,35.3s25.9-5.7,25.9-5.7s10.1,3.4,22.2,1.5c6.2-0.8,12.9-3.2,19.2-7.9
			c11.4,3.5,28.4,2.2,40-8.6C690.6,480.5,681.7,470.7,675.2,449.4z"/>
		<g>
			<path class="st59" d="M546.6,426.7c0,0-8.2,20.2-5.7,34.6c1.8,10.8,11.4,12.6,5.7,27.1c-4.7,11.9,1.8,20.2,6.9,22"/>
			<path class="st59" d="M644.6,390.4c0,0,9.4,8.2,11.6,19.2c2.2,11.1-2.5,25.5,1.8,33.1c4.4,7.6,8.6,19,8.2,30.2
				c-0.3,11.4-9.7,23.7-9.7,23.7"/>
			<path class="st59" d="M665.7,442.7c0,0,6.4,11.9,7.6,23.7c1.3,11.6-5.7,25.5-8.2,26.7"/>
			<path class="st59" d="M557.9,415.6c0,0-13.3,14.5-8.6,25.5c4.7,11.1,11.6,23.7,9.4,29.9c-2.2,6.4-7.2,18.3-1.2,23"/>
			<path class="st59" d="M561.7,450.2c0,0,6.4,11.4,5,17.3c-1.3,6-6,15.8-1,22c5,6.4,7.9,12.9,7.9,12.9"/>
			<path class="st59" d="M570.8,433.4c0,0-2.9,13.1,2.5,21c5.5,8.1,6.7,16.5,5,24s4.2,16,4.2,16"/>
		</g>
		<g>
			<g>
				<path class="st48" d="M566.4,406.2c0,0-30.6-1.3-30.8-23.7s23.7-24.2,32.9-13.3c8.4,9.9,6.6,28.2,6.6,28.2L566.4,406.2z"/>
			</g>
			<g>
				<path class="st48" d="M563.6,405.2c-0.3,0.2-0.7,0-0.8,0c-10.8-5.2-22,4.9-22,4.9c-0.5,0.5-1.3,0.5-1.8,0s-0.5-1.3,0-1.8
					c0.5-0.5,12.6-11.3,24.9-5.4c0.7,0.3,0.8,1,0.5,1.7C564.1,404.9,563.9,405,563.6,405.2z"/>
			</g>
			<g>
				<path class="st48" d="M543.4,420c-0.3,0-0.7,0-0.8,0c-0.7-0.3-0.8-1-0.7-1.7c0.3-0.7,7.2-15.5,20.8-14.6c0.7,0,1.2,0.7,1.2,1.3
					c0,0.7-0.7,1.2-1.3,1.2c-11.9-0.7-18.3,13.1-18.3,13.3C544.1,419.6,543.7,420,543.4,420z"/>
			</g>
		</g>
		<path class="st59" d="M658.7,395.1c0,0,15.8,21.5,16.5,36c0.7,14.5,2.5,17.6,9.4,27.1c6.9,9.4,8.9,18.3,1.8,29.1"/>
		<g>
			<path class="st59" d="M540.9,379.3c0,0-1,11.1,7.2,17c8.2,6,14.1,4,14.1,4"/>
			<path class="st59" d="M549,382.3c0,0-0.2,4.7,5.7,9.9s11.1,4.4,11.1,4.4"/>
		</g>
		<g>
			<path class="st58" d="M750.6,417c-6.2,0.8-11.8,2.5-11.8,2.5s-0.5,24-1.7,40c-1.3,16,3,41.2,3,41.2s-27.4,11.4-41.2,16
				c-10.6,3.5-23.2,3.4-31.1,15c-7.9,11.6,0.8,54.4,20.2,51.4c19.3-2.9,31.1-11.4,52.1-25.2c23.4-15.3,31.6-25.4,38.1-36.3
				c6.6-10.9,3.5-44.4-0.7-62.5c-2.7-11.3-13.1-43.4-13.1-43.4S756.8,416.1,750.6,417z"/>
			<path class="st58" d="M741.5,425.2c6.7,2.4,20.2-3.5,23.4-6c3.4-2.7,4.4-8.1,5.5-11.9c1.2-3.9,0-16.1-0.2-21.7
				c-0.2-5.7-3.4-20.3-5.9-28.9c-2.5-9.2-10.1-8.1-8.9-1.5c1,5.9,1.7,17.1,1.7,17.1s-4.4-6-8.2-6s-6,2.9-6,2.9s-1.3-3.9-5.7-3
				c-4.4,0.8-4.2,6-4.2,6s-8.4-23.2-13.1-27.4c-4.7-4.2-9.1-0.8-6.4,5.5s4.4,11.6,6.6,18.5c3.2,10.3,4.4,20.5,4.4,20.5
				s-8.2-7.9-11.6-8.6c-3.4-0.7-10.1-0.7-10.4,3.4c-0.5,4,11.3,11.4,12.8,13.3c2.9,3.2,5.4,6.9,10.9,16.5
				C728.6,417.6,734.8,422.8,741.5,425.2z"/>
		</g>
		<g>
			<path class="st52" d="M686.8,615.3c0-9.9,4.2-32.1,5.2-42.7c0.8-10.9,1.7-22.5-0.5-33.3c-2.2-11.1-8.2-16.1-15.3-18.7
				c-7.1-2.5-42.9-3-53.6-1c-15.6,2.9-48.1,5.2-54.3,17.8c-6.2,12.4,0,58.8,2,84c1.3,17.3-4,56.5-4,56.5s32.4,13.3,76.1,5.7
				s56.3-20.2,56.3-20.2S686.8,625.2,686.8,615.3z"/>
			<path class="st53" d="M669.4,577.3c0,0-17,15.1-24.5,32.8s-16.5,41.7-16.5,41.7"/>
		</g>
		<path class="st60" d="M640.2,889.2c-47.1,1.3-80.8-13.6-80.8-13.6s-0.2-62.7,1-93.4c0.8-21.2,10.1-64.9,10.1-64.9s0-5.5,0.3-7.6
			c0.5-2.9,1-5.7,1-5.7s21.5,3.2,65.7-1.3c44.2-4.4,58.1-16,58.1-16s1.8,1.5,4,4.4c2.2,2.9,3.5,6.6,3.5,6.6s11.4,8.1,19,26.9
			c7.7,18.7,9.1,49.2,9.1,68.6s-1.3,79.5-1.3,79.5S691,887.8,640.2,889.2z"/>
		<g>
			<path class="st61" d="M570.3,717.1c0,0,42.5,6.2,74.3,1.2c31.9-5,57.8-21.3,57.8-21.3"/>
			<path class="st61" d="M638.2,875.9c0,0,14.6-40.2,28.9-53.6c14.5-13.4,19.8-51.1,19.8-51.1"/>
		</g>
		<g>
			<path class="st58" d="M394.2,507.2c-8.7-13.1-31.3-36-31.3-36s0.5-25.4-0.7-45.9c-1.2-20.7-3.4-43-7.4-54.6
				c5.5-2.5,10.6-8.9,12.9-12.1c3.2-4.2,5.4-11.9,6.4-18.7c1-6.7-4.7-8.7-4.2-11.6c0.3-2.9,9.6-24.7,11.9-31.1
				c2.4-6.4-4.4-10.3-8.6-6.9c-4,3.4-14.5,28.9-14.5,28.9s2-24.5,1-30.2c-1-5.7-5.2-7.6-9.1-4.4s-4.4,35.1-4.4,35.1
				s-3.7-3.5-8.6-0.8c-5,2.7-4.9,5.9-4.9,5.9s-2.4-2.2-6.7,4c-4.4,6.2-1,32.3,4.4,37.6c1,1,2,1.7,3,2.4c-1.7,2.2-3.4,5-4.5,8.6
				c-3.7,10.3-8.7,28.2-12.3,47.4c-3.9,20.5-2.9,48.2-0.7,61.3s29.2,56,45.4,72.8c15.5,16.1,38.5,23.2,49.4,10.9
				C426.4,551.9,402.9,520.3,394.2,507.2z"/>
			<path class="st62" d="M396.4,619.1c0,0,6.7-24,12.1-37.3c6.6-16.5,24.2-35.1,24.2-35.1s-3.9-6.7-12.1-17.5
				c-5.4-7.1-21.2-25.4-24.9-28.9c-8.4-8.1-18.3,5-27.1,24.9c-7.6,17.1-8.4,50.1-8.4,50.1s6.4,14.1,17.3,26.4
				C383.6,608.9,396.4,619.1,396.4,619.1z"/>
		</g>
		<path class="st63" d="M307.6,897.6c-25.5,0.7-55-1.8-55-1.8s-27.4,1.2-49.4,0c-22-1.2-41.7-8.7-41.7-8.7s0-30.8-1.2-43.9
			c-1.2-13.1-6.6-29.6-6.6-53.8c0-24.2,5.5-47.6,9.6-58.8c4-11.3,176.8-14.1,182.5,4.9c1,3.4,5,24.5,6.6,44c1.2,16.3,0,31.8,0,31.8
			l8.7,70.2C361.2,881.4,334.9,896.7,307.6,897.6z"/>
		<path class="st64" d="M272,779.3l3.9,48.7c0,0,26,17,39.5,12.9c13.4-4,28.2-24.5,28.2-24.5l-5.5-46.9c0,0-19.8,3.9-36.1,6.7
			C288.5,778.8,272,779.3,272,779.3z"/>
		<path class="st64" d="M165.5,780.4l4.7,48.9c0,0,20,21,33.8,19.3c13.8-1.7,29.9-19.7,29.9-19.7l-1.8-47.4c0,0-20,0.5-36.6,0.8
			C181.9,782.6,165.5,780.4,165.5,780.4z"/>
		<path class="st65" d="M243.8,779.3c0,0-1.2,37.3,8.7,65.9c6.9,20.2,4.4,39.5,5.5,49.4"/>
		<path class="st65" d="M214.2,870.4c24.2,0,34.3-17.5,42.9-15.3c8.7,2.2,27.4,16.5,53.8,10.9"/>
		<path class="st66" d="M218.9,469.4l5.4-39.8l53.6,3l8.6,43c0,0-9.1,30.1-41.5,23C212.7,491.9,217.2,469.6,218.9,469.4z"/>
		<path class="st66" d="M308.1,387.5c-1.7-5.2-13.9-6.6-13.9-6.6l-7.6,33.9c0,0,9.6-1.2,14.1-6C305.1,404.2,310.2,394.1,308.1,387.5
			z"/>
		<path class="st66" d="M203.1,382.8c0,0-12.9-6-16.1,2c-2.9,7.2-0.3,15.3,4.9,20.8c4,4.2,16.3,7.7,16.3,7.7L203.1,382.8z"/>
		<path class="st67" d="M308,346c-2-0.7-7.1-2.4-7.1-2.4s10.3-9.1,11.4-12.9c1.3-3.9-1.7-9.7-16.8-10.8c-11.3-0.7-24,0.5-24,0.5
			s9.9-8.4,8.6-14.1c-1.3-5.5-7.7-3.4-19.7,0.7c-15.8,5.4-30.2,7.4-30.2,7.4s-24,4.2-29.2,14.1c-5.2,9.9-1.8,18.8-1.8,18.8
			s-8.4,9.2-7.1,20.3s2,21,6.9,33.6c4.9,12.4,9.9,20.5,14.5,24.9c4.4,4.4,9.6,19.8,9.6,19.8s12.4,1.2,28.6,1.2s27.1-7.4,27.1-7.4
			s5-14.3,7.2-18.1c2.2-3.9,9.2-20.2,11.3-26.9c2-6.9,3.5-20.3,5.5-23.4c2-2.9,5-5.4,7.4-7.4c2.4-2,6.4-5.5,6.2-9.7
			C316.2,349.1,311.8,347.4,308,346z"/>
		<g>
			<path class="st67" d="M211.8,345.9c0,0-7.6-18.1,12.4-19.8c26.4-2.2,43.2-6.6,43.2-6.6"/>
			<path class="st67" d="M217.7,348.1c0,0,2.2-11.8,22-8.1c19.8,3.7,52.6,3.7,52.6,3.7"/>
			<path class="st67" d="M225.8,350.2c0,0,10.3,3.7,29.9,8.1c19.8,4.4,32.3-0.7,32.3-0.7"/>
			<path class="st67" d="M211.2,355.3c0,0-12.4,8.7-8.1,27.4c4.4,18.7,13.1,30.4,13.1,30.4"/>
			<path class="st67" d="M217.1,359.8c0,0-8.7,15.3,0.7,30.8"/>
		</g>
		<path class="st60" d="M284.3,464.3c0,0,63.7,6.9,72.4,30.1c8.7,23,1.2,68.4-3.4,83c-4.5,14.6-7.2,67.4-6.7,92.8
			c0.5,19.7,8.6,82.2,7.6,96.1c-0.8,13.9-3,29.4-28.4,31.6c-25.2,2.2-59.3-7.7-69.1-13.1c-9.9-5.5-30.8-9.6-45-12.1
			c-9.2-1.5-17,0.5-34.6-0.5c-17.5-1.2-24.7-4.5-26.4-6.6c-2.5-3.2-1.7-105.7-2.2-124.4s-14.8-94.4-11.8-122.5
			c1.7-15.5,5.5-34.4,15.5-42.3c13.8-10.8,66.5-12.4,66.5-12.4s10.6,5.2,28.6,5.2C266,469.2,284.3,464.3,284.3,464.3z"/>
		<g>
			<path class="st66" d="M497.4,604.8c-6.6,26.4-53.9,40.7-67.6,43s-32.3-13.8-46-25.9C370,609.9,348,587.7,348,587.7l34.4-64.9
				c0,0,14.5,13.4,27.7,27.7c13.4,14.3,32.4,35,32.4,35S503.9,578.5,497.4,604.8z"/>
			<path class="st60" d="M363.8,610.7c-6.2,3.2-20-15.8-31.9-17.6c-11.9-1.8-32.6-10.4-32.6-10.4s9.7-111.4,30.1-107
				c27.1,5.9,68.2,51.4,72.9,61.3c3.4,7.1-6.4,18.5-13.4,33.9C381.6,586.3,370,607.5,363.8,610.7z"/>
		</g>
		<g>
			<path class="st66" d="M203.1,476.4c-9.4-12.8-31.1-17.3-42.7-31.8c-15.8-20-32.4-43.2-32.4-43.2s1.7-27.2-0.5-48.6
				c-2.2-21.3-5.5-65.9-5.5-65.9l-31.3-13.8c0,0-19.8,50.4-23.5,76.8c-3.9,26.4-12.1,43.4-1.7,74.6s53.4,115.3,74.8,118
				C161.8,545.3,212.5,489.4,203.1,476.4z"/>
			<path class="st66" d="M166.5,243c0.3-2.7-3-8.1-10.4-6.2c-5.7,1.5-14.1,13.9-15.3,11.6c-1.5-3,11.9-32.8,15-45.9
				c1.5-6.6-5.2-10.9-10.4-3.2c-4.5,6.6-13.4,29.6-14.6,30.1c-1.2,0.5,8.6-34.1,8.2-41.2c-0.3-7.1-7.7-9.1-10.6-4.2
				c-2.9,4.9-9.4,41.7-11.8,40.8s2.2-32.3,0.7-38.7c-1.5-6.6-8.1-7.7-10.9-0.5c-2.7,7.2-4.2,41.5-6.4,41.3s-1.7-19.2-4-28.1
				c-2.7-10.3-9.6-5-10.6,0.5c-0.8,5.5,0.7,24.5,0.2,37.6C85,250.3,84.8,257.3,86,266c0.8,6.7,4.9,13.6,8.6,16.3
				c3.9,2.7,22.7,9.7,29.1,6.6c6.4-3.2,16-8.7,18.8-15s11.9-15.1,15.5-19.3C162.3,249.6,166.3,244.5,166.5,243z"/>
		</g>
		<path class="st60" d="M193.2,462.2c-6.9-4-13.3-12.6-19.2-16.6c-7.1-4.9-12.3-7.6-12.3-7.6s-5.5-8.2-7.7-10.4
			c-2.2-2.2-7.7-6-10.9-4.4c-3.4,1.7-20.3,30.2-29.1,55.5c-7.1,20.5-13.1,65.9-9.9,73.6c1.7,3.9,17.5,7.7,24.2,13.1
			c6.6,5.5,8.7,14.3,18.7,17.5c9.9,3.4,70.2-72.4,70.2-72.4S200.9,466.5,193.2,462.2z"/>
		<g>
			<path class="st61" d="M161.4,439.1c0,0-33.9,43.9-36.1,93.3"/>
			<path class="st61" d="M184.5,459c0,0-36.6,15-43.7,46.5"/>
			<path class="st61" d="M198.4,597.4c0,0,26.6,100.8,80.5,121.5"/>
			<path class="st61" d="M142.8,579.6c0,0,42.9-27.4,60.3-92.3"/>
			<path class="st61" d="M321.7,512.7c0,0,6.6,60.3,24.2,76.3"/>
			<path class="st61" d="M193.2,747.5c0,0,7.1,2.5,17.6,7.6c10.6,5,24,15.5,43.7,25.4"/>
		</g>
		<g>
			<path class="st58" d="M623.4,727.7c0.7-11.9,8.1-15.8,14.3-18.1c6.2-2.2,19.2-5.2,22-5.9c4.7-1.3,21.3-11.4,23.5-3.2
				c2.4,8.2-16.1,13.4-14.5,15.3c1.8,1.8,24.5-2,35.3-1c5.4,0.5,7.1,3,7.2,5.7c0.2,7.9-35.6,6-34.8,8.2c0.3,1,7.7,3,15.5,3
				c7.6,0,15.8-2,18.3-1.2c5,2,5.5,8.4-0.3,9.9c-2.5,0.7-9.7,2.7-17,2.7c-9.9,0-19.5-1.5-19.5-1.5s8.1,3,15.5,4.9
				c6.4,1.5,13.1,0.3,14.6,1.3c5,3,1.8,8.7-2.4,9.9c-1.8,0.5-8.4,1.8-14.8,0.2c-8.4-2.2-17.8-6-18.3-5.2c-0.7,1.7,13.6,6.7,16.8,9.4
				s0.7,7.2-3.7,7.4c-5.2,0.2-11.8-1.3-20.8-5.2c-9.1-3.7-16.5-6.6-22.5-10.3C626.6,747.3,622.7,739.4,623.4,727.7z"/>
			<path class="st58" d="M613.8,690.5c-8.6-7.4-33.1-23.7-37-26.2c-0.5-1.8-2.7-10.1-2.7-10.1s-8.9,6-18.8,8.7
				c-9.9,2.7-24.7,6-24.7,6s7.9,26,15.6,32.8c8.4,7.2,28.4,21.2,40.7,26.4c19.2,8.1,39.5,10.3,39.5,10.3l10.1-27.4
				C636.5,711,626.6,701.6,613.8,690.5z"/>
			<path class="st62" d="M567.4,599.8c-5.5-14.8-14.6-30.1-22.7-36.5c-8.1-6.4-20.5-7.7-20.5-7.7s5.9,44.9,5.9,59s-2.9,56-2.9,56
				s13.9-2.7,29.2-5.9c15.3-3.2,21.2-12.4,21.2-12.4S575.8,621.8,567.4,599.8z"/>
		</g>
		<g>
			<path class="st58" d="M572.8,532.1c-8.6-0.7-27.6,18.5-36,43c-7.6,21.8-18.8,37.6-18.8,37.6s-27.9,18.8-37,26.9
				c-12.8,11.3-22.4,20.8-22.4,20.8l10.4,27.2c0,0,19.3-6.7,38.5-15c12.3-5.4,33.8-18.3,40.5-23.9c6.7-5.5,19.8-25.9,23.9-33.9
				s14.1-16.3,17.5-39.2C593,553.2,581.6,532.7,572.8,532.1z"/>
			<path class="st58" d="M471.1,674.2c-0.8-12.1-8.4-16.1-14.6-18.3c-6.2-2.2-19.5-5-22.2-5.7c-4.7-1.2-21.7-11.4-23.9-3
				c-2.2,8.6,16.5,13.4,14.8,15.5c-1.7,1.8-16.8,0.3-22.2-2.5c-5.5-2.7-7.1,2.2-6.6,6c0.5,3.9,4.4,7.1,8.2,8.7s13.6-0.3,13.1,0.8
				c-0.3,1.2-2.7,1.8-8.7,2.4c-6,0.5-8.2-3.4-11.3-1.5c-3,2-3.5,10.4,2.5,11.9c2.5,0.7,5.5,1.2,9.4,1.2c3.9,0,11.6-0.7,11.6-0.7
				s-6.2,2.5-11.4,3.9c-5.2,1.3-12.1-3.2-13.3,1.2c-1.2,4.4,1.2,9.4,4.9,10.4c3.9,1.2,9.4,0.5,12.6,0c3.4-0.5,12.1-5.2,12.6-4.2
				c0.8,1.7-13.6,6.9-16.8,9.7c-3.2,2.9-0.7,7.2,3.7,7.4c5.2,0.2,11.8-1.5,21-5.5c9.1-3.9,18.1-10.6,24.2-14.5
				C469.8,690.7,471.8,686.3,471.1,674.2z"/>
		</g>
		<path class="st62" d="M930.4,776.1c0-24.5-10.6-53.6-10.6-53.6s-169.4-12.4-174.3,5.9c-1.7,6.4-4.4,34.1-5.7,62.2
			c-1.3,28.1,5.4,89.2,5.4,89.2s22.2,3.5,47.9,5.5s44.7-7.4,52.3-6.7c4.7,0.5,20,2.9,39.5,2.4c11.6-0.3,43.7-6.7,43.7-6.7
			s-0.7-19.3-1-42.3C926.7,807,930.4,800.6,930.4,776.1z"/>
		<g class="st68">
			<path class="st67" d="M811.4,779.6c-15-1.3-33.1-3.2-33.1-3.2l-5.9,42.7c0,0,16.8,21.2,29.1,23.7c12.3,2.5,32.8-18.7,32.8-18.7
				l4.4-44.2C838.8,779.9,823.7,780.6,811.4,779.6z"/>
			<path class="st67" d="M925.2,768.7l-3.7,44.2c0,0-15,22.5-24.5,23.2c-7.6,0.5-26.4-15.5-26.4-15.5l4-38.8c0,0,15.1-3.7,25.2-5.9
				C909.9,773.9,925.2,768.7,925.2,768.7z"/>
		</g>
		<path class="st69" d="M860.8,801.6c0,0-2.2,26.4-8.1,35.8c-5.9,9.6-7.7,39-7.7,39"/>
		<path class="st69" d="M809.6,860.1c0,0,15.3,0.7,22-1.5c6.6-2.2,14.6-8.1,18.3-8.1s17.5,10.9,39.5,8.1"/>
		<g>
			<path class="st70" d="M1019.3,377.1c-1.7-26.9-14.8-56.6-14.8-56.6s1.2-10.6,1-17c-0.2-10.8-8.9-29.7-11.6-33.8
				c-2.5-4-10.4-10.6-13.4-10.1s-3.4,2.5-3.4,2.5s-6.4-4.5-10.4-2.5c-3.7,1.7-5.2,6.4-5.2,6.4s-4.2-2.9-7.4-1.2
				c-4.2,2.4-4.7,8.6-4.7,8.6s-3.5-0.5-6,1c-2.5,1.5-5,6.4-4.5,8.9c0.5,2.5,1.8,5.5,1.8,5.5s-1.5,6.4-0.3,10.1
				c1.2,3.7,0,7.6,1.2,10.4c3.7,10.1,12.3,12.3,16.3,17.5c4,5.2,16.3,7.1,16.3,7.1s-0.8,25.4-2.2,37.1c-2.2,17.8-4.9,44.7-4.9,44.7
				s-10.9,12.1-17,20.5c-6,8.4-12.4,19-21,25.9c-16.5,13.4-41.2,14.6-33.8,48.4c3.9,17.5,21.3,35.6,39,35.3s44.5-35.6,52.8-47.6
				c8.2-11.9,22.4-43.9,26-55C1017,432.2,1020.7,400.7,1019.3,377.1z"/>
			<g>
				<path class="st71" d="M950.4,273.4c0,0,9.2,1.8,11.6,10.4"/>
				<path class="st71" d="M961.7,265.2c0,0,11.1,5.2,11.6,11.9"/>
				<path class="st71" d="M978,261.8c0,0,9.2,5.9,10.4,12.9"/>
				<path class="st71" d="M959.3,302c0,0-2.5-2.5-7.1-5.5"/>
				<path class="st71" d="M954.1,302c-0.3-3-1.2-4.9-2.2-7.1c-1.2-2.2-2.4-5.2-3.7-6.7c-1.5-1.5-3.4-1.5-4.9-0.7
					c-1.5,0.7-2.5,3-2.5,3"/>
			</g>
		</g>
		<path class="st63" d="M858,490.6c3.4-8.9,22.2-11.8,31.8-13.6c9.6-2,14.5-6.2,20.7-8.7c4.4-1.8,12.3-13.3,22.4-12.1
			c10.1,1.2,24.5,16.8,26.7,38c2.2,21.2,3.4,38,0,50.2c-3.4,12.3-10.1,22.4-25.7,22.4c-16.5,0-46.5,12.9-46.5,12.9
			S854.6,499.5,858,490.6z"/>
		<path class="st70" d="M861.5,448c0,0,10.3-1.5,12.8-4.7c4.9-6.2,6.9-19,3.2-26c-4-7.9-16.5-0.7-16.5-0.7s-65.9-43.4-75.1-39.3
			c-9.4,4.2-10.1,17-9.9,22.7c0.2,5.5,2.7,13.9,2.7,13.9s-5.2-1.3-7.2,2c-2,3.4-0.5,10.3,0.3,13.4c1.3,4.9,3,13.6,6.2,15.5
			c3.2,1.8,5.4,0.7,5.4,0.7s3.9,18.3,6.4,24.4c2.4,6,9.6,4.7,9.6,4.7l0.8,29.6l61.8-1.8c0.2-3-8.9-39.3-8.9-39.3L861.5,448z"/>
		<path class="st67" d="M869.3,370.2c0,0,2.5-9.2-3.5-18.8c-6.2-9.4-30.9-11.6-30.9-11.6l-26.7-3.7c0,0-6-4.7-13.9-3.2
			c-7.9,1.7-5,10.4-5,10.4s-7.9-0.5-10.3,3.7c-1.5,2.7-1.2,8.2,0.3,12.9c-3.4,1.5-6,5.4-6.2,9.7c-0.2,4.7,1.3,10.8,4.5,14.1
			c0,0-2.7,12.6-2.2,18.5c1.2,12.4,10.8,28.2,15.1,38c4.2,9.7,6.4,9.9,11.6,14.8c5.2,4.9,7.1,8.1,8.9,16.5c1.8,8.4,18.5,5,29.1,3.5
			c10.6-1.5,14.5-2.7,15.5-4.9c1-2.2,2.5-14.1,6.6-19c4-4.9,8.4-13.4,12.3-26.6c3.9-13.1,3.5-23.2,3.9-34.6
			C878.7,378.8,869.3,370.2,869.3,370.2z"/>
		<g>
			<path class="st67" d="M852.8,388.2c0,0,2.9,11.8-0.7,27.1c-3.7,15.3-5.9,32.9-5.9,32.9"/>
			<path class="st67" d="M860.8,379.5c0,0,11.8,10.3,6.6,29.2c-5,19-11.8,34.4-11.8,34.4"/>
			<path class="st67" d="M795.8,378.8c0,0,12.4,3.7,25.5,0c13.1-3.7,24.2-1.5,24.2-1.5"/>
			<path class="st67" d="M792.1,351.8c0,0,24.2,8.7,37.3,7.4c13.1-1.5,22.7,14.6,22.7,14.6"/>
			<path class="st67" d="M802.4,338.5c0,0,9.6,5,24.2,6.6c14.6,1.5,30.1,3.7,33.6,13.1c3.7,9.6,0.7,13.9,0.7,13.9"/>
		</g>
		<g>
			<path class="st70" d="M542.2,557.4c2.2,2.2,7.6-2.4,13.9-1.7c5.2,0.5,11.3,11.1,18,13.9c6.7,2.9,15.5,5.5,15.5,5.5
				s19,35.8,27.7,46.9c12.3,15.3,30.1,28.9,41.2,29.6c11.1,0.5,38.7-11.3,57.1-24c18.7-12.6,39.3-34.3,39.3-34.3l-20.8-53.6
				c0,0-17.8,11.9-31.9,23c-13.6,10.8-33.4,32.8-33.4,32.8s-16.6-13.4-26-21.2c-9.4-7.9-27.6-16-27.6-16s-2.5-14.1-3-18.1
				c-0.3-4-3-10.8-6.4-15.6s-10.4-6.4-14.5-3.4c-2.4,1.7,2,3.9,3.5,7.1c1,2.2,1.2,4.5,1.2,4.5s-6.9-9.2-13.1-10.9
				c-4-1.2-8.7-2.5-12.1,0.3c-1.8,1.5-2,4.2-2,4.2s-6.7,1-8.2,3.5c-1.3,2.5-1.3,4.5-1.3,4.5s-4.7,0.2-6.6,2.7c-1.8,2.5-3,7.9-3,7.9
				s-4.5,1-6.7,3.5C539.7,552.4,540,555.4,542.2,557.4z"/>
			<g>
				<path class="st71" d="M551.1,544.8c0,0,10.4-4.5,19.5,5.5"/>
				<path class="st71" d="M560,534.3c0,0,9.1-1,13.3,4.2"/>
				<path class="st71" d="M569.6,526.2c0,0,6.7-0.7,11.1,4.5"/>
			</g>
		</g>
		<path class="st63" d="M791.6,492.7c0,0-45.7,4.5-59,24.5c-13.3,20-0.3,66.5,4.2,80.8c4.5,14.3,4.2,67.1,3.9,91.9
			c-0.2,19-11.3,68.1-6.7,76c4.5,8.1,69.6,23.7,89.4,24.5c46.2,1.7,102-15.3,109.2-24.7c7.2-9.4-13.1-85.4-12.8-103.4
			c0.3-18.1,0.3-107.4-3-134.6c-3.2-27.2-12.1-47.2-55.8-39.5C837,492.6,791.6,492.7,791.6,492.7z"/>
		<path class="st63" d="M749.6,508c0,0-10.6,2.4-16.5,7.1c-9.4,7.4-19,19.2-24.5,27.4c-10.3,15.1-24.4,24-24.4,24
			s2.7,18.7,12.8,37.6c9.9,19.2,24.2,28.6,24.2,28.6s27.1-9.7,37.5-27.1c11.3-18.8,15.3-42.2,15.3-42.2L749.6,508z"/>
		<g>
			<path class="st72" d="M880.7,492.9c0,0,21.2,12.4,27.7,32.3c6.6,19.8,7.4,40.2,7.4,40.2"/>
			<path class="st72" d="M904,476.1c0,0,23.4-5.9,34.5,13.1"/>
			<path class="st72" d="M898.8,477.6c0,0,22-0.7,32.9,24.9"/>
			<path class="st72" d="M782.5,542c0,0,2.2,24.2-5,39.5C770.1,596.8,743,621,743,621"/>
			<path class="st72" d="M870.4,588c0,0-20.5,34.5-26.4,65c-5.9,30.8-21.2,85.5-21.2,85.5"/>
		</g>
		<path class="st48" d="M550,549.4c-4.4-8.7-15.3-17.5-17-23c-1.7-5.5,2.2-16,0-29.6c-2.2-13.8-8.7-23-9.9-27.4
			c-1.2-4.4-3.4-23.5-6.6-31.3c-3.4-7.7-7.7-16.5-12.1-22.5c-4.4-6-11.6-11.6-27.4-16c-16-4.4-31.3,6.6-31.3,6.6s-14.8-3.4-24.7,6.6
			c-9.9,9.9-14.1,19.3-15.3,27.6c-1.2,8.1-1.7,14.8-3.9,20.8c-2.2,6-4.2,14.1-9.2,22.9c-9.1,15.8-1.5,35.5-0.2,45.2
			c1.5,9.6-10.4,18.1-16,26.9c-5.5,8.7-2.9,25.7,5.2,32.6s17.8,2.5,21.2,7.9c3.4,5.5,10.4,25.7,29.6,29.1
			c19.2,3.4,26.9-10.4,34.6-9.4c7.7,1.2,14.3,13.1,32.9,6c18.7-7.1,15.8-24.5,21.3-29.1c5.5-4.5,14.5-2.7,23.7-8.6
			C554.3,579.1,554.3,558.3,550,549.4z"/>
		<g>
			<path class="st59" d="M500.9,428.9c0,0,12.4,22,10.9,38c-1.5,16.1,2.9,27.1,6.6,38c3.7,10.9-2.2,27.7,5,35.8
				c7.4,8.1,13.1,27.7,9.6,35.8"/>
			<path class="st59" d="M525.8,503.5c0,0,2.9,12.4,1.5,22c-1.5,9.6,5.9,12.4,10.9,21.2c5,8.7,6.6,22,4.4,25.5"/>
			<path class="st59" d="M405.8,485.2c0,0-8.1,13.1-3.7,24.2c4.4,10.9,7.4,32.3,0.7,38.8c-6.6,6.6-22.7,17.5-16.1,29.2"/>
			<path class="st59" d="M413.2,546.7c0,0-10.3,16.8-4.4,27.1c5.9,10.3,8.1,13.1,8.1,23.4c0,10.3,7.4,16.8,7.4,16.8"/>
			<path class="st59" d="M445.3,413.6c0,0-21.2,27.7-10.9,49.1c10.3,21.2,6.6,32.3,3.7,45.4c-2.9,13.1-5.9,26.4-0.7,39.5
				c5,13.1,5.9,21.2,2.9,35.8c-2.9,14.6,2.2,24.2,8.1,29.9"/>
			<path class="st59" d="M441.7,437.6c0,0-4.4,15.3,5,35.8c9.6,20.5,8.1,38.8,5,47.6c-2.9,8.7-1.5,16.8,5,27.1
				c6.6,10.3,7.4,21.2,2.9,33.6c-4.4,12.4-1.5,19,4.4,24.2"/>
		</g>
		<path class="st59" d="M498.7,412.8c0,0,23.4,19,27.7,36.6c4.4,17.5-7.4,24.2-0.7,37.3c6.6,13.1,13.9,20.5,12.4,35.1
			c-1.5,14.6,2.2,16.1,8.7,27.7c6.6,11.8,12.4,15.3,8.7,29.9"/>
		<path class="st59" d="M424.1,420.1c0,0-25.5,13.1-25.5,32.3c0,19,5.9,21.2,2.2,38c-3.7,16.8-13.9,22-16.8,34.5
			c-2.9,12.4,3.7,31.4-0.7,38c-4.4,6.6-14.6,24.2-0.7,35.1"/>
	</g>
</g>
</svg>
